<svg width="563" height="225" viewBox="0 0 563 225" fill="none" xmlns="http://www.w3.org/2000/svg">
<g clip-path="url(#clip0_43_882)">
<rect width="563" height="225" rx="19" fill="white"/>
<rect y="-5" width="563" height="101" rx="9" fill="white"/>
<path d="M16.7614 15.4545H18.8636L23.8068 27.5284H23.9773L28.9205 15.4545H31.0227V30H29.375V18.9489H29.233L24.6875 30H23.0966L18.5511 18.9489H18.4091V30H16.7614V15.4545ZM37.5373 30.2557C36.846 30.2557 36.2186 30.1255 35.6552 29.8651C35.0917 29.5999 34.6443 29.2188 34.3129 28.7216C33.9814 28.2197 33.8157 27.6136 33.8157 26.9034C33.8157 26.2784 33.9388 25.7718 34.185 25.3835C34.4312 24.9905 34.7603 24.6828 35.1722 24.4602C35.5842 24.2377 36.0387 24.072 36.5359 23.9631C37.0378 23.8494 37.542 23.7595 38.0487 23.6932C38.7115 23.608 39.2489 23.544 39.6609 23.5014C40.0775 23.4541 40.3806 23.3759 40.57 23.267C40.7641 23.1581 40.8612 22.9687 40.8612 22.6989V22.642C40.8612 21.9413 40.6694 21.3968 40.2859 21.0085C39.9071 20.6203 39.3318 20.4261 38.56 20.4261C37.7598 20.4261 37.1325 20.6013 36.6779 20.9517C36.2234 21.3021 35.9038 21.6761 35.7191 22.0739L34.1282 21.5057C34.4123 20.8428 34.7911 20.3267 35.2646 19.9574C35.7428 19.5833 36.2636 19.3229 36.8271 19.1761C37.3952 19.0246 37.954 18.9489 38.5032 18.9489C38.8536 18.9489 39.256 18.9915 39.7106 19.0767C40.1699 19.1572 40.6126 19.3253 41.0387 19.581C41.4696 19.8366 41.8271 20.2225 42.1112 20.7386C42.3952 21.2547 42.5373 21.946 42.5373 22.8125V30H40.8612V28.5227H40.7759C40.6623 28.7595 40.4729 29.0128 40.2077 29.2827C39.9426 29.5526 39.5898 29.7822 39.1495 29.9716C38.7092 30.161 38.1718 30.2557 37.5373 30.2557ZM37.793 28.75C38.4558 28.75 39.0146 28.6198 39.4691 28.3594C39.9284 28.099 40.274 27.7628 40.506 27.3509C40.7428 26.9389 40.8612 26.5057 40.8612 26.0511V24.517C40.7901 24.6023 40.6339 24.6804 40.3924 24.7514C40.1557 24.8177 39.881 24.8769 39.5685 24.929C39.2608 24.9763 38.9601 25.0189 38.6665 25.0568C38.3777 25.09 38.1433 25.1184 37.9634 25.142C37.5278 25.1989 37.1206 25.2912 36.7418 25.419C36.3678 25.5421 36.0647 25.7292 35.8327 25.9801C35.6055 26.2263 35.4918 26.5625 35.4918 26.9886C35.4918 27.571 35.7073 28.0114 36.1381 28.3097C36.5737 28.6032 37.1254 28.75 37.793 28.75ZM46.8466 19.0909L49.4602 23.5511L52.0739 19.0909H54.0057L50.483 24.5455L54.0057 30H52.0739L49.4602 25.767L46.8466 30H44.9148L48.3807 24.5455L44.9148 19.0909H46.8466ZM56.3974 30V19.0909H58.0735V30H56.3974ZM57.2496 17.2727C56.9229 17.2727 56.6412 17.1615 56.4045 16.9389C56.1725 16.7164 56.0565 16.4489 56.0565 16.1364C56.0565 15.8239 56.1725 15.5563 56.4045 15.3338C56.6412 15.1113 56.9229 15 57.2496 15C57.5763 15 57.8557 15.1113 58.0877 15.3338C58.3245 15.5563 58.4428 15.8239 58.4428 16.1364C58.4428 16.4489 58.3245 16.7164 58.0877 16.9389C57.8557 17.1615 57.5763 17.2727 57.2496 17.2727ZM61.1435 30V19.0909H62.7628V20.7955H62.9048C63.1321 20.2131 63.4991 19.7609 64.0057 19.4389C64.5123 19.1122 65.1207 18.9489 65.831 18.9489C66.5507 18.9489 67.1496 19.1122 67.6278 19.4389C68.1108 19.7609 68.4872 20.2131 68.7571 20.7955H68.8707C69.1501 20.232 69.5691 19.7846 70.1278 19.4531C70.6866 19.117 71.3565 18.9489 72.1378 18.9489C73.1132 18.9489 73.911 19.2543 74.5312 19.8651C75.1515 20.4711 75.4616 21.4157 75.4616 22.6989V30H73.7855V22.6989C73.7855 21.8939 73.5653 21.3187 73.125 20.973C72.6847 20.6274 72.1662 20.4545 71.5696 20.4545C70.8026 20.4545 70.2083 20.6866 69.7869 21.1506C69.3655 21.6098 69.1548 22.1922 69.1548 22.8977V30H67.4503V22.5284C67.4503 21.9081 67.2491 21.4086 66.8466 21.0298C66.4441 20.6463 65.9257 20.4545 65.2912 20.4545C64.8556 20.4545 64.4484 20.5705 64.0696 20.8026C63.6955 21.0346 63.3925 21.3565 63.1605 21.7685C62.9332 22.1757 62.8196 22.6468 62.8196 23.1818V30H61.1435ZM78.5263 30V19.0909H80.2024V30H78.5263ZM79.3786 17.2727C79.0518 17.2727 78.7701 17.1615 78.5334 16.9389C78.3014 16.7164 78.1854 16.4489 78.1854 16.1364C78.1854 15.8239 78.3014 15.5563 78.5334 15.3338C78.7701 15.1113 79.0518 15 79.3786 15C79.7053 15 79.9846 15.1113 80.2166 15.3338C80.4534 15.5563 80.5717 15.8239 80.5717 16.1364C80.5717 16.4489 80.4534 16.7164 80.2166 16.9389C79.9846 17.1615 79.7053 17.2727 79.3786 17.2727ZM82.9599 30V28.7216L89.1531 20.767V20.6534H83.1587V19.0909H91.3121V20.4261L85.2894 28.3239V28.4375H91.511V30H82.9599ZM98.354 30.2273C97.3029 30.2273 96.3962 29.9953 95.6339 29.5312C94.8763 29.0625 94.2915 28.4091 93.8796 27.571C93.4724 26.7282 93.2688 25.7481 93.2688 24.6307C93.2688 23.5133 93.4724 22.5284 93.8796 21.6761C94.2915 20.8191 94.8645 20.1515 95.5984 19.6733C96.337 19.1903 97.1987 18.9489 98.1836 18.9489C98.7518 18.9489 99.3129 19.0436 99.8668 19.233C100.421 19.4223 100.925 19.7301 101.38 20.1562C101.834 20.5777 102.196 21.1364 102.466 21.8324C102.736 22.5284 102.871 23.3854 102.871 24.4034V25.1136H94.462V23.6648H101.167C101.167 23.0492 101.043 22.5 100.797 22.017C100.556 21.5341 100.21 21.1529 99.7603 20.8736C99.3152 20.5942 98.7897 20.4545 98.1836 20.4545C97.516 20.4545 96.9383 20.6203 96.4506 20.9517C95.9677 21.2784 95.596 21.7045 95.3356 22.2301C95.0752 22.7557 94.945 23.3191 94.945 23.9205V24.8864C94.945 25.7102 95.087 26.4086 95.3711 26.9815C95.6599 27.5497 96.06 27.983 96.5714 28.2812C97.0827 28.5748 97.677 28.7216 98.354 28.7216C98.7944 28.7216 99.1921 28.66 99.5472 28.5369C99.9071 28.4091 100.217 28.2197 100.478 27.9688C100.738 27.7131 100.939 27.3958 101.081 27.017L102.701 27.4716C102.53 28.0208 102.244 28.5038 101.841 28.9205C101.439 29.3324 100.942 29.6544 100.35 29.8864C99.7579 30.1136 99.0927 30.2273 98.354 30.2273ZM113.034 15.4545V30H111.273V15.4545H113.034ZM118.015 23.4375V30H116.339V19.0909H117.958V20.7955H118.1C118.356 20.2415 118.744 19.7964 119.265 19.4602C119.786 19.1193 120.458 18.9489 121.282 18.9489C122.021 18.9489 122.667 19.1004 123.221 19.4034C123.775 19.7017 124.206 20.1562 124.513 20.767C124.821 21.3731 124.975 22.1402 124.975 23.0682V30H123.299V23.1818C123.299 22.3248 123.076 21.6572 122.631 21.179C122.186 20.696 121.576 20.4545 120.799 20.4545C120.264 20.4545 119.786 20.5705 119.364 20.8026C118.948 21.0346 118.619 21.3731 118.377 21.8182C118.136 22.2633 118.015 22.803 118.015 23.4375ZM132.47 30.2273C131.447 30.2273 130.566 29.9858 129.828 29.5028C129.089 29.0199 128.521 28.3546 128.123 27.5071C127.725 26.6596 127.527 25.6913 127.527 24.6023C127.527 23.4943 127.73 22.5166 128.137 21.669C128.549 20.8168 129.122 20.1515 129.856 19.6733C130.595 19.1903 131.457 18.9489 132.441 18.9489C133.208 18.9489 133.9 19.0909 134.515 19.375C135.131 19.6591 135.635 20.0568 136.028 20.5682C136.421 21.0795 136.665 21.6761 136.76 22.358H135.083C134.956 21.8608 134.672 21.4205 134.231 21.0369C133.796 20.6487 133.208 20.4545 132.47 20.4545C131.816 20.4545 131.243 20.625 130.751 20.9659C130.263 21.3021 129.882 21.7779 129.608 22.3935C129.338 23.0043 129.203 23.7216 129.203 24.5455C129.203 25.3883 129.335 26.1222 129.6 26.7472C129.87 27.3722 130.249 27.8575 130.737 28.2031C131.229 28.5488 131.807 28.7216 132.47 28.7216C132.905 28.7216 133.301 28.6458 133.656 28.4943C134.011 28.3428 134.312 28.125 134.558 27.8409C134.804 27.5568 134.979 27.2159 135.083 26.8182H136.76C136.665 27.4621 136.431 28.0421 136.056 28.5582C135.687 29.0696 135.197 29.4768 134.586 29.7798C133.98 30.0781 133.275 30.2273 132.47 30.2273ZM143.642 30.2273C142.657 30.2273 141.793 29.9929 141.049 29.5241C140.311 29.0554 139.733 28.3996 139.316 27.5568C138.904 26.714 138.699 25.7292 138.699 24.6023C138.699 23.4659 138.904 22.474 139.316 21.6264C139.733 20.7789 140.311 20.1207 141.049 19.652C141.793 19.1832 142.657 18.9489 143.642 18.9489C144.627 18.9489 145.488 19.1832 146.227 19.652C146.97 20.1207 147.548 20.7789 147.96 21.6264C148.377 22.474 148.585 23.4659 148.585 24.6023C148.585 25.7292 148.377 26.714 147.96 27.5568C147.548 28.3996 146.97 29.0554 146.227 29.5241C145.488 29.9929 144.627 30.2273 143.642 30.2273ZM143.642 28.7216C144.39 28.7216 145.005 28.5298 145.488 28.1463C145.971 27.7628 146.329 27.2585 146.561 26.6335C146.793 26.0085 146.909 25.3314 146.909 24.6023C146.909 23.8731 146.793 23.1937 146.561 22.5639C146.329 21.9342 145.971 21.4252 145.488 21.0369C145.005 20.6487 144.39 20.4545 143.642 20.4545C142.894 20.4545 142.278 20.6487 141.795 21.0369C141.312 21.4252 140.955 21.9342 140.723 22.5639C140.491 23.1937 140.375 23.8731 140.375 24.6023C140.375 25.3314 140.491 26.0085 140.723 26.6335C140.955 27.2585 141.312 27.7628 141.795 28.1463C142.278 28.5298 142.894 28.7216 143.642 28.7216ZM151.143 30V19.0909H152.763V20.7955H152.905C153.132 20.2131 153.499 19.7609 154.006 19.4389C154.512 19.1122 155.121 18.9489 155.831 18.9489C156.551 18.9489 157.15 19.1122 157.628 19.4389C158.111 19.7609 158.487 20.2131 158.757 20.7955H158.871C159.15 20.232 159.569 19.7846 160.128 19.4531C160.687 19.117 161.357 18.9489 162.138 18.9489C163.113 18.9489 163.911 19.2543 164.531 19.8651C165.152 20.4711 165.462 21.4157 165.462 22.6989V30H163.786V22.6989C163.786 21.8939 163.565 21.3187 163.125 20.973C162.685 20.6274 162.166 20.4545 161.57 20.4545C160.803 20.4545 160.208 20.6866 159.787 21.1506C159.366 21.6098 159.155 22.1922 159.155 22.8977V30H157.45V22.5284C157.45 21.9081 157.249 21.4086 156.847 21.0298C156.444 20.6463 155.926 20.4545 155.291 20.4545C154.856 20.4545 154.448 20.5705 154.07 20.8026C153.696 21.0346 153.393 21.3565 153.161 21.7685C152.933 22.1757 152.82 22.6468 152.82 23.1818V30H151.143ZM173.1 30.2273C172.049 30.2273 171.142 29.9953 170.38 29.5312C169.622 29.0625 169.038 28.4091 168.626 27.571C168.219 26.7282 168.015 25.7481 168.015 24.6307C168.015 23.5133 168.219 22.5284 168.626 21.6761C169.038 20.8191 169.611 20.1515 170.344 19.6733C171.083 19.1903 171.945 18.9489 172.93 18.9489C173.498 18.9489 174.059 19.0436 174.613 19.233C175.167 19.4223 175.671 19.7301 176.126 20.1562C176.58 20.5777 176.942 21.1364 177.212 21.8324C177.482 22.5284 177.617 23.3854 177.617 24.4034V25.1136H169.208V23.6648H175.913C175.913 23.0492 175.79 22.5 175.543 22.017C175.302 21.5341 174.956 21.1529 174.506 20.8736C174.061 20.5942 173.536 20.4545 172.93 20.4545C172.262 20.4545 171.684 20.6203 171.197 20.9517C170.714 21.2784 170.342 21.7045 170.082 22.2301C169.821 22.7557 169.691 23.3191 169.691 23.9205V24.8864C169.691 25.7102 169.833 26.4086 170.117 26.9815C170.406 27.5497 170.806 27.983 171.317 28.2812C171.829 28.5748 172.423 28.7216 173.1 28.7216C173.54 28.7216 173.938 28.66 174.293 28.5369C174.653 28.4091 174.963 28.2197 175.224 27.9688C175.484 27.7131 175.685 27.3958 175.827 27.017L177.447 27.4716C177.276 28.0208 176.99 28.5038 176.587 28.9205C176.185 29.3324 175.688 29.6544 175.096 29.8864C174.504 30.1136 173.839 30.2273 173.1 30.2273Z" fill="black"/>
<path d="M16.7614 78V63.4545H25.483V65.017H18.5227V69.9318H24.8295V71.4943H18.5227V78H16.7614ZM29.9485 63.4545V78H28.2724V63.4545H29.9485ZM37.5923 78.2273C36.5412 78.2273 35.6345 77.9953 34.8722 77.5312C34.1146 77.0625 33.5298 76.4091 33.1179 75.571C32.7107 74.7282 32.5071 73.7481 32.5071 72.6307C32.5071 71.5133 32.7107 70.5284 33.1179 69.6761C33.5298 68.8191 34.1027 68.1515 34.8366 67.6733C35.5753 67.1903 36.437 66.9489 37.4219 66.9489C37.9901 66.9489 38.5511 67.0436 39.1051 67.233C39.6591 67.4223 40.1634 67.7301 40.6179 68.1562C41.0724 68.5777 41.4347 69.1364 41.7045 69.8324C41.9744 70.5284 42.1094 71.3854 42.1094 72.4034V73.1136H33.7003V71.6648H40.4048C40.4048 71.0492 40.2817 70.5 40.0355 70.017C39.794 69.5341 39.4484 69.1529 38.9986 68.8736C38.5535 68.5942 38.0279 68.4545 37.4219 68.4545C36.7543 68.4545 36.1766 68.6203 35.6889 68.9517C35.206 69.2784 34.8343 69.7045 34.5739 70.2301C34.3134 70.7557 34.1832 71.3191 34.1832 71.9205V72.8864C34.1832 73.7102 34.3253 74.4086 34.6094 74.9815C34.8982 75.5497 35.2983 75.983 35.8097 76.2812C36.321 76.5748 36.9152 76.7216 37.5923 76.7216C38.0327 76.7216 38.4304 76.66 38.7855 76.5369C39.1454 76.4091 39.4555 76.2197 39.7159 75.9688C39.9763 75.7131 40.1776 75.3958 40.3196 75.017L41.9389 75.4716C41.7685 76.0208 41.482 76.5038 41.0795 76.9205C40.6771 77.3324 40.1799 77.6544 39.5881 77.8864C38.9962 78.1136 38.331 78.2273 37.5923 78.2273ZM45.6161 67.0909L48.2298 71.5511L50.8434 67.0909H52.7752L49.2525 72.5455L52.7752 78H50.8434L48.2298 73.767L45.6161 78H43.6843L47.1502 72.5455L43.6843 67.0909H45.6161ZM55.1669 78V67.0909H56.843V78H55.1669ZM56.0192 65.2727C55.6925 65.2727 55.4107 65.1615 55.174 64.9389C54.942 64.7164 54.826 64.4489 54.826 64.1364C54.826 63.8239 54.942 63.5563 55.174 63.3338C55.4107 63.1113 55.6925 63 56.0192 63C56.3459 63 56.6252 63.1113 56.8572 63.3338C57.094 63.5563 57.2124 63.8239 57.2124 64.1364C57.2124 64.4489 57.094 64.7164 56.8572 64.9389C56.6252 65.1615 56.3459 65.2727 56.0192 65.2727ZM60.1403 78V63.4545H61.8164V68.8239H61.9585C62.0816 68.6345 62.252 68.393 62.4698 68.0994C62.6924 67.8011 63.0096 67.536 63.4215 67.304C63.8382 67.0672 64.4016 66.9489 65.1119 66.9489C66.0304 66.9489 66.8401 67.1785 67.5408 67.6378C68.2416 68.0971 68.7885 68.7481 69.1815 69.5909C69.5745 70.4337 69.771 71.428 69.771 72.5739C69.771 73.7292 69.5745 74.7306 69.1815 75.5781C68.7885 76.4209 68.244 77.0743 67.5479 77.5384C66.8519 77.9976 66.0494 78.2273 65.1403 78.2273C64.4395 78.2273 63.8784 78.1113 63.457 77.8793C63.0356 77.6425 62.7113 77.375 62.484 77.0767C62.2567 76.7737 62.0816 76.5227 61.9585 76.3239H61.7596V78H60.1403ZM61.788 72.5455C61.788 73.3693 61.9087 74.0961 62.1502 74.7259C62.3917 75.3509 62.7444 75.8409 63.2085 76.196C63.6725 76.5464 64.2406 76.7216 64.913 76.7216C65.6138 76.7216 66.1985 76.5369 66.6673 76.1676C67.1407 75.7936 67.4959 75.2917 67.7326 74.6619C67.9741 74.0275 68.0948 73.322 68.0948 72.5455C68.0948 71.7784 67.9764 71.0871 67.7397 70.4716C67.5077 69.8513 67.1549 69.3613 66.6815 69.0014C66.2127 68.6368 65.6232 68.4545 64.913 68.4545C64.2312 68.4545 63.6583 68.6274 63.1942 68.973C62.7302 69.3139 62.3799 69.7921 62.1431 70.4077C61.9064 71.0185 61.788 71.7311 61.788 72.5455ZM72.3349 78V67.0909H74.011V78H72.3349ZM73.1871 65.2727C72.8604 65.2727 72.5787 65.1615 72.342 64.9389C72.11 64.7164 71.994 64.4489 71.994 64.1364C71.994 63.8239 72.11 63.5563 72.342 63.3338C72.5787 63.1113 72.8604 63 73.1871 63C73.5138 63 73.7932 63.1113 74.0252 63.3338C74.262 63.5563 74.3803 63.8239 74.3803 64.1364C74.3803 64.4489 74.262 64.7164 74.0252 64.9389C73.7932 65.1615 73.5138 65.2727 73.1871 65.2727ZM78.7571 63.4545V78H77.081V63.4545H78.7571ZM81.8271 78V67.0909H83.5032V78H81.8271ZM82.6793 65.2727C82.3526 65.2727 82.0709 65.1615 81.8342 64.9389C81.6022 64.7164 81.4862 64.4489 81.4862 64.1364C81.4862 63.8239 81.6022 63.5563 81.8342 63.3338C82.0709 63.1113 82.3526 63 82.6793 63C83.006 63 83.2854 63.1113 83.5174 63.3338C83.7541 63.5563 83.8725 63.8239 83.8725 64.1364C83.8725 64.4489 83.7541 64.7164 83.5174 64.9389C83.2854 65.1615 83.006 65.2727 82.6793 65.2727ZM91.3175 67.0909V68.5114H85.6641V67.0909H91.3175ZM87.3118 64.4773H88.9879V74.875C88.9879 75.3485 89.0566 75.7036 89.1939 75.9403C89.3359 76.1723 89.5159 76.3286 89.7337 76.4091C89.9562 76.4848 90.1906 76.5227 90.4368 76.5227C90.6214 76.5227 90.773 76.5133 90.8913 76.4943C91.0097 76.4706 91.1044 76.4517 91.1754 76.4375L91.5163 77.9432C91.4027 77.9858 91.2441 78.0284 91.0405 78.071C90.8369 78.1184 90.5788 78.142 90.2663 78.142C89.7929 78.142 89.3288 78.0402 88.8743 77.8366C88.4245 77.633 88.0504 77.3229 87.7521 76.9062C87.4586 76.4896 87.3118 75.964 87.3118 75.3295V64.4773ZM94.9183 82.0909C94.6342 82.0909 94.3809 82.0672 94.1584 82.0199C93.9358 81.9773 93.782 81.9347 93.6967 81.892L94.1229 80.4148C94.5301 80.5189 94.8899 80.5568 95.2024 80.5284C95.5149 80.5 95.7919 80.3603 96.0334 80.1094C96.2796 79.8632 96.5045 79.4631 96.7081 78.9091L97.0206 78.0568L92.9865 67.0909H94.8047L97.8161 75.7841H97.9297L100.941 67.0909H102.759L98.1286 79.5909C97.9202 80.1544 97.6622 80.6207 97.3544 80.9901C97.0466 81.3641 96.6892 81.6411 96.282 81.821C95.8795 82.0009 95.425 82.0909 94.9183 82.0909Z" fill="black"/>
<path d="M24.7159 111.091C24.6307 110.371 24.285 109.812 23.679 109.415C23.0729 109.017 22.3295 108.818 21.4489 108.818C20.8049 108.818 20.2415 108.922 19.7585 109.131C19.2803 109.339 18.9063 109.625 18.6364 109.99C18.3712 110.355 18.2386 110.769 18.2386 111.233C18.2386 111.621 18.331 111.955 18.5156 112.234C18.705 112.509 18.9465 112.739 19.2401 112.923C19.5336 113.103 19.8414 113.252 20.1634 113.371C20.4853 113.484 20.7812 113.577 21.0511 113.648L22.5284 114.045C22.9072 114.145 23.3286 114.282 23.7926 114.457C24.2614 114.633 24.7088 114.872 25.1349 115.175C25.5658 115.473 25.9209 115.857 26.2003 116.325C26.4796 116.794 26.6193 117.369 26.6193 118.051C26.6193 118.837 26.4134 119.547 26.0014 120.182C25.5942 120.816 24.9976 121.321 24.2116 121.695C23.4304 122.069 22.4811 122.256 21.3636 122.256C20.322 122.256 19.42 122.088 18.6577 121.751C17.9001 121.415 17.3035 120.946 16.8679 120.345C16.437 119.744 16.1932 119.045 16.1364 118.25H17.9545C18.0019 118.799 18.1866 119.254 18.5085 119.614C18.8352 119.969 19.2472 120.234 19.7443 120.409C20.2462 120.58 20.786 120.665 21.3636 120.665C22.036 120.665 22.6397 120.556 23.1747 120.338C23.7098 120.116 24.1335 119.808 24.446 119.415C24.7585 119.017 24.9148 118.553 24.9148 118.023C24.9148 117.54 24.7798 117.147 24.5099 116.844C24.2401 116.541 23.8849 116.295 23.4446 116.105C23.0043 115.916 22.5284 115.75 22.017 115.608L20.2273 115.097C19.0909 114.77 18.1913 114.304 17.5284 113.697C16.8655 113.091 16.5341 112.298 16.5341 111.318C16.5341 110.504 16.7543 109.794 17.1946 109.188C17.6397 108.577 18.2363 108.103 18.9844 107.767C19.7372 107.426 20.5777 107.256 21.5057 107.256C22.4432 107.256 23.2765 107.424 24.0057 107.76C24.7348 108.091 25.3125 108.546 25.7386 109.124C26.1695 109.701 26.3968 110.357 26.4205 111.091H24.7159ZM34.0323 111.091V112.511H28.3789V111.091H34.0323ZM30.0266 108.477H31.7028V118.875C31.7028 119.348 31.7714 119.704 31.9087 119.94C32.0508 120.172 32.2307 120.329 32.4485 120.409C32.671 120.485 32.9054 120.523 33.1516 120.523C33.3363 120.523 33.4878 120.513 33.6062 120.494C33.7246 120.471 33.8192 120.452 33.8903 120.438L34.2312 121.943C34.1175 121.986 33.9589 122.028 33.7553 122.071C33.5517 122.118 33.2937 122.142 32.9812 122.142C32.5077 122.142 32.0437 122.04 31.5891 121.837C31.1393 121.633 30.7653 121.323 30.467 120.906C30.1734 120.49 30.0266 119.964 30.0266 119.33V108.477ZM39.7638 122.256C39.0726 122.256 38.4452 122.125 37.8817 121.865C37.3183 121.6 36.8709 121.219 36.5394 120.722C36.208 120.22 36.0423 119.614 36.0423 118.903C36.0423 118.278 36.1654 117.772 36.4116 117.384C36.6578 116.991 36.9869 116.683 37.3988 116.46C37.8107 116.238 38.2653 116.072 38.7624 115.963C39.2643 115.849 39.7686 115.759 40.2752 115.693C40.9381 115.608 41.4755 115.544 41.8874 115.501C42.3041 115.454 42.6071 115.376 42.7965 115.267C42.9906 115.158 43.0877 114.969 43.0877 114.699V114.642C43.0877 113.941 42.896 113.397 42.5124 113.009C42.1336 112.62 41.5584 112.426 40.7866 112.426C39.9864 112.426 39.359 112.601 38.9045 112.952C38.4499 113.302 38.1303 113.676 37.9457 114.074L36.3548 113.506C36.6388 112.843 37.0176 112.327 37.4911 111.957C37.9693 111.583 38.4902 111.323 39.0536 111.176C39.6218 111.025 40.1805 110.949 40.7298 110.949C41.0801 110.949 41.4826 110.991 41.9371 111.077C42.3964 111.157 42.8391 111.325 43.2653 111.581C43.6961 111.837 44.0536 112.223 44.3377 112.739C44.6218 113.255 44.7638 113.946 44.7638 114.812V122H43.0877V120.523H43.0025C42.8888 120.759 42.6995 121.013 42.4343 121.283C42.1692 121.553 41.8164 121.782 41.3761 121.972C40.9357 122.161 40.3983 122.256 39.7638 122.256ZM40.0195 120.75C40.6824 120.75 41.2411 120.62 41.6957 120.359C42.1549 120.099 42.5006 119.763 42.7326 119.351C42.9693 118.939 43.0877 118.506 43.0877 118.051V116.517C43.0167 116.602 42.8604 116.68 42.619 116.751C42.3822 116.818 42.1076 116.877 41.7951 116.929C41.4873 116.976 41.1867 117.019 40.8931 117.057C40.6043 117.09 40.3699 117.118 40.19 117.142C39.7544 117.199 39.3472 117.291 38.9684 117.419C38.5943 117.542 38.2913 117.729 38.0593 117.98C37.832 118.226 37.7184 118.562 37.7184 118.989C37.7184 119.571 37.9338 120.011 38.3647 120.31C38.8003 120.603 39.3519 120.75 40.0195 120.75ZM47.8232 122V111.091H49.4425V112.739H49.5561C49.755 112.199 50.1148 111.761 50.6357 111.425C51.1565 111.089 51.7436 110.92 52.397 110.92C52.5201 110.92 52.674 110.923 52.8587 110.928C53.0433 110.932 53.183 110.939 53.2777 110.949V112.653C53.2209 112.639 53.0907 112.618 52.8871 112.589C52.6882 112.556 52.4775 112.54 52.255 112.54C51.7247 112.54 51.2512 112.651 50.8345 112.874C50.4226 113.091 50.0959 113.394 49.8544 113.783C49.6177 114.166 49.4993 114.604 49.4993 115.097V122H47.8232ZM60.6925 111.091V112.511H55.0391V111.091H60.6925ZM56.6868 108.477H58.3629V118.875C58.3629 119.348 58.4316 119.704 58.5689 119.94C58.7109 120.172 58.8909 120.329 59.1087 120.409C59.3312 120.485 59.5656 120.523 59.8118 120.523C59.9964 120.523 60.148 120.513 60.2663 120.494C60.3847 120.471 60.4794 120.452 60.5504 120.438L60.8913 121.943C60.7777 121.986 60.6191 122.028 60.4155 122.071C60.2119 122.118 59.9538 122.142 59.6413 122.142C59.1679 122.142 58.7038 122.04 58.2493 121.837C57.7995 121.633 57.4254 121.323 57.1271 120.906C56.8336 120.49 56.6868 119.964 56.6868 119.33V108.477ZM70.0888 117.54V111.091H71.7649V122H70.0888V120.153H69.9751C69.7195 120.707 69.3217 121.179 68.782 121.567C68.2422 121.95 67.5604 122.142 66.7365 122.142C66.0547 122.142 65.4486 121.993 64.9183 121.695C64.388 121.392 63.9714 120.937 63.6683 120.331C63.3653 119.72 63.2138 118.951 63.2138 118.023V111.091H64.8899V117.909C64.8899 118.705 65.1125 119.339 65.5575 119.812C66.0073 120.286 66.5803 120.523 67.2763 120.523C67.6929 120.523 68.1167 120.416 68.5476 120.203C68.9832 119.99 69.3478 119.663 69.6413 119.223C69.9396 118.783 70.0888 118.222 70.0888 117.54ZM74.8349 126.091V111.091H76.4542V112.824H76.6531C76.7762 112.634 76.9466 112.393 77.1644 112.099C77.387 111.801 77.7042 111.536 78.1161 111.304C78.5328 111.067 79.0962 110.949 79.8065 110.949C80.725 110.949 81.5347 111.179 82.2354 111.638C82.9362 112.097 83.4831 112.748 83.8761 113.591C84.2691 114.434 84.4656 115.428 84.4656 116.574C84.4656 117.729 84.2691 118.731 83.8761 119.578C83.4831 120.421 82.9386 121.074 82.2425 121.538C81.5465 121.998 80.744 122.227 79.8349 122.227C79.1341 122.227 78.573 122.111 78.1516 121.879C77.7302 121.643 77.4059 121.375 77.1786 121.077C76.9513 120.774 76.7762 120.523 76.6531 120.324H76.511V126.091H74.8349ZM76.4826 116.545C76.4826 117.369 76.6033 118.096 76.8448 118.726C77.0863 119.351 77.439 119.841 77.9031 120.196C78.3671 120.546 78.9353 120.722 79.6076 120.722C80.3084 120.722 80.8931 120.537 81.3619 120.168C81.8353 119.794 82.1905 119.292 82.4272 118.662C82.6687 118.027 82.7894 117.322 82.7894 116.545C82.7894 115.778 82.671 115.087 82.4343 114.472C82.2023 113.851 81.8496 113.361 81.3761 113.001C80.9073 112.637 80.3178 112.455 79.6076 112.455C78.9258 112.455 78.3529 112.627 77.8888 112.973C77.4248 113.314 77.0745 113.792 76.8377 114.408C76.601 115.018 76.4826 115.731 76.4826 116.545ZM94.636 107.455V122H92.8746V107.455H94.636ZM99.6165 115.438V122H97.9403V111.091H99.5597V112.795H99.7017C99.9574 112.241 100.346 111.796 100.866 111.46C101.387 111.119 102.06 110.949 102.884 110.949C103.622 110.949 104.268 111.1 104.822 111.403C105.376 111.702 105.807 112.156 106.115 112.767C106.423 113.373 106.577 114.14 106.577 115.068V122H104.901V115.182C104.901 114.325 104.678 113.657 104.233 113.179C103.788 112.696 103.177 112.455 102.401 112.455C101.866 112.455 101.387 112.571 100.966 112.803C100.549 113.035 100.22 113.373 99.9787 113.818C99.7372 114.263 99.6165 114.803 99.6165 115.438ZM114.384 111.091V112.511H108.73V111.091H114.384ZM110.378 108.477H112.054V118.875C112.054 119.348 112.123 119.704 112.26 119.94C112.402 120.172 112.582 120.329 112.8 120.409C113.023 120.485 113.257 120.523 113.503 120.523C113.688 120.523 113.839 120.513 113.958 120.494C114.076 120.471 114.171 120.452 114.242 120.438L114.583 121.943C114.469 121.986 114.31 122.028 114.107 122.071C113.903 122.118 113.645 122.142 113.333 122.142C112.859 122.142 112.395 122.04 111.941 121.837C111.491 121.633 111.117 121.323 110.819 120.906C110.525 120.49 110.378 119.964 110.378 119.33V108.477ZM121.362 122.227C120.311 122.227 119.404 121.995 118.642 121.531C117.884 121.062 117.299 120.409 116.887 119.571C116.48 118.728 116.277 117.748 116.277 116.631C116.277 115.513 116.48 114.528 116.887 113.676C117.299 112.819 117.872 112.152 118.606 111.673C119.345 111.19 120.207 110.949 121.191 110.949C121.76 110.949 122.321 111.044 122.875 111.233C123.429 111.422 123.933 111.73 124.387 112.156C124.842 112.578 125.204 113.136 125.474 113.832C125.744 114.528 125.879 115.385 125.879 116.403V117.114H117.47V115.665H124.174C124.174 115.049 124.051 114.5 123.805 114.017C123.564 113.534 123.218 113.153 122.768 112.874C122.323 112.594 121.797 112.455 121.191 112.455C120.524 112.455 119.946 112.62 119.458 112.952C118.975 113.278 118.604 113.705 118.343 114.23C118.083 114.756 117.953 115.319 117.953 115.92V116.886C117.953 117.71 118.095 118.409 118.379 118.982C118.668 119.55 119.068 119.983 119.579 120.281C120.091 120.575 120.685 120.722 121.362 120.722C121.802 120.722 122.2 120.66 122.555 120.537C122.915 120.409 123.225 120.22 123.485 119.969C123.746 119.713 123.947 119.396 124.089 119.017L125.708 119.472C125.538 120.021 125.252 120.504 124.849 120.92C124.447 121.332 123.949 121.654 123.358 121.886C122.766 122.114 122.1 122.227 121.362 122.227ZM128.429 122V111.091H130.048V112.739H130.162C130.36 112.199 130.72 111.761 131.241 111.425C131.762 111.089 132.349 110.92 133.002 110.92C133.126 110.92 133.279 110.923 133.464 110.928C133.649 110.932 133.788 110.939 133.883 110.949V112.653C133.826 112.639 133.696 112.618 133.493 112.589C133.294 112.556 133.083 112.54 132.86 112.54C132.33 112.54 131.857 112.651 131.44 112.874C131.028 113.091 130.701 113.394 130.46 113.783C130.223 114.166 130.105 114.604 130.105 115.097V122H128.429ZM140.112 122.227C139.061 122.227 138.154 121.995 137.392 121.531C136.634 121.062 136.049 120.409 135.637 119.571C135.23 118.728 135.027 117.748 135.027 116.631C135.027 115.513 135.23 114.528 135.637 113.676C136.049 112.819 136.622 112.152 137.356 111.673C138.095 111.19 138.957 110.949 139.941 110.949C140.51 110.949 141.071 111.044 141.625 111.233C142.179 111.422 142.683 111.73 143.137 112.156C143.592 112.578 143.954 113.136 144.224 113.832C144.494 114.528 144.629 115.385 144.629 116.403V117.114H136.22V115.665H142.924C142.924 115.049 142.801 114.5 142.555 114.017C142.314 113.534 141.968 113.153 141.518 112.874C141.073 112.594 140.547 112.455 139.941 112.455C139.274 112.455 138.696 112.62 138.208 112.952C137.725 113.278 137.354 113.705 137.093 114.23C136.833 114.756 136.703 115.319 136.703 115.92V116.886C136.703 117.71 136.845 118.409 137.129 118.982C137.418 119.55 137.818 119.983 138.329 120.281C138.841 120.575 139.435 120.722 140.112 120.722C140.552 120.722 140.95 120.66 141.305 120.537C141.665 120.409 141.975 120.22 142.235 119.969C142.496 119.713 142.697 119.396 142.839 119.017L144.458 119.472C144.288 120.021 144.002 120.504 143.599 120.92C143.197 121.332 142.699 121.654 142.108 121.886C141.516 122.114 140.85 122.227 140.112 122.227ZM154.906 113.534L153.4 113.96C153.306 113.709 153.166 113.465 152.981 113.229C152.801 112.987 152.555 112.788 152.243 112.632C151.93 112.476 151.53 112.398 151.042 112.398C150.375 112.398 149.818 112.552 149.373 112.859C148.933 113.162 148.713 113.548 148.713 114.017C148.713 114.434 148.864 114.763 149.167 115.004C149.47 115.246 149.944 115.447 150.588 115.608L152.207 116.006C153.182 116.242 153.909 116.605 154.387 117.092C154.866 117.575 155.105 118.198 155.105 118.96C155.105 119.585 154.925 120.144 154.565 120.636C154.21 121.129 153.713 121.517 153.074 121.801C152.434 122.085 151.691 122.227 150.843 122.227C149.731 122.227 148.81 121.986 148.081 121.503C147.351 121.02 146.89 120.314 146.696 119.386L148.287 118.989C148.438 119.576 148.725 120.016 149.146 120.31C149.572 120.603 150.128 120.75 150.815 120.75C151.596 120.75 152.217 120.584 152.676 120.253C153.14 119.917 153.372 119.514 153.372 119.045C153.372 118.667 153.239 118.349 152.974 118.094C152.709 117.833 152.302 117.639 151.752 117.511L149.934 117.085C148.935 116.848 148.201 116.482 147.733 115.984C147.269 115.482 147.037 114.855 147.037 114.102C147.037 113.487 147.209 112.942 147.555 112.469C147.905 111.995 148.381 111.624 148.983 111.354C149.589 111.084 150.275 110.949 151.042 110.949C152.122 110.949 152.969 111.186 153.585 111.659C154.205 112.133 154.645 112.758 154.906 113.534ZM162.372 111.091V112.511H156.719V111.091H162.372ZM158.366 108.477H160.043V118.875C160.043 119.348 160.111 119.704 160.249 119.94C160.391 120.172 160.571 120.329 160.788 120.409C161.011 120.485 161.245 120.523 161.491 120.523C161.676 120.523 161.828 120.513 161.946 120.494C162.064 120.471 162.159 120.452 162.23 120.438L162.571 121.943C162.457 121.986 162.299 122.028 162.095 122.071C161.892 122.118 161.634 122.142 161.321 122.142C160.848 122.142 160.384 122.04 159.929 121.837C159.479 121.633 159.105 121.323 158.807 120.906C158.513 120.49 158.366 119.964 158.366 119.33V108.477Z" fill="black"/>
<path d="M24.7159 154.091C24.6307 153.371 24.285 152.812 23.679 152.415C23.0729 152.017 22.3295 151.818 21.4489 151.818C20.8049 151.818 20.2415 151.922 19.7585 152.131C19.2803 152.339 18.9063 152.625 18.6364 152.99C18.3712 153.355 18.2386 153.769 18.2386 154.233C18.2386 154.621 18.331 154.955 18.5156 155.234C18.705 155.509 18.9465 155.739 19.2401 155.923C19.5336 156.103 19.8414 156.252 20.1634 156.371C20.4853 156.484 20.7812 156.577 21.0511 156.648L22.5284 157.045C22.9072 157.145 23.3286 157.282 23.7926 157.457C24.2614 157.633 24.7088 157.872 25.1349 158.175C25.5658 158.473 25.9209 158.857 26.2003 159.325C26.4796 159.794 26.6193 160.369 26.6193 161.051C26.6193 161.837 26.4134 162.547 26.0014 163.182C25.5942 163.816 24.9976 164.321 24.2116 164.695C23.4304 165.069 22.4811 165.256 21.3636 165.256C20.322 165.256 19.42 165.088 18.6577 164.751C17.9001 164.415 17.3035 163.946 16.8679 163.345C16.437 162.744 16.1932 162.045 16.1364 161.25H17.9545C18.0019 161.799 18.1866 162.254 18.5085 162.614C18.8352 162.969 19.2472 163.234 19.7443 163.409C20.2462 163.58 20.786 163.665 21.3636 163.665C22.036 163.665 22.6397 163.556 23.1747 163.338C23.7098 163.116 24.1335 162.808 24.446 162.415C24.7585 162.017 24.9148 161.553 24.9148 161.023C24.9148 160.54 24.7798 160.147 24.5099 159.844C24.2401 159.541 23.8849 159.295 23.4446 159.105C23.0043 158.916 22.5284 158.75 22.017 158.608L20.2273 158.097C19.0909 157.77 18.1913 157.304 17.5284 156.697C16.8655 156.091 16.5341 155.298 16.5341 154.318C16.5341 153.504 16.7543 152.794 17.1946 152.188C17.6397 151.577 18.2363 151.103 18.9844 150.767C19.7372 150.426 20.5777 150.256 21.5057 150.256C22.4432 150.256 23.2765 150.424 24.0057 150.76C24.7348 151.091 25.3125 151.546 25.7386 152.124C26.1695 152.701 26.3968 153.357 26.4205 154.091H24.7159ZM34.0323 154.091V155.511H28.3789V154.091H34.0323ZM30.0266 151.477H31.7028V161.875C31.7028 162.348 31.7714 162.704 31.9087 162.94C32.0508 163.172 32.2307 163.329 32.4485 163.409C32.671 163.485 32.9054 163.523 33.1516 163.523C33.3363 163.523 33.4878 163.513 33.6062 163.494C33.7246 163.471 33.8192 163.452 33.8903 163.438L34.2312 164.943C34.1175 164.986 33.9589 165.028 33.7553 165.071C33.5517 165.118 33.2937 165.142 32.9812 165.142C32.5077 165.142 32.0437 165.04 31.5891 164.837C31.1393 164.633 30.7653 164.323 30.467 163.906C30.1734 163.49 30.0266 162.964 30.0266 162.33V151.477ZM39.7638 165.256C39.0726 165.256 38.4452 165.125 37.8817 164.865C37.3183 164.6 36.8709 164.219 36.5394 163.722C36.208 163.22 36.0423 162.614 36.0423 161.903C36.0423 161.278 36.1654 160.772 36.4116 160.384C36.6578 159.991 36.9869 159.683 37.3988 159.46C37.8107 159.238 38.2653 159.072 38.7624 158.963C39.2643 158.849 39.7686 158.759 40.2752 158.693C40.9381 158.608 41.4755 158.544 41.8874 158.501C42.3041 158.454 42.6071 158.376 42.7965 158.267C42.9906 158.158 43.0877 157.969 43.0877 157.699V157.642C43.0877 156.941 42.896 156.397 42.5124 156.009C42.1336 155.62 41.5584 155.426 40.7866 155.426C39.9864 155.426 39.359 155.601 38.9045 155.952C38.4499 156.302 38.1303 156.676 37.9457 157.074L36.3548 156.506C36.6388 155.843 37.0176 155.327 37.4911 154.957C37.9693 154.583 38.4902 154.323 39.0536 154.176C39.6218 154.025 40.1805 153.949 40.7298 153.949C41.0801 153.949 41.4826 153.991 41.9371 154.077C42.3964 154.157 42.8391 154.325 43.2653 154.581C43.6961 154.837 44.0536 155.223 44.3377 155.739C44.6218 156.255 44.7638 156.946 44.7638 157.812V165H43.0877V163.523H43.0025C42.8888 163.759 42.6995 164.013 42.4343 164.283C42.1692 164.553 41.8164 164.782 41.3761 164.972C40.9357 165.161 40.3983 165.256 39.7638 165.256ZM40.0195 163.75C40.6824 163.75 41.2411 163.62 41.6957 163.359C42.1549 163.099 42.5006 162.763 42.7326 162.351C42.9693 161.939 43.0877 161.506 43.0877 161.051V159.517C43.0167 159.602 42.8604 159.68 42.619 159.751C42.3822 159.818 42.1076 159.877 41.7951 159.929C41.4873 159.976 41.1867 160.019 40.8931 160.057C40.6043 160.09 40.3699 160.118 40.19 160.142C39.7544 160.199 39.3472 160.291 38.9684 160.419C38.5943 160.542 38.2913 160.729 38.0593 160.98C37.832 161.226 37.7184 161.562 37.7184 161.989C37.7184 162.571 37.9338 163.011 38.3647 163.31C38.8003 163.603 39.3519 163.75 40.0195 163.75ZM48.0504 165V150.455H49.7266V155.824H49.8686C49.9917 155.634 50.1622 155.393 50.38 155.099C50.6025 154.801 50.9197 154.536 51.3317 154.304C51.7483 154.067 52.3118 153.949 53.022 153.949C53.9406 153.949 54.7502 154.179 55.451 154.638C56.1518 155.097 56.6986 155.748 57.0916 156.591C57.4846 157.434 57.6811 158.428 57.6811 159.574C57.6811 160.729 57.4846 161.731 57.0916 162.578C56.6986 163.421 56.1541 164.074 55.4581 164.538C54.7621 164.998 53.9595 165.227 53.0504 165.227C52.3497 165.227 51.7886 165.111 51.3672 164.879C50.9458 164.643 50.6214 164.375 50.3942 164.077C50.1669 163.774 49.9917 163.523 49.8686 163.324H49.6697V165H48.0504ZM49.6982 159.545C49.6982 160.369 49.8189 161.096 50.0604 161.726C50.3018 162.351 50.6546 162.841 51.1186 163.196C51.5826 163.546 52.1508 163.722 52.8232 163.722C53.5239 163.722 54.1087 163.537 54.5774 163.168C55.0509 162.794 55.406 162.292 55.6428 161.662C55.8842 161.027 56.005 160.322 56.005 159.545C56.005 158.778 55.8866 158.087 55.6499 157.472C55.4179 156.851 55.0651 156.361 54.5916 156.001C54.1229 155.637 53.5334 155.455 52.8232 155.455C52.1413 155.455 51.5684 155.627 51.1044 155.973C50.6404 156.314 50.29 156.792 50.0533 157.408C49.8165 158.018 49.6982 158.731 49.6982 159.545ZM60.245 165V154.091H61.9212V165H60.245ZM61.0973 152.273C60.7706 152.273 60.4889 152.161 60.2521 151.939C60.0201 151.716 59.9041 151.449 59.9041 151.136C59.9041 150.824 60.0201 150.556 60.2521 150.334C60.4889 150.111 60.7706 150 61.0973 150C61.424 150 61.7034 150.111 61.9354 150.334C62.1721 150.556 62.2905 150.824 62.2905 151.136C62.2905 151.449 62.1721 151.716 61.9354 151.939C61.7034 152.161 61.424 152.273 61.0973 152.273ZM66.6673 150.455V165H64.9911V150.455H66.6673ZM69.7372 165V154.091H71.4134V165H69.7372ZM70.5895 152.273C70.2628 152.273 69.9811 152.161 69.7443 151.939C69.5123 151.716 69.3963 151.449 69.3963 151.136C69.3963 150.824 69.5123 150.556 69.7443 150.334C69.9811 150.111 70.2628 150 70.5895 150C70.9162 150 71.1955 150.111 71.4276 150.334C71.6643 150.556 71.7827 150.824 71.7827 151.136C71.7827 151.449 71.6643 151.716 71.4276 151.939C71.1955 152.161 70.9162 152.273 70.5895 152.273ZM79.2276 154.091V155.511H73.5742V154.091H79.2276ZM75.2219 151.477H76.8981V161.875C76.8981 162.348 76.9667 162.704 77.104 162.94C77.2461 163.172 77.426 163.329 77.6438 163.409C77.8664 163.485 78.1007 163.523 78.3469 163.523C78.5316 163.523 78.6831 163.513 78.8015 163.494C78.9199 163.471 79.0146 163.452 79.0856 163.438L79.4265 164.943C79.3129 164.986 79.1542 165.028 78.9506 165.071C78.747 165.118 78.489 165.142 78.1765 165.142C77.703 165.142 77.239 165.04 76.7844 164.837C76.3346 164.633 75.9606 164.323 75.6623 163.906C75.3687 163.49 75.2219 162.964 75.2219 162.33V151.477ZM82.8285 169.091C82.5444 169.091 82.2911 169.067 82.0685 169.02C81.846 168.977 81.6921 168.935 81.6069 168.892L82.033 167.415C82.4402 167.519 82.8001 167.557 83.1126 167.528C83.4251 167.5 83.7021 167.36 83.9435 167.109C84.1897 166.863 84.4147 166.463 84.6183 165.909L84.9308 165.057L80.8967 154.091H82.7148L85.7262 162.784H85.8398L88.8512 154.091H90.6694L86.0387 166.591C85.8304 167.154 85.5723 167.621 85.2646 167.99C84.9568 168.364 84.5993 168.641 84.1921 168.821C83.7897 169.001 83.3351 169.091 82.8285 169.091Z" fill="black"/>
<path d="M16.7614 209V194.455H18.5227V207.438H25.2841V209H16.7614ZM32.2159 209.227C31.2311 209.227 30.367 208.993 29.6236 208.524C28.8849 208.055 28.3073 207.4 27.8906 206.557C27.4787 205.714 27.2727 204.729 27.2727 203.602C27.2727 202.466 27.4787 201.474 27.8906 200.626C28.3073 199.779 28.8849 199.121 29.6236 198.652C30.367 198.183 31.2311 197.949 32.2159 197.949C33.2008 197.949 34.0625 198.183 34.8011 198.652C35.5445 199.121 36.1222 199.779 36.5341 200.626C36.9508 201.474 37.1591 202.466 37.1591 203.602C37.1591 204.729 36.9508 205.714 36.5341 206.557C36.1222 207.4 35.5445 208.055 34.8011 208.524C34.0625 208.993 33.2008 209.227 32.2159 209.227ZM32.2159 207.722C32.964 207.722 33.5795 207.53 34.0625 207.146C34.5455 206.763 34.9029 206.259 35.1349 205.634C35.367 205.009 35.483 204.331 35.483 203.602C35.483 202.873 35.367 202.194 35.1349 201.564C34.9029 200.934 34.5455 200.425 34.0625 200.037C33.5795 199.649 32.964 199.455 32.2159 199.455C31.4678 199.455 30.8523 199.649 30.3693 200.037C29.8864 200.425 29.5289 200.934 29.2969 201.564C29.0649 202.194 28.9489 202.873 28.9489 203.602C28.9489 204.331 29.0649 205.009 29.2969 205.634C29.5289 206.259 29.8864 206.763 30.3693 207.146C30.8523 207.53 31.4678 207.722 32.2159 207.722ZM44.1495 209.227C43.1268 209.227 42.2461 208.986 41.5075 208.503C40.7688 208.02 40.2006 207.355 39.8029 206.507C39.4052 205.66 39.2063 204.691 39.2063 203.602C39.2063 202.494 39.4099 201.517 39.8171 200.669C40.229 199.817 40.802 199.152 41.5359 198.673C42.2745 198.19 43.1362 197.949 44.1211 197.949C44.8881 197.949 45.5794 198.091 46.195 198.375C46.8105 198.659 47.3147 199.057 47.7077 199.568C48.1007 200.08 48.3446 200.676 48.4393 201.358H46.7631C46.6353 200.861 46.3512 200.42 45.9109 200.037C45.4753 199.649 44.8881 199.455 44.1495 199.455C43.4961 199.455 42.9232 199.625 42.4308 199.966C41.9431 200.302 41.5619 200.778 41.2873 201.393C41.0174 202.004 40.8825 202.722 40.8825 203.545C40.8825 204.388 41.015 205.122 41.2802 205.747C41.5501 206.372 41.9289 206.857 42.4165 207.203C42.909 207.549 43.4866 207.722 44.1495 207.722C44.5851 207.722 44.9805 207.646 45.3356 207.494C45.6907 207.343 45.9914 207.125 46.2376 206.841C46.4838 206.557 46.659 206.216 46.7631 205.818H48.4393C48.3446 206.462 48.1102 207.042 47.7362 207.558C47.3668 208.07 46.8768 208.477 46.266 208.78C45.6599 209.078 44.9544 209.227 44.1495 209.227ZM54.0998 209.256C53.4085 209.256 52.7811 209.125 52.2177 208.865C51.6542 208.6 51.2068 208.219 50.8754 207.722C50.5439 207.22 50.3782 206.614 50.3782 205.903C50.3782 205.278 50.5013 204.772 50.7475 204.384C50.9937 203.991 51.3228 203.683 51.7347 203.46C52.1467 203.238 52.6012 203.072 53.0984 202.963C53.6003 202.849 54.1045 202.759 54.6112 202.693C55.274 202.608 55.8114 202.544 56.2234 202.501C56.64 202.454 56.9431 202.376 57.1325 202.267C57.3266 202.158 57.4237 201.969 57.4237 201.699V201.642C57.4237 200.941 57.2319 200.397 56.8484 200.009C56.4696 199.62 55.8943 199.426 55.1225 199.426C54.3223 199.426 53.695 199.601 53.2404 199.952C52.7859 200.302 52.4663 200.676 52.2816 201.074L50.6907 200.506C50.9748 199.843 51.3536 199.327 51.8271 198.957C52.3053 198.583 52.8261 198.323 53.3896 198.176C53.9577 198.025 54.5165 197.949 55.0657 197.949C55.4161 197.949 55.8185 197.991 56.2731 198.077C56.7324 198.157 57.1751 198.325 57.6012 198.581C58.0321 198.837 58.3896 199.223 58.6737 199.739C58.9577 200.255 59.0998 200.946 59.0998 201.812V209H57.4237V207.523H57.3384C57.2248 207.759 57.0354 208.013 56.7702 208.283C56.5051 208.553 56.1523 208.782 55.712 208.972C55.2717 209.161 54.7343 209.256 54.0998 209.256ZM54.3555 207.75C55.0183 207.75 55.5771 207.62 56.0316 207.359C56.4909 207.099 56.8365 206.763 57.0685 206.351C57.3053 205.939 57.4237 205.506 57.4237 205.051V203.517C57.3526 203.602 57.1964 203.68 56.9549 203.751C56.7182 203.818 56.4435 203.877 56.131 203.929C55.8233 203.976 55.5226 204.019 55.229 204.057C54.9402 204.09 54.7058 204.118 54.5259 204.142C54.0903 204.199 53.6831 204.291 53.3043 204.419C52.9303 204.542 52.6272 204.729 52.3952 204.98C52.168 205.226 52.0543 205.562 52.0543 205.989C52.0543 206.571 52.2698 207.011 52.7006 207.31C53.1362 207.603 53.6879 207.75 54.3555 207.75ZM66.9034 198.091V199.511H61.25V198.091H66.9034ZM62.8977 195.477H64.5739V205.875C64.5739 206.348 64.6425 206.704 64.7798 206.94C64.9219 207.172 65.1018 207.329 65.3196 207.409C65.5421 207.485 65.7765 207.523 66.0227 207.523C66.2074 207.523 66.3589 207.513 66.4773 207.494C66.5956 207.471 66.6903 207.452 66.7614 207.438L67.1023 208.943C66.9886 208.986 66.83 209.028 66.6264 209.071C66.4228 209.118 66.1648 209.142 65.8523 209.142C65.3788 209.142 64.9148 209.04 64.4602 208.837C64.0104 208.633 63.6364 208.323 63.3381 207.906C63.0445 207.49 62.8977 206.964 62.8977 206.33V195.477ZM69.4247 209V198.091H71.1009V209H69.4247ZM70.277 196.273C69.9503 196.273 69.6686 196.161 69.4318 195.939C69.1998 195.716 69.0838 195.449 69.0838 195.136C69.0838 194.824 69.1998 194.556 69.4318 194.334C69.6686 194.111 69.9503 194 70.277 194C70.6037 194 70.883 194.111 71.1151 194.334C71.3518 194.556 71.4702 194.824 71.4702 195.136C71.4702 195.449 71.3518 195.716 71.1151 195.939C70.883 196.161 70.6037 196.273 70.277 196.273ZM78.6026 209.227C77.6178 209.227 76.7537 208.993 76.0103 208.524C75.2717 208.055 74.694 207.4 74.2773 206.557C73.8654 205.714 73.6594 204.729 73.6594 203.602C73.6594 202.466 73.8654 201.474 74.2773 200.626C74.694 199.779 75.2717 199.121 76.0103 198.652C76.7537 198.183 77.6178 197.949 78.6026 197.949C79.5875 197.949 80.4492 198.183 81.1879 198.652C81.9312 199.121 82.5089 199.779 82.9208 200.626C83.3375 201.474 83.5458 202.466 83.5458 203.602C83.5458 204.729 83.3375 205.714 82.9208 206.557C82.5089 207.4 81.9312 208.055 81.1879 208.524C80.4492 208.993 79.5875 209.227 78.6026 209.227ZM78.6026 207.722C79.3507 207.722 79.9663 207.53 80.4492 207.146C80.9322 206.763 81.2897 206.259 81.5217 205.634C81.7537 205.009 81.8697 204.331 81.8697 203.602C81.8697 202.873 81.7537 202.194 81.5217 201.564C81.2897 200.934 80.9322 200.425 80.4492 200.037C79.9663 199.649 79.3507 199.455 78.6026 199.455C77.8545 199.455 77.239 199.649 76.756 200.037C76.2731 200.425 75.9156 200.934 75.6836 201.564C75.4516 202.194 75.3356 202.873 75.3356 203.602C75.3356 204.331 75.4516 205.009 75.6836 205.634C75.9156 206.259 76.2731 206.763 76.756 207.146C77.239 207.53 77.8545 207.722 78.6026 207.722ZM87.7805 202.438V209H86.1044V198.091H87.7237V199.795H87.8658C88.1214 199.241 88.5097 198.796 89.0305 198.46C89.5514 198.119 90.2237 197.949 91.0476 197.949C91.7862 197.949 92.4325 198.1 92.9865 198.403C93.5405 198.702 93.9714 199.156 94.2791 199.767C94.5869 200.373 94.7408 201.14 94.7408 202.068V209H93.0646V202.182C93.0646 201.325 92.8421 200.657 92.397 200.179C91.9519 199.696 91.3411 199.455 90.5646 199.455C90.0296 199.455 89.5514 199.571 89.13 199.803C88.7133 200.035 88.3842 200.373 88.1428 200.818C87.9013 201.263 87.7805 201.803 87.7805 202.438ZM103.656 209V194.455H112.377V196.017H105.417V200.932H111.724V202.494H105.417V209H103.656ZM115.05 209V198.091H116.669V199.739H116.783C116.982 199.199 117.341 198.761 117.862 198.425C118.383 198.089 118.97 197.92 119.624 197.92C119.747 197.92 119.901 197.923 120.085 197.928C120.27 197.932 120.41 197.939 120.504 197.949V199.653C120.447 199.639 120.317 199.618 120.114 199.589C119.915 199.556 119.704 199.54 119.482 199.54C118.951 199.54 118.478 199.651 118.061 199.874C117.649 200.091 117.322 200.394 117.081 200.783C116.844 201.166 116.726 201.604 116.726 202.097V209H115.05ZM126.733 209.227C125.682 209.227 124.775 208.995 124.013 208.531C123.255 208.062 122.67 207.409 122.259 206.571C121.851 205.728 121.648 204.748 121.648 203.631C121.648 202.513 121.851 201.528 122.259 200.676C122.67 199.819 123.243 199.152 123.977 198.673C124.716 198.19 125.578 197.949 126.562 197.949C127.131 197.949 127.692 198.044 128.246 198.233C128.8 198.422 129.304 198.73 129.759 199.156C130.213 199.578 130.575 200.136 130.845 200.832C131.115 201.528 131.25 202.385 131.25 203.403V204.114H122.841V202.665H129.545C129.545 202.049 129.422 201.5 129.176 201.017C128.935 200.534 128.589 200.153 128.139 199.874C127.694 199.594 127.169 199.455 126.562 199.455C125.895 199.455 125.317 199.62 124.83 199.952C124.347 200.278 123.975 200.705 123.714 201.23C123.454 201.756 123.324 202.319 123.324 202.92V203.886C123.324 204.71 123.466 205.409 123.75 205.982C124.039 206.55 124.439 206.983 124.95 207.281C125.462 207.575 126.056 207.722 126.733 207.722C127.173 207.722 127.571 207.66 127.926 207.537C128.286 207.409 128.596 207.22 128.857 206.969C129.117 206.713 129.318 206.396 129.46 206.017L131.08 206.472C130.909 207.021 130.623 207.504 130.22 207.92C129.818 208.332 129.321 208.654 128.729 208.886C128.137 209.114 127.472 209.227 126.733 209.227ZM138.374 209.227C137.322 209.227 136.416 208.995 135.653 208.531C134.896 208.062 134.311 207.409 133.899 206.571C133.492 205.728 133.288 204.748 133.288 203.631C133.288 202.513 133.492 201.528 133.899 200.676C134.311 199.819 134.884 199.152 135.618 198.673C136.357 198.19 137.218 197.949 138.203 197.949C138.771 197.949 139.332 198.044 139.886 198.233C140.44 198.422 140.945 198.73 141.399 199.156C141.854 199.578 142.216 200.136 142.486 200.832C142.756 201.528 142.891 202.385 142.891 203.403V204.114H134.482V202.665H141.186C141.186 202.049 141.063 201.5 140.817 201.017C140.575 200.534 140.23 200.153 139.78 199.874C139.335 199.594 138.809 199.455 138.203 199.455C137.536 199.455 136.958 199.62 136.47 199.952C135.987 200.278 135.616 200.705 135.355 201.23C135.095 201.756 134.964 202.319 134.964 202.92V203.886C134.964 204.71 135.107 205.409 135.391 205.982C135.679 206.55 136.08 206.983 136.591 207.281C137.102 207.575 137.696 207.722 138.374 207.722C138.814 207.722 139.212 207.66 139.567 207.537C139.927 207.409 140.237 207.22 140.497 206.969C140.758 206.713 140.959 206.396 141.101 206.017L142.72 206.472C142.55 207.021 142.263 207.504 141.861 207.92C141.458 208.332 140.961 208.654 140.369 208.886C139.777 209.114 139.112 209.227 138.374 209.227ZM149.56 209.227C148.651 209.227 147.848 208.998 147.152 208.538C146.456 208.074 145.911 207.421 145.518 206.578C145.125 205.731 144.929 204.729 144.929 203.574C144.929 202.428 145.125 201.434 145.518 200.591C145.911 199.748 146.458 199.097 147.159 198.638C147.86 198.179 148.67 197.949 149.588 197.949C150.298 197.949 150.859 198.067 151.271 198.304C151.688 198.536 152.005 198.801 152.223 199.099C152.446 199.393 152.618 199.634 152.741 199.824H152.884V194.455H154.56V209H152.94V207.324H152.741C152.618 207.523 152.443 207.774 152.216 208.077C151.989 208.375 151.664 208.643 151.243 208.879C150.821 209.111 150.26 209.227 149.56 209.227ZM149.787 207.722C150.459 207.722 151.027 207.546 151.491 207.196C151.955 206.841 152.308 206.351 152.55 205.726C152.791 205.096 152.912 204.369 152.912 203.545C152.912 202.731 152.794 202.018 152.557 201.408C152.32 200.792 151.97 200.314 151.506 199.973C151.042 199.627 150.469 199.455 149.787 199.455C149.077 199.455 148.485 199.637 148.011 200.001C147.543 200.361 147.19 200.851 146.953 201.472C146.721 202.087 146.605 202.778 146.605 203.545C146.605 204.322 146.723 205.027 146.96 205.662C147.202 206.292 147.557 206.794 148.026 207.168C148.499 207.537 149.086 207.722 149.787 207.722ZM162.294 209.227C161.309 209.227 160.445 208.993 159.702 208.524C158.963 208.055 158.385 207.4 157.969 206.557C157.557 205.714 157.351 204.729 157.351 203.602C157.351 202.466 157.557 201.474 157.969 200.626C158.385 199.779 158.963 199.121 159.702 198.652C160.445 198.183 161.309 197.949 162.294 197.949C163.279 197.949 164.141 198.183 164.879 198.652C165.623 199.121 166.2 199.779 166.612 200.626C167.029 201.474 167.237 202.466 167.237 203.602C167.237 204.729 167.029 205.714 166.612 206.557C166.2 207.4 165.623 208.055 164.879 208.524C164.141 208.993 163.279 209.227 162.294 209.227ZM162.294 207.722C163.042 207.722 163.658 207.53 164.141 207.146C164.624 206.763 164.981 206.259 165.213 205.634C165.445 205.009 165.561 204.331 165.561 203.602C165.561 202.873 165.445 202.194 165.213 201.564C164.981 200.934 164.624 200.425 164.141 200.037C163.658 199.649 163.042 199.455 162.294 199.455C161.546 199.455 160.93 199.649 160.447 200.037C159.964 200.425 159.607 200.934 159.375 201.564C159.143 202.194 159.027 202.873 159.027 203.602C159.027 204.331 159.143 205.009 159.375 205.634C159.607 206.259 159.964 206.763 160.447 207.146C160.93 207.53 161.546 207.722 162.294 207.722ZM169.796 209V198.091H171.415V199.795H171.557C171.784 199.213 172.151 198.761 172.658 198.439C173.165 198.112 173.773 197.949 174.483 197.949C175.203 197.949 175.802 198.112 176.28 198.439C176.763 198.761 177.14 199.213 177.409 199.795H177.523C177.802 199.232 178.221 198.785 178.78 198.453C179.339 198.117 180.009 197.949 180.79 197.949C181.766 197.949 182.563 198.254 183.184 198.865C183.804 199.471 184.114 200.416 184.114 201.699V209H182.438V201.699C182.438 200.894 182.218 200.319 181.777 199.973C181.337 199.627 180.819 199.455 180.222 199.455C179.455 199.455 178.861 199.687 178.439 200.151C178.018 200.61 177.807 201.192 177.807 201.898V209H176.103V201.528C176.103 200.908 175.901 200.409 175.499 200.03C175.096 199.646 174.578 199.455 173.944 199.455C173.508 199.455 173.101 199.571 172.722 199.803C172.348 200.035 172.045 200.357 171.813 200.768C171.586 201.176 171.472 201.647 171.472 202.182V209H169.796Z" fill="black"/>
<line y1="46.9" x2="563" y2="46.9" stroke="#A1A1A1" stroke-width="0.2"/>
<line y1="90.9" x2="563" y2="90.9" stroke="#A1A1A1" stroke-width="0.2"/>
<line y1="133.9" x2="563" y2="133.9" stroke="#A1A1A1" stroke-width="0.2"/>
<line y1="177.9" x2="563" y2="177.9" stroke="#A1A1A1" stroke-width="0.2"/>
<line y1="177.9" x2="563" y2="177.9" stroke="#A1A1A1" stroke-width="0.2"/>
</g>
<defs>
<clipPath id="clip0_43_882">
<rect width="563" height="225" rx="19" fill="white"/>
</clipPath>
</defs>
</svg>
