<svg width="1440" height="1024" viewBox="0 0 1440 1024" fill="none" xmlns="http://www.w3.org/2000/svg">
<g clip-path="url(#clip0_43_818)">
<rect width="1440" height="1024" fill="#253039"/>
<rect x="369" y="248" width="703" height="527" rx="30" fill="url(#paint0_linear_43_818)"/>
<g filter="url(#filter0_d_43_818)">
<path d="M1042 248C1058.57 248 1072 261.431 1072 278V333H369V278C369 261.431 382.431 248 399 248H1042Z" fill="#E9E6FF"/>
</g>
<g filter="url(#filter1_d_43_818)">
<rect x="590" y="611" width="259" height="69" rx="4" fill="#FFA7CF"/>
</g>
<path d="M679.489 288.364C679.335 287.068 678.713 286.062 677.622 285.347C676.531 284.631 675.193 284.273 673.608 284.273C672.449 284.273 671.435 284.46 670.565 284.835C669.705 285.21 669.031 285.726 668.545 286.382C668.068 287.038 667.83 287.784 667.83 288.619C667.83 289.318 667.996 289.919 668.328 290.422C668.669 290.916 669.104 291.33 669.632 291.662C670.161 291.986 670.714 292.254 671.294 292.467C671.874 292.672 672.406 292.838 672.892 292.966L675.551 293.682C676.233 293.861 676.991 294.108 677.827 294.423C678.67 294.739 679.476 295.169 680.243 295.714C681.018 296.251 681.658 296.942 682.161 297.786C682.663 298.629 682.915 299.665 682.915 300.892C682.915 302.307 682.544 303.585 681.803 304.727C681.07 305.869 679.996 306.777 678.581 307.45C677.175 308.124 675.466 308.46 673.455 308.46C671.58 308.46 669.956 308.158 668.584 307.553C667.22 306.947 666.146 306.104 665.362 305.021C664.587 303.939 664.148 302.682 664.045 301.25H667.318C667.403 302.239 667.736 303.057 668.315 303.705C668.903 304.344 669.645 304.821 670.54 305.136C671.443 305.443 672.415 305.597 673.455 305.597C674.665 305.597 675.751 305.401 676.714 305.009C677.678 304.608 678.44 304.054 679.003 303.347C679.565 302.631 679.847 301.795 679.847 300.841C679.847 299.972 679.604 299.264 679.118 298.719C678.632 298.173 677.993 297.73 677.2 297.389C676.408 297.048 675.551 296.75 674.631 296.494L671.409 295.574C669.364 294.986 667.744 294.146 666.551 293.055C665.358 291.964 664.761 290.537 664.761 288.773C664.761 287.307 665.158 286.028 665.95 284.938C666.751 283.838 667.825 282.986 669.172 282.381C670.527 281.767 672.04 281.46 673.71 281.46C675.398 281.46 676.898 281.763 678.21 282.368C679.523 282.964 680.563 283.783 681.33 284.822C682.105 285.862 682.514 287.043 682.557 288.364H679.489ZM687.718 308V288.364H690.735V308H687.718ZM689.252 285.091C688.664 285.091 688.157 284.891 687.731 284.49C687.314 284.089 687.105 283.608 687.105 283.045C687.105 282.483 687.314 282.001 687.731 281.601C688.157 281.2 688.664 281 689.252 281C689.841 281 690.343 281.2 690.761 281.601C691.187 282.001 691.4 282.483 691.4 283.045C691.4 283.608 691.187 284.089 690.761 284.49C690.343 284.891 689.841 285.091 689.252 285.091ZM704.188 315.773C702.73 315.773 701.477 315.585 700.429 315.21C699.381 314.844 698.507 314.358 697.808 313.753C697.118 313.156 696.568 312.517 696.159 311.835L698.562 310.148C698.835 310.506 699.18 310.915 699.598 311.375C700.016 311.844 700.587 312.249 701.311 312.589C702.044 312.939 703.003 313.114 704.188 313.114C705.773 313.114 707.081 312.73 708.112 311.963C709.143 311.196 709.659 309.994 709.659 308.358V304.369H709.403C709.182 304.727 708.866 305.17 708.457 305.699C708.057 306.219 707.477 306.683 706.719 307.092C705.969 307.493 704.955 307.693 703.676 307.693C702.091 307.693 700.668 307.318 699.406 306.568C698.153 305.818 697.161 304.727 696.428 303.295C695.703 301.864 695.341 300.125 695.341 298.08C695.341 296.068 695.695 294.317 696.402 292.825C697.109 291.325 698.094 290.166 699.355 289.348C700.616 288.521 702.074 288.108 703.727 288.108C705.006 288.108 706.02 288.321 706.77 288.747C707.528 289.165 708.108 289.642 708.509 290.179C708.918 290.707 709.233 291.142 709.455 291.483H709.761V288.364H712.676V308.562C712.676 310.25 712.293 311.622 711.526 312.679C710.767 313.744 709.744 314.524 708.457 315.018C707.179 315.521 705.756 315.773 704.188 315.773ZM704.085 304.983C705.295 304.983 706.318 304.706 707.153 304.152C707.989 303.598 708.624 302.801 709.058 301.761C709.493 300.722 709.71 299.477 709.71 298.028C709.71 296.614 709.497 295.365 709.071 294.283C708.645 293.2 708.014 292.352 707.179 291.739C706.344 291.125 705.313 290.818 704.085 290.818C702.807 290.818 701.741 291.142 700.889 291.79C700.045 292.437 699.411 293.307 698.984 294.398C698.567 295.489 698.358 296.699 698.358 298.028C698.358 299.392 698.571 300.598 698.997 301.646C699.432 302.686 700.071 303.504 700.915 304.101C701.767 304.689 702.824 304.983 704.085 304.983ZM721.216 296.188V308H718.199V288.364H721.114V291.432H721.369C721.83 290.435 722.528 289.634 723.466 289.028C724.403 288.415 725.614 288.108 727.097 288.108C728.426 288.108 729.589 288.381 730.587 288.926C731.584 289.463 732.359 290.281 732.913 291.381C733.467 292.472 733.744 293.852 733.744 295.523V308H730.727V295.727C730.727 294.185 730.327 292.983 729.526 292.122C728.724 291.253 727.625 290.818 726.227 290.818C725.264 290.818 724.403 291.027 723.645 291.445C722.895 291.862 722.303 292.472 721.868 293.273C721.433 294.074 721.216 295.045 721.216 296.188ZM752.962 281.818V308H749.792V281.818H752.962ZM761.927 296.188V308H758.91V288.364H761.825V291.432H762.08C762.54 290.435 763.239 289.634 764.177 289.028C765.114 288.415 766.325 288.108 767.808 288.108C769.137 288.108 770.3 288.381 771.298 288.926C772.295 289.463 773.07 290.281 773.624 291.381C774.178 292.472 774.455 293.852 774.455 295.523V308H771.438V295.727C771.438 294.185 771.038 292.983 770.237 292.122C769.435 291.253 768.336 290.818 766.938 290.818C765.975 290.818 765.114 291.027 764.356 291.445C763.606 291.862 763.013 292.472 762.579 293.273C762.144 294.074 761.927 295.045 761.927 296.188Z" fill="black"/>
<path d="M687.438 641.131C687.347 640.324 686.972 639.699 686.312 639.256C685.653 638.807 684.824 638.582 683.824 638.582C683.108 638.582 682.489 638.696 681.966 638.923C681.443 639.145 681.037 639.452 680.747 639.844C680.463 640.23 680.321 640.67 680.321 641.165C680.321 641.58 680.418 641.937 680.611 642.239C680.81 642.54 681.068 642.793 681.386 642.997C681.71 643.196 682.057 643.364 682.426 643.5C682.795 643.631 683.151 643.739 683.491 643.824L685.196 644.267C685.753 644.403 686.324 644.588 686.909 644.821C687.494 645.054 688.037 645.361 688.537 645.741C689.037 646.122 689.44 646.594 689.747 647.156C690.06 647.719 690.216 648.392 690.216 649.176C690.216 650.165 689.96 651.043 689.449 651.81C688.943 652.577 688.207 653.182 687.241 653.625C686.281 654.068 685.119 654.29 683.756 654.29C682.449 654.29 681.318 654.082 680.364 653.668C679.409 653.253 678.662 652.665 678.122 651.903C677.582 651.136 677.284 650.227 677.227 649.176H679.869C679.92 649.807 680.125 650.332 680.483 650.753C680.847 651.168 681.31 651.477 681.872 651.682C682.44 651.881 683.062 651.98 683.739 651.98C684.483 651.98 685.145 651.864 685.724 651.631C686.31 651.392 686.77 651.062 687.105 650.642C687.44 650.216 687.608 649.719 687.608 649.151C687.608 648.634 687.46 648.21 687.165 647.881C686.875 647.551 686.48 647.278 685.98 647.062C685.486 646.847 684.926 646.656 684.301 646.491L682.239 645.929C680.841 645.548 679.733 644.989 678.915 644.25C678.102 643.511 677.696 642.534 677.696 641.318C677.696 640.312 677.969 639.435 678.514 638.685C679.06 637.935 679.798 637.352 680.73 636.938C681.662 636.517 682.713 636.307 683.884 636.307C685.065 636.307 686.108 636.514 687.011 636.929C687.92 637.344 688.636 637.915 689.159 638.642C689.682 639.364 689.955 640.193 689.977 641.131H687.438ZM695.996 636.545V654H693.363V636.545H695.996ZM711.644 642.06C711.479 641.543 711.258 641.08 710.979 640.67C710.707 640.256 710.38 639.903 709.999 639.614C709.619 639.318 709.184 639.094 708.695 638.94C708.212 638.787 707.681 638.71 707.102 638.71C706.119 638.71 705.232 638.963 704.442 639.469C703.653 639.974 703.028 640.716 702.567 641.693C702.113 642.665 701.886 643.855 701.886 645.264C701.886 646.679 702.116 647.875 702.576 648.852C703.036 649.83 703.667 650.571 704.468 651.077C705.269 651.582 706.181 651.835 707.204 651.835C708.153 651.835 708.979 651.642 709.684 651.256C710.394 650.869 710.942 650.324 711.329 649.619C711.721 648.909 711.917 648.074 711.917 647.114L712.599 647.241H707.604V645.068H714.465V647.054C714.465 648.52 714.153 649.793 713.528 650.872C712.908 651.946 712.05 652.776 710.954 653.361C709.863 653.946 708.613 654.239 707.204 654.239C705.624 654.239 704.238 653.875 703.045 653.148C701.857 652.42 700.931 651.389 700.266 650.054C699.602 648.713 699.269 647.122 699.269 645.281C699.269 643.889 699.462 642.639 699.849 641.531C700.235 640.423 700.778 639.483 701.477 638.71C702.181 637.932 703.008 637.338 703.957 636.929C704.911 636.514 705.954 636.307 707.085 636.307C708.028 636.307 708.906 636.446 709.718 636.724C710.536 637.003 711.263 637.398 711.9 637.909C712.542 638.42 713.073 639.028 713.494 639.733C713.914 640.432 714.198 641.207 714.346 642.06H711.644ZM731.896 636.545V654H729.476L720.604 641.199H720.442V654H717.808V636.545H720.246L729.126 649.364H729.288V636.545H731.896ZM744.723 636.545V654H742.089V636.545H744.723ZM762.646 636.545V654H760.226L751.354 641.199H751.192V654H748.558V636.545H750.996L759.876 649.364H760.038V636.545H762.646Z" fill="black"/>
<path d="M445.114 425V407.545H455.648V409.42H447.227V415.318H455.102V417.193H447.227V423.125H455.784V425H445.114ZM459.185 425V411.909H461.128V413.955H461.298C461.571 413.256 462.011 412.713 462.619 412.327C463.227 411.935 463.957 411.739 464.81 411.739C465.673 411.739 466.392 411.935 466.966 412.327C467.545 412.713 467.997 413.256 468.321 413.955H468.457C468.793 413.278 469.295 412.741 469.966 412.344C470.636 411.94 471.44 411.739 472.378 411.739C473.548 411.739 474.506 412.105 475.25 412.838C475.994 413.565 476.366 414.699 476.366 416.239V425H474.355V416.239C474.355 415.273 474.091 414.582 473.562 414.168C473.034 413.753 472.412 413.545 471.696 413.545C470.776 413.545 470.063 413.824 469.557 414.381C469.051 414.932 468.798 415.631 468.798 416.477V425H466.753V416.034C466.753 415.29 466.511 414.69 466.028 414.236C465.545 413.776 464.923 413.545 464.162 413.545C463.639 413.545 463.151 413.685 462.696 413.963C462.247 414.241 461.884 414.628 461.605 415.122C461.332 415.611 461.196 416.176 461.196 416.818V425H459.185ZM483.896 425.307C483.067 425.307 482.314 425.151 481.638 424.838C480.962 424.52 480.425 424.062 480.027 423.466C479.629 422.864 479.43 422.136 479.43 421.284C479.43 420.534 479.578 419.926 479.874 419.46C480.169 418.989 480.564 418.619 481.058 418.352C481.553 418.085 482.098 417.886 482.695 417.756C483.297 417.619 483.902 417.511 484.51 417.432C485.305 417.33 485.95 417.253 486.445 417.202C486.945 417.145 487.308 417.051 487.536 416.92C487.768 416.79 487.885 416.562 487.885 416.239V416.17C487.885 415.33 487.655 414.676 487.195 414.21C486.74 413.744 486.05 413.511 485.124 413.511C484.163 413.511 483.411 413.722 482.865 414.142C482.32 414.562 481.936 415.011 481.714 415.489L479.805 414.807C480.146 414.011 480.601 413.392 481.169 412.949C481.743 412.5 482.368 412.187 483.044 412.011C483.726 411.83 484.396 411.739 485.055 411.739C485.476 411.739 485.959 411.79 486.504 411.892C487.055 411.989 487.587 412.19 488.098 412.497C488.615 412.804 489.044 413.267 489.385 413.886C489.726 414.506 489.896 415.335 489.896 416.375V425H487.885V423.227H487.783C487.646 423.511 487.419 423.815 487.101 424.139C486.783 424.463 486.359 424.739 485.831 424.966C485.303 425.193 484.658 425.307 483.896 425.307ZM484.203 423.5C484.999 423.5 485.669 423.344 486.214 423.031C486.766 422.719 487.18 422.315 487.459 421.821C487.743 421.327 487.885 420.807 487.885 420.261V418.42C487.8 418.523 487.612 418.616 487.322 418.702C487.038 418.781 486.709 418.852 486.334 418.915C485.964 418.972 485.604 419.023 485.251 419.068C484.905 419.108 484.624 419.142 484.408 419.17C483.885 419.239 483.396 419.349 482.942 419.503C482.493 419.651 482.129 419.875 481.851 420.176C481.578 420.472 481.442 420.875 481.442 421.386C481.442 422.085 481.7 422.614 482.217 422.972C482.74 423.324 483.402 423.5 484.203 423.5ZM493.567 425V411.909H495.579V425H493.567ZM494.59 409.727C494.198 409.727 493.86 409.594 493.576 409.327C493.298 409.06 493.158 408.739 493.158 408.364C493.158 407.989 493.298 407.668 493.576 407.401C493.86 407.134 494.198 407 494.59 407C494.982 407 495.317 407.134 495.596 407.401C495.88 407.668 496.022 407.989 496.022 408.364C496.022 408.739 495.88 409.06 495.596 409.327C495.317 409.594 494.982 409.727 494.59 409.727ZM501.274 407.545V425H499.263V407.545H501.274Z" fill="#95A9B8"/>
<path d="M648.61 711H646.849C646.745 710.493 646.563 710.048 646.302 709.665C646.047 709.281 645.734 708.959 645.365 708.699C645 708.434 644.595 708.235 644.15 708.102C643.705 707.97 643.241 707.903 642.758 707.903C641.877 707.903 641.08 708.126 640.365 708.571C639.654 709.016 639.089 709.672 638.667 710.538C638.251 711.405 638.042 712.468 638.042 713.727C638.042 714.987 638.251 716.05 638.667 716.916C639.089 717.783 639.654 718.438 640.365 718.884C641.08 719.329 641.877 719.551 642.758 719.551C643.241 719.551 643.705 719.485 644.15 719.352C644.595 719.22 645 719.023 645.365 718.763C645.734 718.498 646.047 718.173 646.302 717.79C646.563 717.402 646.745 716.956 646.849 716.455H648.61C648.478 717.198 648.236 717.863 647.886 718.45C647.536 719.037 647.1 719.537 646.579 719.949C646.058 720.356 645.474 720.666 644.825 720.879C644.181 721.092 643.492 721.199 642.758 721.199C641.518 721.199 640.414 720.896 639.449 720.29C638.483 719.684 637.723 718.822 637.169 717.705C636.615 716.587 636.338 715.261 636.338 713.727C636.338 712.193 636.615 710.867 637.169 709.75C637.723 708.633 638.483 707.771 639.449 707.165C640.414 706.559 641.518 706.256 642.758 706.256C643.492 706.256 644.181 706.362 644.825 706.575C645.474 706.788 646.058 707.101 646.579 707.513C647.1 707.92 647.536 708.417 647.886 709.004C648.236 709.587 648.478 710.252 648.61 711ZM651.229 721V710.091H652.849V711.739H652.962C653.161 711.199 653.521 710.761 654.042 710.425C654.563 710.089 655.15 709.92 655.803 709.92C655.926 709.92 656.08 709.923 656.265 709.928C656.45 709.932 656.589 709.939 656.684 709.949V711.653C656.627 711.639 656.497 711.618 656.293 711.589C656.094 711.556 655.884 711.54 655.661 711.54C655.131 711.54 654.657 711.651 654.241 711.874C653.829 712.091 653.502 712.394 653.261 712.783C653.024 713.166 652.906 713.604 652.906 714.097V721H651.229ZM662.913 721.227C661.862 721.227 660.955 720.995 660.192 720.531C659.435 720.062 658.85 719.409 658.438 718.571C658.031 717.728 657.827 716.748 657.827 715.631C657.827 714.513 658.031 713.528 658.438 712.676C658.85 711.819 659.423 711.152 660.157 710.673C660.896 710.19 661.757 709.949 662.742 709.949C663.31 709.949 663.871 710.044 664.425 710.233C664.979 710.422 665.484 710.73 665.938 711.156C666.393 711.578 666.755 712.136 667.025 712.832C667.295 713.528 667.43 714.385 667.43 715.403V716.114H659.021V714.665H665.725C665.725 714.049 665.602 713.5 665.356 713.017C665.114 712.534 664.769 712.153 664.319 711.874C663.874 711.594 663.348 711.455 662.742 711.455C662.075 711.455 661.497 711.62 661.009 711.952C660.526 712.278 660.155 712.705 659.894 713.23C659.634 713.756 659.504 714.319 659.504 714.92V715.886C659.504 716.71 659.646 717.409 659.93 717.982C660.219 718.55 660.619 718.983 661.13 719.281C661.641 719.575 662.236 719.722 662.913 719.722C663.353 719.722 663.751 719.66 664.106 719.537C664.466 719.409 664.776 719.22 665.036 718.969C665.297 718.713 665.498 718.396 665.64 718.017L667.259 718.472C667.089 719.021 666.802 719.504 666.4 719.92C665.997 720.332 665.5 720.654 664.908 720.886C664.317 721.114 663.651 721.227 662.913 721.227ZM673.19 721.256C672.498 721.256 671.871 721.125 671.308 720.865C670.744 720.6 670.297 720.219 669.965 719.722C669.634 719.22 669.468 718.614 669.468 717.903C669.468 717.278 669.591 716.772 669.837 716.384C670.084 715.991 670.413 715.683 670.825 715.46C671.237 715.238 671.691 715.072 672.188 714.963C672.69 714.849 673.194 714.759 673.701 714.693C674.364 714.608 674.901 714.544 675.313 714.501C675.73 714.454 676.033 714.376 676.222 714.267C676.416 714.158 676.513 713.969 676.513 713.699V713.642C676.513 712.941 676.322 712.397 675.938 712.009C675.559 711.62 674.984 711.426 674.212 711.426C673.412 711.426 672.785 711.601 672.33 711.952C671.876 712.302 671.556 712.676 671.371 713.074L669.781 712.506C670.065 711.843 670.443 711.327 670.917 710.957C671.395 710.583 671.916 710.323 672.479 710.176C673.048 710.025 673.606 709.949 674.156 709.949C674.506 709.949 674.908 709.991 675.363 710.077C675.822 710.157 676.265 710.325 676.691 710.581C677.122 710.837 677.479 711.223 677.763 711.739C678.048 712.255 678.19 712.946 678.19 713.812V721H676.513V719.523H676.428C676.315 719.759 676.125 720.013 675.86 720.283C675.595 720.553 675.242 720.782 674.802 720.972C674.362 721.161 673.824 721.256 673.19 721.256ZM673.445 719.75C674.108 719.75 674.667 719.62 675.121 719.359C675.581 719.099 675.926 718.763 676.158 718.351C676.395 717.939 676.513 717.506 676.513 717.051V715.517C676.442 715.602 676.286 715.68 676.045 715.751C675.808 715.818 675.533 715.877 675.221 715.929C674.913 715.976 674.612 716.019 674.319 716.057C674.03 716.09 673.796 716.118 673.616 716.142C673.18 716.199 672.773 716.291 672.394 716.419C672.02 716.542 671.717 716.729 671.485 716.98C671.258 717.226 671.144 717.562 671.144 717.989C671.144 718.571 671.36 719.011 671.79 719.31C672.226 719.603 672.778 719.75 673.445 719.75ZM685.993 710.091V711.511H680.34V710.091H685.993ZM681.988 707.477H683.664V717.875C683.664 718.348 683.732 718.704 683.87 718.94C684.012 719.172 684.192 719.329 684.409 719.409C684.632 719.485 684.866 719.523 685.113 719.523C685.297 719.523 685.449 719.513 685.567 719.494C685.685 719.471 685.78 719.452 685.851 719.438L686.192 720.943C686.078 720.986 685.92 721.028 685.716 721.071C685.513 721.118 685.255 721.142 684.942 721.142C684.469 721.142 684.005 721.04 683.55 720.837C683.1 720.633 682.726 720.323 682.428 719.906C682.134 719.49 681.988 718.964 681.988 718.33V707.477ZM692.971 721.227C691.92 721.227 691.013 720.995 690.251 720.531C689.493 720.062 688.909 719.409 688.497 718.571C688.09 717.728 687.886 716.748 687.886 715.631C687.886 714.513 688.09 713.528 688.497 712.676C688.909 711.819 689.482 711.152 690.216 710.673C690.954 710.19 691.816 709.949 692.801 709.949C693.369 709.949 693.93 710.044 694.484 710.233C695.038 710.422 695.542 710.73 695.997 711.156C696.451 711.578 696.814 712.136 697.083 712.832C697.353 713.528 697.488 714.385 697.488 715.403V716.114H689.079V714.665H695.784C695.784 714.049 695.661 713.5 695.414 713.017C695.173 712.534 694.827 712.153 694.377 711.874C693.932 711.594 693.407 711.455 692.801 711.455C692.133 711.455 691.556 711.62 691.068 711.952C690.585 712.278 690.213 712.705 689.953 713.23C689.692 713.756 689.562 714.319 689.562 714.92V715.886C689.562 716.71 689.704 717.409 689.988 717.982C690.277 718.55 690.677 718.983 691.189 719.281C691.7 719.575 692.294 719.722 692.971 719.722C693.412 719.722 693.809 719.66 694.164 719.537C694.524 719.409 694.834 719.22 695.095 718.969C695.355 718.713 695.556 718.396 695.699 718.017L697.318 718.472C697.147 719.021 696.861 719.504 696.458 719.92C696.056 720.332 695.559 720.654 694.967 720.886C694.375 721.114 693.71 721.227 692.971 721.227ZM708.873 721.256C708.182 721.256 707.555 721.125 706.991 720.865C706.428 720.6 705.98 720.219 705.649 719.722C705.317 719.22 705.152 718.614 705.152 717.903C705.152 717.278 705.275 716.772 705.521 716.384C705.767 715.991 706.096 715.683 706.508 715.46C706.92 715.238 707.375 715.072 707.872 714.963C708.374 714.849 708.878 714.759 709.385 714.693C710.047 714.608 710.585 714.544 710.997 714.501C711.413 714.454 711.717 714.376 711.906 714.267C712.1 714.158 712.197 713.969 712.197 713.699V713.642C712.197 712.941 712.005 712.397 711.622 712.009C711.243 711.62 710.668 711.426 709.896 711.426C709.096 711.426 708.468 711.601 708.014 711.952C707.559 712.302 707.24 712.676 707.055 713.074L705.464 712.506C705.748 711.843 706.127 711.327 706.6 710.957C707.079 710.583 707.6 710.323 708.163 710.176C708.731 710.025 709.29 709.949 709.839 709.949C710.19 709.949 710.592 709.991 711.047 710.077C711.506 710.157 711.949 710.325 712.375 710.581C712.806 710.837 713.163 711.223 713.447 711.739C713.731 712.255 713.873 712.946 713.873 713.812V721H712.197V719.523H712.112C711.998 719.759 711.809 720.013 711.544 720.283C711.279 720.553 710.926 720.782 710.485 720.972C710.045 721.161 709.508 721.256 708.873 721.256ZM709.129 719.75C709.792 719.75 710.35 719.62 710.805 719.359C711.264 719.099 711.61 718.763 711.842 718.351C712.079 717.939 712.197 717.506 712.197 717.051V715.517C712.126 715.602 711.97 715.68 711.728 715.751C711.492 715.818 711.217 715.877 710.904 715.929C710.597 715.976 710.296 716.019 710.002 716.057C709.714 716.09 709.479 716.118 709.299 716.142C708.864 716.199 708.457 716.291 708.078 716.419C707.704 716.542 707.401 716.729 707.169 716.98C706.941 717.226 706.828 717.562 706.828 717.989C706.828 718.571 707.043 719.011 707.474 719.31C707.91 719.603 708.461 719.75 709.129 719.75ZM718.609 714.438V721H716.933V710.091H718.552V711.795H718.694C718.95 711.241 719.338 710.796 719.859 710.46C720.379 710.119 721.052 709.949 721.876 709.949C722.614 709.949 723.261 710.1 723.815 710.403C724.369 710.702 724.799 711.156 725.107 711.767C725.415 712.373 725.569 713.14 725.569 714.068V721H723.893V714.182C723.893 713.325 723.67 712.657 723.225 712.179C722.78 711.696 722.169 711.455 721.393 711.455C720.858 711.455 720.379 711.571 719.958 711.803C719.541 712.035 719.212 712.373 718.971 712.818C718.729 713.263 718.609 713.803 718.609 714.438ZM737.467 721.256C736.776 721.256 736.148 721.125 735.585 720.865C735.021 720.6 734.574 720.219 734.243 719.722C733.911 719.22 733.745 718.614 733.745 717.903C733.745 717.278 733.868 716.772 734.115 716.384C734.361 715.991 734.69 715.683 735.102 715.46C735.514 715.238 735.968 715.072 736.466 714.963C736.967 714.849 737.472 714.759 737.978 714.693C738.641 714.608 739.179 714.544 739.591 714.501C740.007 714.454 740.31 714.376 740.5 714.267C740.694 714.158 740.791 713.969 740.791 713.699V713.642C740.791 712.941 740.599 712.397 740.216 712.009C739.837 711.62 739.261 711.426 738.49 711.426C737.69 711.426 737.062 711.601 736.608 711.952C736.153 712.302 735.833 712.676 735.649 713.074L734.058 712.506C734.342 711.843 734.721 711.327 735.194 710.957C735.672 710.583 736.193 710.323 736.757 710.176C737.325 710.025 737.884 709.949 738.433 709.949C738.783 709.949 739.186 709.991 739.64 710.077C740.1 710.157 740.542 710.325 740.968 710.581C741.399 710.837 741.757 711.223 742.041 711.739C742.325 712.255 742.467 712.946 742.467 713.812V721H740.791V719.523H740.706C740.592 719.759 740.403 720.013 740.137 720.283C739.872 720.553 739.52 720.782 739.079 720.972C738.639 721.161 738.101 721.256 737.467 721.256ZM737.723 719.75C738.386 719.75 738.944 719.62 739.399 719.359C739.858 719.099 740.204 718.763 740.436 718.351C740.672 717.939 740.791 717.506 740.791 717.051V715.517C740.72 715.602 740.564 715.68 740.322 715.751C740.085 715.818 739.811 715.877 739.498 715.929C739.19 715.976 738.89 716.019 738.596 716.057C738.307 716.09 738.073 716.118 737.893 716.142C737.458 716.199 737.05 716.291 736.672 716.419C736.297 716.542 735.994 716.729 735.762 716.98C735.535 717.226 735.422 717.562 735.422 717.989C735.422 718.571 735.637 719.011 736.068 719.31C736.503 719.603 737.055 719.75 737.723 719.75ZM749.958 721.227C748.935 721.227 748.055 720.986 747.316 720.503C746.577 720.02 746.009 719.355 745.612 718.507C745.214 717.66 745.015 716.691 745.015 715.602C745.015 714.494 745.219 713.517 745.626 712.669C746.038 711.817 746.611 711.152 747.344 710.673C748.083 710.19 748.945 709.949 749.93 709.949C750.697 709.949 751.388 710.091 752.004 710.375C752.619 710.659 753.123 711.057 753.516 711.568C753.909 712.08 754.153 712.676 754.248 713.358H752.572C752.444 712.861 752.16 712.42 751.719 712.037C751.284 711.649 750.697 711.455 749.958 711.455C749.305 711.455 748.732 711.625 748.239 711.966C747.752 712.302 747.371 712.778 747.096 713.393C746.826 714.004 746.691 714.722 746.691 715.545C746.691 716.388 746.824 717.122 747.089 717.747C747.359 718.372 747.737 718.857 748.225 719.203C748.718 719.549 749.295 719.722 749.958 719.722C750.394 719.722 750.789 719.646 751.144 719.494C751.499 719.343 751.8 719.125 752.046 718.841C752.292 718.557 752.468 718.216 752.572 717.818H754.248C754.153 718.462 753.919 719.042 753.545 719.558C753.175 720.07 752.685 720.477 752.075 720.78C751.469 721.078 750.763 721.227 749.958 721.227ZM761.13 721.227C760.107 721.227 759.227 720.986 758.488 720.503C757.749 720.02 757.181 719.355 756.783 718.507C756.386 717.66 756.187 716.691 756.187 715.602C756.187 714.494 756.39 713.517 756.798 712.669C757.21 711.817 757.782 711.152 758.516 710.673C759.255 710.19 760.117 709.949 761.102 709.949C761.869 709.949 762.56 710.091 763.175 710.375C763.791 710.659 764.295 711.057 764.688 711.568C765.081 712.08 765.325 712.676 765.42 713.358H763.744C763.616 712.861 763.332 712.42 762.891 712.037C762.456 711.649 761.869 711.455 761.13 711.455C760.477 711.455 759.904 711.625 759.411 711.966C758.924 712.302 758.542 712.778 758.268 713.393C757.998 714.004 757.863 714.722 757.863 715.545C757.863 716.388 757.996 717.122 758.261 717.747C758.531 718.372 758.909 718.857 759.397 719.203C759.889 719.549 760.467 719.722 761.13 719.722C761.566 719.722 761.961 719.646 762.316 719.494C762.671 719.343 762.972 719.125 763.218 718.841C763.464 718.557 763.639 718.216 763.744 717.818H765.42C765.325 718.462 765.091 719.042 764.717 719.558C764.347 720.07 763.857 720.477 763.246 720.78C762.64 721.078 761.935 721.227 761.13 721.227ZM772.302 721.227C771.317 721.227 770.453 720.993 769.71 720.524C768.971 720.055 768.393 719.4 767.977 718.557C767.565 717.714 767.359 716.729 767.359 715.602C767.359 714.466 767.565 713.474 767.977 712.626C768.393 711.779 768.971 711.121 769.71 710.652C770.453 710.183 771.317 709.949 772.302 709.949C773.287 709.949 774.148 710.183 774.887 710.652C775.63 711.121 776.208 711.779 776.62 712.626C777.037 713.474 777.245 714.466 777.245 715.602C777.245 716.729 777.037 717.714 776.62 718.557C776.208 719.4 775.63 720.055 774.887 720.524C774.148 720.993 773.287 721.227 772.302 721.227ZM772.302 719.722C773.05 719.722 773.665 719.53 774.148 719.146C774.631 718.763 774.989 718.259 775.221 717.634C775.453 717.009 775.569 716.331 775.569 715.602C775.569 714.873 775.453 714.194 775.221 713.564C774.989 712.934 774.631 712.425 774.148 712.037C773.665 711.649 773.05 711.455 772.302 711.455C771.554 711.455 770.938 711.649 770.455 712.037C769.972 712.425 769.615 712.934 769.383 713.564C769.151 714.194 769.035 714.873 769.035 715.602C769.035 716.331 769.151 717.009 769.383 717.634C769.615 718.259 769.972 718.763 770.455 719.146C770.938 719.53 771.554 719.722 772.302 719.722ZM786.679 716.54V710.091H788.355V721H786.679V719.153H786.565C786.309 719.707 785.912 720.179 785.372 720.567C784.832 720.95 784.15 721.142 783.326 721.142C782.645 721.142 782.038 720.993 781.508 720.695C780.978 720.392 780.561 719.937 780.258 719.331C779.955 718.72 779.804 717.951 779.804 717.023V710.091H781.48V716.909C781.48 717.705 781.702 718.339 782.147 718.812C782.597 719.286 783.17 719.523 783.866 719.523C784.283 719.523 784.707 719.416 785.137 719.203C785.573 718.99 785.938 718.663 786.231 718.223C786.529 717.783 786.679 717.222 786.679 716.54ZM793.101 714.438V721H791.425V710.091H793.044V711.795H793.186C793.442 711.241 793.83 710.796 794.351 710.46C794.872 710.119 795.544 709.949 796.368 709.949C797.107 709.949 797.753 710.1 798.307 710.403C798.861 710.702 799.292 711.156 799.599 711.767C799.907 712.373 800.061 713.14 800.061 714.068V721H798.385V714.182C798.385 713.325 798.162 712.657 797.717 712.179C797.272 711.696 796.661 711.455 795.885 711.455C795.35 711.455 794.872 711.571 794.45 711.803C794.034 712.035 793.705 712.373 793.463 712.818C793.222 713.263 793.101 713.803 793.101 714.438ZM807.868 710.091V711.511H802.215V710.091H807.868ZM803.863 707.477H805.539V717.875C805.539 718.348 805.607 718.704 805.745 718.94C805.887 719.172 806.067 719.329 806.284 719.409C806.507 719.485 806.741 719.523 806.988 719.523C807.172 719.523 807.324 719.513 807.442 719.494C807.56 719.471 807.655 719.452 807.726 719.438L808.067 720.943C807.953 720.986 807.795 721.028 807.591 721.071C807.388 721.118 807.13 721.142 806.817 721.142C806.344 721.142 805.88 721.04 805.425 720.837C804.975 720.633 804.601 720.323 804.303 719.906C804.009 719.49 803.863 718.964 803.863 718.33V707.477Z" fill="#0000FF"/>
<path d="M635.145 724.977H808.863V726.341H635.145V724.977Z" fill="#0000FF"/>
<path d="M435 433H1006" stroke="black" stroke-linecap="round"/>
<path d="M445.114 519V501.545H451.011C452.381 501.545 453.5 501.793 454.369 502.287C455.244 502.776 455.892 503.438 456.312 504.273C456.733 505.108 456.943 506.04 456.943 507.068C456.943 508.097 456.733 509.031 456.312 509.872C455.898 510.713 455.256 511.384 454.386 511.884C453.517 512.378 452.403 512.625 451.045 512.625H446.818V510.75H450.977C451.915 510.75 452.668 510.588 453.236 510.264C453.804 509.94 454.216 509.503 454.472 508.952C454.733 508.395 454.864 507.767 454.864 507.068C454.864 506.369 454.733 505.744 454.472 505.193C454.216 504.642 453.801 504.21 453.227 503.898C452.653 503.58 451.892 503.42 450.943 503.42H447.227V519H445.114ZM463.928 519.307C463.098 519.307 462.345 519.151 461.669 518.838C460.993 518.52 460.456 518.062 460.058 517.466C459.661 516.864 459.462 516.136 459.462 515.284C459.462 514.534 459.609 513.926 459.905 513.46C460.2 512.989 460.595 512.619 461.089 512.352C461.584 512.085 462.129 511.886 462.726 511.756C463.328 511.619 463.933 511.511 464.541 511.432C465.337 511.33 465.982 511.253 466.476 511.202C466.976 511.145 467.339 511.051 467.567 510.92C467.8 510.79 467.916 510.562 467.916 510.239V510.17C467.916 509.33 467.686 508.676 467.226 508.21C466.771 507.744 466.081 507.511 465.155 507.511C464.195 507.511 463.442 507.722 462.896 508.142C462.351 508.562 461.967 509.011 461.746 509.489L459.837 508.807C460.178 508.011 460.632 507.392 461.2 506.949C461.774 506.5 462.399 506.187 463.075 506.011C463.757 505.83 464.428 505.739 465.087 505.739C465.507 505.739 465.99 505.79 466.536 505.892C467.087 505.989 467.618 506.19 468.129 506.497C468.646 506.804 469.075 507.267 469.416 507.886C469.757 508.506 469.928 509.335 469.928 510.375V519H467.916V517.227H467.814C467.678 517.511 467.45 517.815 467.132 518.139C466.814 518.463 466.391 518.739 465.862 518.966C465.334 519.193 464.689 519.307 463.928 519.307ZM464.234 517.5C465.03 517.5 465.7 517.344 466.246 517.031C466.797 516.719 467.212 516.315 467.49 515.821C467.774 515.327 467.916 514.807 467.916 514.261V512.42C467.831 512.523 467.643 512.616 467.354 512.702C467.07 512.781 466.74 512.852 466.365 512.915C465.996 512.972 465.635 513.023 465.283 513.068C464.936 513.108 464.655 513.142 464.439 513.17C463.916 513.239 463.428 513.349 462.973 513.503C462.524 513.651 462.161 513.875 461.882 514.176C461.609 514.472 461.473 514.875 461.473 515.386C461.473 516.085 461.732 516.614 462.249 516.972C462.771 517.324 463.433 517.5 464.234 517.5ZM482.871 508.841L481.065 509.352C480.951 509.051 480.783 508.759 480.562 508.474C480.346 508.185 480.05 507.946 479.675 507.759C479.3 507.571 478.82 507.477 478.235 507.477C477.434 507.477 476.766 507.662 476.232 508.031C475.704 508.395 475.44 508.858 475.44 509.42C475.44 509.92 475.621 510.315 475.985 510.605C476.349 510.895 476.917 511.136 477.69 511.33L479.633 511.807C480.803 512.091 481.675 512.526 482.249 513.111C482.823 513.69 483.11 514.437 483.11 515.352C483.11 516.102 482.894 516.773 482.462 517.364C482.036 517.955 481.44 518.42 480.673 518.761C479.906 519.102 479.013 519.273 477.996 519.273C476.661 519.273 475.556 518.983 474.681 518.403C473.806 517.824 473.252 516.977 473.019 515.864L474.928 515.386C475.11 516.091 475.454 516.619 475.96 516.972C476.471 517.324 477.138 517.5 477.962 517.5C478.9 517.5 479.644 517.301 480.195 516.903C480.752 516.5 481.031 516.017 481.031 515.455C481.031 515 480.871 514.619 480.553 514.312C480.235 514 479.746 513.767 479.087 513.614L476.906 513.102C475.707 512.818 474.826 512.378 474.263 511.781C473.707 511.179 473.428 510.426 473.428 509.523C473.428 508.784 473.636 508.131 474.05 507.562C474.471 506.994 475.042 506.548 475.763 506.224C476.491 505.901 477.315 505.739 478.235 505.739C479.531 505.739 480.548 506.023 481.286 506.591C482.031 507.159 482.559 507.909 482.871 508.841ZM495.411 508.841L493.604 509.352C493.49 509.051 493.322 508.759 493.101 508.474C492.885 508.185 492.589 507.946 492.214 507.759C491.839 507.571 491.359 507.477 490.774 507.477C489.973 507.477 489.305 507.662 488.771 508.031C488.243 508.395 487.979 508.858 487.979 509.42C487.979 509.92 488.161 510.315 488.524 510.605C488.888 510.895 489.456 511.136 490.229 511.33L492.172 511.807C493.342 512.091 494.214 512.526 494.788 513.111C495.362 513.69 495.649 514.437 495.649 515.352C495.649 516.102 495.433 516.773 495.001 517.364C494.575 517.955 493.979 518.42 493.212 518.761C492.445 519.102 491.553 519.273 490.536 519.273C489.2 519.273 488.095 518.983 487.22 518.403C486.345 517.824 485.791 516.977 485.558 515.864L487.467 515.386C487.649 516.091 487.993 516.619 488.499 516.972C489.01 517.324 489.678 517.5 490.501 517.5C491.439 517.5 492.183 517.301 492.734 516.903C493.291 516.5 493.57 516.017 493.57 515.455C493.57 515 493.411 514.619 493.092 514.312C492.774 514 492.286 513.767 491.626 513.614L489.445 513.102C488.246 512.818 487.365 512.378 486.803 511.781C486.246 511.179 485.967 510.426 485.967 509.523C485.967 508.784 486.175 508.131 486.589 507.562C487.01 506.994 487.581 506.548 488.303 506.224C489.03 505.901 489.854 505.739 490.774 505.739C492.07 505.739 493.087 506.023 493.825 506.591C494.57 507.159 495.098 507.909 495.411 508.841ZM501.643 519L497.654 505.909H499.768L502.597 515.932H502.734L505.529 505.909H507.677L510.438 515.898H510.575L513.404 505.909H515.518L511.529 519H509.552L506.688 508.943H506.484L503.62 519H501.643ZM523.05 519.273C521.868 519.273 520.831 518.991 519.939 518.429C519.053 517.866 518.359 517.08 517.859 516.068C517.365 515.057 517.118 513.875 517.118 512.523C517.118 511.159 517.365 509.969 517.859 508.952C518.359 507.935 519.053 507.145 519.939 506.582C520.831 506.02 521.868 505.739 523.05 505.739C524.232 505.739 525.266 506.02 526.152 506.582C527.044 507.145 527.737 507.935 528.232 508.952C528.732 509.969 528.982 511.159 528.982 512.523C528.982 513.875 528.732 515.057 528.232 516.068C527.737 517.08 527.044 517.866 526.152 518.429C525.266 518.991 524.232 519.273 523.05 519.273ZM523.05 517.466C523.947 517.466 524.686 517.236 525.266 516.776C525.845 516.315 526.274 515.71 526.553 514.96C526.831 514.21 526.97 513.398 526.97 512.523C526.97 511.648 526.831 510.832 526.553 510.077C526.274 509.321 525.845 508.71 525.266 508.244C524.686 507.778 523.947 507.545 523.05 507.545C522.152 507.545 521.413 507.778 520.834 508.244C520.254 508.71 519.825 509.321 519.547 510.077C519.268 510.832 519.129 511.648 519.129 512.523C519.129 513.398 519.268 514.21 519.547 514.96C519.825 515.71 520.254 516.315 520.834 516.776C521.413 517.236 522.152 517.466 523.05 517.466ZM532.052 519V505.909H533.995V507.886H534.131C534.37 507.239 534.802 506.713 535.427 506.31C536.052 505.906 536.756 505.705 537.54 505.705C537.688 505.705 537.873 505.707 538.094 505.713C538.316 505.719 538.484 505.727 538.597 505.739V507.784C538.529 507.767 538.373 507.741 538.129 507.707C537.89 507.668 537.637 507.648 537.37 507.648C536.734 507.648 536.165 507.781 535.665 508.048C535.171 508.31 534.779 508.673 534.489 509.139C534.205 509.599 534.063 510.125 534.063 510.716V519H532.052ZM545.526 519.273C544.435 519.273 543.472 518.997 542.637 518.446C541.802 517.889 541.148 517.105 540.677 516.094C540.205 515.077 539.969 513.875 539.969 512.489C539.969 511.114 540.205 509.92 540.677 508.909C541.148 507.898 541.805 507.116 542.646 506.565C543.487 506.014 544.458 505.739 545.56 505.739C546.413 505.739 547.086 505.881 547.58 506.165C548.08 506.443 548.461 506.761 548.722 507.119C548.989 507.472 549.197 507.761 549.344 507.989H549.515V501.545H551.526V519H549.583V516.989H549.344C549.197 517.227 548.987 517.528 548.714 517.892C548.441 518.25 548.052 518.571 547.546 518.855C547.04 519.134 546.367 519.273 545.526 519.273ZM545.799 517.466C546.606 517.466 547.288 517.256 547.844 516.835C548.401 516.409 548.825 515.821 549.114 515.071C549.404 514.315 549.549 513.443 549.549 512.455C549.549 511.477 549.407 510.622 549.123 509.889C548.839 509.151 548.418 508.577 547.862 508.168C547.305 507.753 546.617 507.545 545.799 507.545C544.947 507.545 544.237 507.764 543.668 508.202C543.106 508.634 542.683 509.222 542.398 509.966C542.12 510.705 541.981 511.534 541.981 512.455C541.981 513.386 542.123 514.233 542.407 514.994C542.697 515.75 543.123 516.352 543.685 516.801C544.254 517.244 544.958 517.466 545.799 517.466Z" fill="#95A9B8"/>
<path d="M435 527H1006" stroke="black" stroke-linecap="round"/>
<g filter="url(#filter2_d_43_818)">
<rect x="1327" y="15" width="95" height="44" rx="4" fill="#FFA7CF"/>
</g>
<path d="M1347.77 44V29.4545H1349.53V42.4375H1356.29V44H1347.77ZM1363.22 44.2273C1362.24 44.2273 1361.37 43.9929 1360.63 43.5241C1359.89 43.0554 1359.31 42.3996 1358.9 41.5568C1358.48 40.714 1358.28 39.7292 1358.28 38.6023C1358.28 37.4659 1358.48 36.474 1358.9 35.6264C1359.31 34.7789 1359.89 34.1207 1360.63 33.652C1361.37 33.1832 1362.24 32.9489 1363.22 32.9489C1364.21 32.9489 1365.07 33.1832 1365.81 33.652C1366.55 34.1207 1367.13 34.7789 1367.54 35.6264C1367.96 36.474 1368.16 37.4659 1368.16 38.6023C1368.16 39.7292 1367.96 40.714 1367.54 41.5568C1367.13 42.3996 1366.55 43.0554 1365.81 43.5241C1365.07 43.9929 1364.21 44.2273 1363.22 44.2273ZM1363.22 42.7216C1363.97 42.7216 1364.59 42.5298 1365.07 42.1463C1365.55 41.7628 1365.91 41.2585 1366.14 40.6335C1366.37 40.0085 1366.49 39.3314 1366.49 38.6023C1366.49 37.8731 1366.37 37.1937 1366.14 36.5639C1365.91 35.9342 1365.55 35.4252 1365.07 35.0369C1364.59 34.6487 1363.97 34.4545 1363.22 34.4545C1362.47 34.4545 1361.86 34.6487 1361.38 35.0369C1360.89 35.4252 1360.53 35.9342 1360.3 36.5639C1360.07 37.1937 1359.95 37.8731 1359.95 38.6023C1359.95 39.3314 1360.07 40.0085 1360.3 40.6335C1360.53 41.2585 1360.89 41.7628 1361.38 42.1463C1361.86 42.5298 1362.47 42.7216 1363.22 42.7216ZM1375.13 48.3182C1374.32 48.3182 1373.62 48.214 1373.04 48.0057C1372.46 47.8021 1371.97 47.5322 1371.58 47.196C1371.2 46.8646 1370.89 46.5095 1370.67 46.1307L1372 45.1932C1372.15 45.392 1372.35 45.6193 1372.58 45.875C1372.81 46.1354 1373.13 46.3603 1373.53 46.5497C1373.94 46.7438 1374.47 46.8409 1375.13 46.8409C1376.01 46.8409 1376.73 46.6278 1377.31 46.2017C1377.88 45.7756 1378.17 45.108 1378.17 44.1989V41.983H1378.02C1377.9 42.1818 1377.73 42.428 1377.5 42.7216C1377.28 43.0104 1376.95 43.2685 1376.53 43.4957C1376.12 43.7183 1375.55 43.8295 1374.84 43.8295C1373.96 43.8295 1373.17 43.6212 1372.47 43.2045C1371.77 42.7879 1371.22 42.1818 1370.82 41.3864C1370.41 40.5909 1370.21 39.625 1370.21 38.4886C1370.21 37.3712 1370.41 36.3982 1370.8 35.5696C1371.19 34.7363 1371.74 34.0923 1372.44 33.6378C1373.14 33.1785 1373.95 32.9489 1374.87 32.9489C1375.58 32.9489 1376.14 33.0672 1376.56 33.304C1376.98 33.536 1377.3 33.8011 1377.53 34.0994C1377.75 34.393 1377.93 34.6345 1378.05 34.8239H1378.22V33.0909H1379.84V44.3125C1379.84 45.25 1379.63 46.0123 1379.2 46.5994C1378.78 47.1913 1378.21 47.6245 1377.5 47.8991C1376.79 48.1785 1376 48.3182 1375.13 48.3182ZM1375.07 42.3239C1375.74 42.3239 1376.31 42.17 1376.77 41.8622C1377.24 41.5545 1377.59 41.1117 1377.83 40.5341C1378.07 39.9564 1378.2 39.2652 1378.2 38.4602C1378.2 37.6742 1378.08 36.9806 1377.84 36.3793C1377.6 35.7779 1377.25 35.3068 1376.79 34.9659C1376.32 34.625 1375.75 34.4545 1375.07 34.4545C1374.36 34.4545 1373.77 34.6345 1373.29 34.9943C1372.83 35.3542 1372.47 35.8371 1372.24 36.4432C1372 37.0492 1371.89 37.7216 1371.89 38.4602C1371.89 39.2178 1372.01 39.8878 1372.24 40.4702C1372.48 41.0478 1372.84 41.5024 1373.31 41.8338C1373.78 42.1605 1374.37 42.3239 1375.07 42.3239ZM1390.52 29.4545V44H1388.76V29.4545H1390.52ZM1395.51 37.4375V44H1393.83V33.0909H1395.45V34.7955H1395.59C1395.85 34.2415 1396.23 33.7964 1396.76 33.4602C1397.28 33.1193 1397.95 32.9489 1398.77 32.9489C1399.51 32.9489 1400.16 33.1004 1400.71 33.4034C1401.27 33.7017 1401.7 34.1562 1402 34.767C1402.31 35.3731 1402.47 36.1402 1402.47 37.0682V44H1400.79V37.1818C1400.79 36.3248 1400.57 35.6572 1400.12 35.179C1399.68 34.696 1399.07 34.4545 1398.29 34.4545C1397.75 34.4545 1397.28 34.5705 1396.85 34.8026C1396.44 35.0346 1396.11 35.3731 1395.87 35.8182C1395.63 36.2633 1395.51 36.803 1395.51 37.4375Z" fill="black"/>
<rect x="-1.5" y="-1.5" width="1443" height="76" fill="#253039"/>
<rect x="-1.5" y="-1.5" width="1443" height="76" stroke="black" stroke-width="3"/>
<rect x="-1.5" y="-1.5" width="1443" height="76" stroke="url(#paint1_linear_43_818)" stroke-width="3"/>
<line x1="19.5" y1="25.5" x2="45.5" y2="25.5" stroke="#BDD3E3" stroke-width="3" stroke-linecap="round"/>
<line x1="19.5" y1="35.5" x2="45.5" y2="35.5" stroke="#BDD3E3" stroke-width="3" stroke-linecap="round"/>
<line x1="19.5" y1="45.5" x2="45.5" y2="45.5" stroke="#BDD3E3" stroke-width="3" stroke-linecap="round"/>
<path d="M615.74 32.0895C615.493 31.3139 615.16 30.6193 614.743 30.0057C614.333 29.3835 613.843 28.8551 613.272 28.4205C612.701 27.9773 612.049 27.6406 611.316 27.4105C610.592 27.1804 609.795 27.0653 608.926 27.0653C607.451 27.0653 606.122 27.4446 604.937 28.2031C603.752 28.9616 602.815 30.0739 602.125 31.5398C601.443 32.9972 601.102 34.7827 601.102 36.8963C601.102 39.0185 601.447 40.8125 602.137 42.2784C602.828 43.7443 603.774 44.8565 604.975 45.6151C606.177 46.3736 607.545 46.7528 609.079 46.7528C610.502 46.7528 611.743 46.4631 612.799 45.8835C613.865 45.304 614.687 44.4858 615.267 43.429C615.855 42.3636 616.149 41.1108 616.149 39.6705L617.172 39.8622H609.68V36.6023H619.971V39.581C619.971 41.7798 619.502 43.6889 618.565 45.3082C617.636 46.919 616.349 48.1634 614.704 49.0412C613.068 49.919 611.193 50.358 609.079 50.358C606.71 50.358 604.63 49.8125 602.841 48.7216C601.059 47.6307 599.67 46.0838 598.673 44.081C597.676 42.0696 597.177 39.6832 597.177 36.9219C597.177 34.8338 597.467 32.9588 598.047 31.2969C598.626 29.6349 599.44 28.2244 600.488 27.0653C601.545 25.8977 602.785 25.0071 604.208 24.3935C605.64 23.7713 607.204 23.4602 608.9 23.4602C610.315 23.4602 611.632 23.669 612.85 24.0866C614.078 24.5043 615.169 25.0966 616.123 25.8636C617.086 26.6307 617.883 27.5426 618.514 28.5994C619.145 29.6477 619.571 30.8111 619.792 32.0895H615.74ZM630.393 50.4347C629.149 50.4347 628.024 50.2045 627.018 49.7443C626.013 49.2756 625.216 48.598 624.628 47.7116C624.048 46.8253 623.759 45.7386 623.759 44.4517C623.759 43.3437 623.972 42.4318 624.398 41.7159C624.824 41 625.399 40.4332 626.124 40.0156C626.848 39.598 627.658 39.2827 628.553 39.0696C629.447 38.8565 630.359 38.6946 631.288 38.5838C632.464 38.4474 633.419 38.3366 634.152 38.2514C634.885 38.1577 635.418 38.0085 635.75 37.804C636.082 37.5994 636.249 37.267 636.249 36.8068V36.7173C636.249 35.6009 635.933 34.7358 635.303 34.1222C634.68 33.5085 633.751 33.2017 632.516 33.2017C631.229 33.2017 630.214 33.4872 629.473 34.0582C628.74 34.6207 628.233 35.2472 627.952 35.9375L624.359 35.1193C624.786 33.9261 625.408 32.9631 626.226 32.2301C627.053 31.4886 628.003 30.9517 629.077 30.6193C630.151 30.2784 631.28 30.108 632.464 30.108C633.249 30.108 634.08 30.2017 634.957 30.3892C635.844 30.5682 636.67 30.9006 637.438 31.3864C638.213 31.8722 638.848 32.5668 639.342 33.4702C639.837 34.3651 640.084 35.5284 640.084 36.9602V50H636.351V47.3153H636.197C635.95 47.8097 635.58 48.2955 635.085 48.7727C634.591 49.25 633.956 49.6463 633.18 49.9616C632.405 50.277 631.476 50.4347 630.393 50.4347ZM631.224 47.3665C632.281 47.3665 633.185 47.1577 633.935 46.7401C634.693 46.3224 635.268 45.777 635.661 45.1037C636.061 44.4219 636.261 43.6932 636.261 42.9176V40.3864C636.125 40.5227 635.861 40.6506 635.469 40.7699C635.085 40.8807 634.646 40.9787 634.152 41.0639C633.658 41.1406 633.176 41.2131 632.707 41.2812C632.239 41.3409 631.847 41.392 631.531 41.4347C630.79 41.5284 630.112 41.6861 629.499 41.9077C628.893 42.1293 628.408 42.4489 628.041 42.8665C627.683 43.2756 627.504 43.821 627.504 44.5028C627.504 45.4489 627.854 46.1648 628.553 46.6506C629.251 47.1278 630.142 47.3665 631.224 47.3665ZM645.175 50V30.3636H648.844V33.5597H649.087C649.496 32.4773 650.165 31.6335 651.094 31.0284C652.023 30.4148 653.135 30.108 654.431 30.108C655.743 30.108 656.843 30.4148 657.729 31.0284C658.624 31.642 659.284 32.4858 659.711 33.5597H659.915C660.384 32.5114 661.13 31.6761 662.152 31.054C663.175 30.4233 664.394 30.108 665.809 30.108C667.59 30.108 669.043 30.6662 670.168 31.7827C671.301 32.8991 671.868 34.5824 671.868 36.8324V50H668.046V37.1903C668.046 35.8608 667.684 34.8977 666.959 34.3011C666.235 33.7045 665.37 33.4062 664.364 33.4062C663.12 33.4062 662.152 33.7898 661.462 34.5568C660.772 35.3153 660.426 36.2912 660.426 37.4844V50H656.617V36.9474C656.617 35.8821 656.284 35.0256 655.62 34.3778C654.955 33.7301 654.09 33.4062 653.025 33.4062C652.3 33.4062 651.631 33.598 651.017 33.9815C650.412 34.3565 649.922 34.8807 649.547 35.554C649.181 36.2273 648.998 37.0071 648.998 37.8935V50H645.175ZM685.455 50.3963C683.52 50.3963 681.854 49.983 680.456 49.1562C679.067 48.321 677.993 47.1491 677.234 45.6406C676.484 44.1236 676.109 42.3466 676.109 40.3097C676.109 38.2983 676.484 36.5256 677.234 34.9915C677.993 33.4574 679.05 32.2599 680.405 31.3991C681.768 30.5384 683.362 30.108 685.186 30.108C686.294 30.108 687.368 30.2912 688.408 30.6577C689.447 31.0241 690.381 31.5994 691.207 32.3835C692.034 33.1676 692.686 34.1861 693.163 35.4389C693.641 36.6832 693.879 38.196 693.879 39.9773V41.3324H678.27V38.4688H690.134C690.134 37.4631 689.929 36.5724 689.52 35.7969C689.111 35.0128 688.536 34.3949 687.794 33.9432C687.061 33.4915 686.2 33.2656 685.212 33.2656C684.138 33.2656 683.2 33.5298 682.399 34.0582C681.607 34.5781 680.993 35.2599 680.558 36.1037C680.132 36.9389 679.919 37.8466 679.919 38.8267V41.0639C679.919 42.3764 680.149 43.4929 680.609 44.4134C681.078 45.3338 681.73 46.0369 682.565 46.5227C683.401 47 684.376 47.2386 685.493 47.2386C686.217 47.2386 686.878 47.1364 687.474 46.9318C688.071 46.7187 688.587 46.4034 689.021 45.9858C689.456 45.5682 689.788 45.0526 690.018 44.4389L693.636 45.0909C693.347 46.1562 692.827 47.0895 692.077 47.8906C691.335 48.6832 690.402 49.3011 689.277 49.7443C688.161 50.179 686.886 50.3963 685.455 50.3963ZM720.173 32.3324H716.184C716.031 31.4801 715.745 30.7301 715.328 30.0824C714.91 29.4347 714.399 28.8849 713.794 28.4332C713.189 27.9815 712.511 27.6406 711.761 27.4105C711.02 27.1804 710.231 27.0653 709.396 27.0653C707.887 27.0653 706.537 27.4446 705.343 28.2031C704.159 28.9616 703.221 30.0739 702.531 31.5398C701.849 33.0057 701.508 34.7955 701.508 36.9091C701.508 39.0398 701.849 40.8381 702.531 42.304C703.221 43.7699 704.163 44.8778 705.356 45.6278C706.549 46.3778 707.892 46.7528 709.383 46.7528C710.21 46.7528 710.994 46.642 711.735 46.4205C712.485 46.1903 713.163 45.8537 713.768 45.4105C714.373 44.9673 714.885 44.4261 715.302 43.7869C715.728 43.1392 716.022 42.3977 716.184 41.5625L720.173 41.5753C719.96 42.8622 719.547 44.0469 718.933 45.1293C718.328 46.2031 717.548 47.1321 716.593 47.9162C715.647 48.6918 714.565 49.2926 713.346 49.7188C712.127 50.1449 710.798 50.358 709.358 50.358C707.091 50.358 705.071 49.821 703.298 48.7472C701.525 47.6648 700.127 46.1179 699.105 44.1065C698.091 42.0952 697.583 39.696 697.583 36.9091C697.583 34.1136 698.095 31.7145 699.118 29.7116C700.14 27.7003 701.538 26.1577 703.311 25.0838C705.083 24.0014 707.099 23.4602 709.358 23.4602C710.747 23.4602 712.042 23.6605 713.244 24.0611C714.454 24.4531 715.541 25.0327 716.504 25.7997C717.467 26.5582 718.264 27.4872 718.895 28.5866C719.525 29.6776 719.951 30.9261 720.173 32.3324ZM728.415 38.3409V50H724.593V23.8182H728.364V33.5597H728.607C729.067 32.5028 729.771 31.6634 730.717 31.0412C731.663 30.419 732.898 30.108 734.424 30.108C735.771 30.108 736.947 30.3849 737.952 30.9389C738.967 31.4929 739.751 32.3196 740.305 33.419C740.867 34.5099 741.148 35.8736 741.148 37.5099V50H737.326V37.9702C737.326 36.5298 736.955 35.4134 736.214 34.6207C735.472 33.8196 734.441 33.419 733.12 33.419C732.217 33.419 731.407 33.6108 730.691 33.9943C729.984 34.3778 729.425 34.9403 729.016 35.6818C728.616 36.4148 728.415 37.3011 728.415 38.3409ZM751.964 50.4347C750.719 50.4347 749.594 50.2045 748.589 49.7443C747.583 49.2756 746.786 48.598 746.198 47.7116C745.619 46.8253 745.329 45.7386 745.329 44.4517C745.329 43.3437 745.542 42.4318 745.968 41.7159C746.394 41 746.969 40.4332 747.694 40.0156C748.418 39.598 749.228 39.2827 750.123 39.0696C751.018 38.8565 751.93 38.6946 752.859 38.5838C754.035 38.4474 754.989 38.3366 755.722 38.2514C756.455 38.1577 756.988 38.0085 757.32 37.804C757.653 37.5994 757.819 37.267 757.819 36.8068V36.7173C757.819 35.6009 757.504 34.7358 756.873 34.1222C756.251 33.5085 755.322 33.2017 754.086 33.2017C752.799 33.2017 751.785 33.4872 751.043 34.0582C750.31 34.6207 749.803 35.2472 749.522 35.9375L745.93 35.1193C746.356 33.9261 746.978 32.9631 747.796 32.2301C748.623 31.4886 749.573 30.9517 750.647 30.6193C751.721 30.2784 752.85 30.108 754.035 30.108C754.819 30.108 755.65 30.2017 756.528 30.3892C757.414 30.5682 758.241 30.9006 759.008 31.3864C759.783 31.8722 760.418 32.5668 760.913 33.4702C761.407 34.3651 761.654 35.5284 761.654 36.9602V50H757.921V47.3153H757.768C757.521 47.8097 757.15 48.2955 756.656 48.7727C756.161 49.25 755.526 49.6463 754.751 49.9616C753.975 50.277 753.046 50.4347 751.964 50.4347ZM752.795 47.3665C753.852 47.3665 754.755 47.1577 755.505 46.7401C756.263 46.3224 756.839 45.777 757.231 45.1037C757.631 44.4219 757.832 43.6932 757.832 42.9176V40.3864C757.695 40.5227 757.431 40.6506 757.039 40.7699C756.656 40.8807 756.217 40.9787 755.722 41.0639C755.228 41.1406 754.746 41.2131 754.278 41.2812C753.809 41.3409 753.417 41.392 753.102 41.4347C752.36 41.5284 751.683 41.6861 751.069 41.9077C750.464 42.1293 749.978 42.4489 749.612 42.8665C749.254 43.2756 749.075 43.821 749.075 44.5028C749.075 45.4489 749.424 46.1648 750.123 46.6506C750.822 47.1278 751.712 47.3665 752.795 47.3665ZM770.568 38.3409V50H766.745V30.3636H770.414V33.5597H770.657C771.109 32.5199 771.816 31.6847 772.779 31.054C773.751 30.4233 774.974 30.108 776.449 30.108C777.787 30.108 778.958 30.3892 779.964 30.9517C780.97 31.5057 781.75 32.3324 782.304 33.4318C782.858 34.5312 783.135 35.8906 783.135 37.5099V50H779.312V37.9702C779.312 36.5469 778.941 35.4347 778.2 34.6335C777.458 33.8239 776.44 33.419 775.145 33.419C774.258 33.419 773.47 33.6108 772.779 33.9943C772.098 34.3778 771.556 34.9403 771.156 35.6818C770.764 36.4148 770.568 37.3011 770.568 38.3409ZM796.494 57.7727C794.934 57.7727 793.592 57.5682 792.467 57.1591C791.35 56.75 790.439 56.2088 789.731 55.5355C789.024 54.8622 788.495 54.125 788.146 53.3239L791.431 51.9688C791.662 52.3438 791.968 52.7401 792.352 53.1577C792.744 53.5838 793.272 53.946 793.937 54.2443C794.61 54.5426 795.475 54.6918 796.532 54.6918C797.981 54.6918 799.179 54.3381 800.125 53.6307C801.071 52.9318 801.544 51.8153 801.544 50.2812V46.4205H801.301C801.071 46.8381 800.738 47.3026 800.304 47.8139C799.877 48.3253 799.289 48.7685 798.539 49.1435C797.789 49.5185 796.814 49.706 795.612 49.706C794.061 49.706 792.663 49.3437 791.419 48.6193C790.183 47.8864 789.203 46.8082 788.478 45.3849C787.762 43.9531 787.404 42.1932 787.404 40.1051C787.404 38.017 787.758 36.2273 788.466 34.7358C789.181 33.2443 790.162 32.1023 791.406 31.3097C792.65 30.5085 794.061 30.108 795.637 30.108C796.856 30.108 797.841 30.3125 798.591 30.7216C799.341 31.1222 799.924 31.5909 800.342 32.1278C800.768 32.6648 801.096 33.1378 801.326 33.5469H801.608V30.3636H805.353V50.4347C805.353 52.1222 804.961 53.5071 804.177 54.5895C803.393 55.6719 802.332 56.473 800.994 56.9929C799.664 57.5128 798.164 57.7727 796.494 57.7727ZM796.456 46.5355C797.555 46.5355 798.484 46.2798 799.243 45.7685C800.01 45.2486 800.589 44.5071 800.981 43.544C801.382 42.5724 801.582 41.4091 801.582 40.054C801.582 38.733 801.386 37.5696 800.994 36.5639C800.602 35.5582 800.027 34.7741 799.268 34.2116C798.51 33.6406 797.572 33.3551 796.456 33.3551C795.305 33.3551 794.346 33.6534 793.579 34.25C792.812 34.8381 792.233 35.6392 791.841 36.6534C791.457 37.6676 791.265 38.8011 791.265 40.054C791.265 41.3409 791.461 42.4702 791.853 43.4418C792.245 44.4134 792.825 45.1719 793.592 45.7173C794.368 46.2628 795.322 46.5355 796.456 46.5355ZM818.943 50.3963C817.008 50.3963 815.342 49.983 813.944 49.1562C812.555 48.321 811.481 47.1491 810.723 45.6406C809.973 44.1236 809.598 42.3466 809.598 40.3097C809.598 38.2983 809.973 36.5256 810.723 34.9915C811.481 33.4574 812.538 32.2599 813.893 31.3991C815.257 30.5384 816.85 30.108 818.674 30.108C819.782 30.108 820.856 30.2912 821.896 30.6577C822.936 31.0241 823.869 31.5994 824.696 32.3835C825.522 33.1676 826.174 34.1861 826.652 35.4389C827.129 36.6832 827.368 38.196 827.368 39.9773V41.3324H811.758V38.4688H823.622C823.622 37.4631 823.417 36.5724 823.008 35.7969C822.599 35.0128 822.024 34.3949 821.282 33.9432C820.549 33.4915 819.689 33.2656 818.7 33.2656C817.626 33.2656 816.689 33.5298 815.887 34.0582C815.095 34.5781 814.481 35.2599 814.047 36.1037C813.62 36.9389 813.407 37.8466 813.407 38.8267V41.0639C813.407 42.3764 813.637 43.4929 814.098 44.4134C814.566 45.3338 815.218 46.0369 816.054 46.5227C816.889 47 817.865 47.2386 818.981 47.2386C819.706 47.2386 820.366 47.1364 820.963 46.9318C821.559 46.7187 822.075 46.4034 822.51 45.9858C822.944 45.5682 823.277 45.0526 823.507 44.4389L827.125 45.0909C826.835 46.1562 826.315 47.0895 825.565 47.8906C824.824 48.6832 823.89 49.3011 822.765 49.7443C821.649 50.179 820.375 50.3963 818.943 50.3963ZM831.609 50V30.3636H835.303V33.483H835.508C835.866 32.4261 836.496 31.5952 837.4 30.9901C838.312 30.3764 839.343 30.0696 840.494 30.0696C840.732 30.0696 841.013 30.0781 841.337 30.0952C841.67 30.1122 841.93 30.1335 842.117 30.1591V33.8153C841.964 33.7727 841.691 33.7259 841.299 33.6747C840.907 33.6151 840.515 33.5852 840.123 33.5852C839.219 33.5852 838.414 33.777 837.707 34.1605C837.008 34.5355 836.454 35.0597 836.045 35.733C835.636 36.3977 835.431 37.1562 835.431 38.0085V50H831.609Z" fill="url(#paint2_linear_43_818)"/>
</g>
<defs>
<filter id="filter0_d_43_818" x="360" y="243" width="721" height="103" filterUnits="userSpaceOnUse" color-interpolation-filters="sRGB">
<feFlood flood-opacity="0" result="BackgroundImageFix"/>
<feColorMatrix in="SourceAlpha" type="matrix" values="0 0 0 0 0 0 0 0 0 0 0 0 0 0 0 0 0 0 127 0" result="hardAlpha"/>
<feOffset dy="4"/>
<feGaussianBlur stdDeviation="4.5"/>
<feComposite in2="hardAlpha" operator="out"/>
<feColorMatrix type="matrix" values="0 0 0 0 0 0 0 0 0 0 0 0 0 0 0 0 0 0 0.1 0"/>
<feBlend mode="normal" in2="BackgroundImageFix" result="effect1_dropShadow_43_818"/>
<feBlend mode="normal" in="SourceGraphic" in2="effect1_dropShadow_43_818" result="shape"/>
</filter>
<filter id="filter1_d_43_818" x="589" y="611" width="261" height="76" filterUnits="userSpaceOnUse" color-interpolation-filters="sRGB">
<feFlood flood-opacity="0" result="BackgroundImageFix"/>
<feColorMatrix in="SourceAlpha" type="matrix" values="0 0 0 0 0 0 0 0 0 0 0 0 0 0 0 0 0 0 127 0" result="hardAlpha"/>
<feOffset dy="6"/>
<feGaussianBlur stdDeviation="0.5"/>
<feComposite in2="hardAlpha" operator="out"/>
<feColorMatrix type="matrix" values="0 0 0 0 0.944674 0 0 0 0 0.508724 0 0 0 0 0.734215 0 0 0 1 0"/>
<feBlend mode="normal" in2="BackgroundImageFix" result="effect1_dropShadow_43_818"/>
<feBlend mode="normal" in="SourceGraphic" in2="effect1_dropShadow_43_818" result="shape"/>
</filter>
<filter id="filter2_d_43_818" x="1326" y="15" width="97" height="50" filterUnits="userSpaceOnUse" color-interpolation-filters="sRGB">
<feFlood flood-opacity="0" result="BackgroundImageFix"/>
<feColorMatrix in="SourceAlpha" type="matrix" values="0 0 0 0 0 0 0 0 0 0 0 0 0 0 0 0 0 0 127 0" result="hardAlpha"/>
<feOffset dy="5"/>
<feGaussianBlur stdDeviation="0.5"/>
<feComposite in2="hardAlpha" operator="out"/>
<feColorMatrix type="matrix" values="0 0 0 0 0.944674 0 0 0 0 0.508724 0 0 0 0 0.734215 0 0 0 1 0"/>
<feBlend mode="normal" in2="BackgroundImageFix" result="effect1_dropShadow_43_818"/>
<feBlend mode="normal" in="SourceGraphic" in2="effect1_dropShadow_43_818" result="shape"/>
</filter>
<linearGradient id="paint0_linear_43_818" x1="720.5" y1="248" x2="720.5" y2="775" gradientUnits="userSpaceOnUse">
<stop stop-color="#F6EFFF"/>
<stop offset="1" stop-color="#D0DCFF"/>
</linearGradient>
<linearGradient id="paint1_linear_43_818" x1="0" y1="36.5" x2="1440" y2="36.5" gradientUnits="userSpaceOnUse">
<stop stop-color="#FFAB67"/>
<stop offset="0.25" stop-color="#FE50AA"/>
<stop offset="0.379808" stop-color="#A64DE2"/>
<stop offset="0.509615" stop-color="#1570B3"/>
<stop offset="0.663462" stop-color="#C64BFF"/>
<stop offset="0.802885" stop-color="#FE50AA"/>
<stop offset="1" stop-color="#FFAB67"/>
</linearGradient>
<linearGradient id="paint2_linear_43_818" x1="595" y1="37" x2="843" y2="37" gradientUnits="userSpaceOnUse">
<stop stop-color="#8C5498"/>
<stop offset="0.221154" stop-color="#FE50AA"/>
<stop offset="0.471154" stop-color="#FFAB67"/>
<stop offset="0.778846" stop-color="#FE50AA"/>
<stop offset="1" stop-color="#1A5885"/>
</linearGradient>
<clipPath id="clip0_43_818">
<rect width="1440" height="1024" fill="white"/>
</clipPath>
</defs>
</svg>
