<svg width="92" height="15" viewBox="0 0 92 15" fill="none" xmlns="http://www.w3.org/2000/svg">
<path d="M11.5337 0.19893V14.7444H9.82919L1.90305 3.32393H1.76101V14.7444H-0.000355005V0.19893H1.70419L9.65874 11.6478H9.80078V0.19893H11.5337ZM19.4048 14.9717C18.3537 14.9717 17.447 14.7396 16.6847 14.2756C15.9271 13.8069 15.3423 13.1535 14.9304 12.3154C14.5232 11.4726 14.3196 10.4925 14.3196 9.37507C14.3196 8.25764 14.5232 7.27279 14.9304 6.42052C15.3423 5.56351 15.9152 4.8959 16.6491 4.41768C17.3878 3.93473 18.2495 3.69325 19.2344 3.69325C19.8026 3.69325 20.3636 3.78795 20.9176 3.97734C21.4716 4.16673 21.9759 4.4745 22.4304 4.90063C22.8849 5.32204 23.2472 5.88075 23.517 6.57677C23.7869 7.27279 23.9219 8.1298 23.9219 9.14779V9.85802H15.5128V8.40916H22.2173C22.2173 7.79363 22.0942 7.24438 21.848 6.76143C21.6065 6.27848 21.2609 5.89732 20.8111 5.61796C20.366 5.33861 19.8404 5.19893 19.2344 5.19893C18.5668 5.19893 17.9891 5.36465 17.5014 5.69609C17.0185 6.02279 16.6468 6.44893 16.3864 6.9745C16.1259 7.50007 15.9957 8.06351 15.9957 8.66484V9.63075C15.9957 10.4546 16.1378 11.153 16.4219 11.7259C16.7107 12.2941 17.1108 12.7273 17.6222 13.0256C18.1335 13.3192 18.7277 13.466 19.4048 13.466C19.8452 13.466 20.2429 13.4044 20.598 13.2813C20.9579 13.1535 21.268 12.9641 21.5284 12.7131C21.7888 12.4575 21.9901 12.1402 22.1321 11.7614L23.7514 12.216C23.581 12.7652 23.2945 13.2482 22.892 13.6648C22.4896 14.0768 21.9924 14.3987 21.4006 14.6307C20.8087 14.858 20.1435 14.9717 19.4048 14.9717ZM28.9432 14.7444L25.6193 3.83529H27.3807L29.7386 12.1876H29.8523L32.1818 3.83529H33.9716L36.2727 12.1592H36.3864L38.7443 3.83529H40.5057L37.1818 14.7444H35.5341L33.1477 6.3637H32.9773L30.5909 14.7444H28.9432ZM58.517 4.74438C58.3608 4.26616 58.1548 3.83766 57.8991 3.45887C57.6482 3.07535 57.3475 2.74865 56.9972 2.47876C56.6515 2.20887 56.2585 2.00291 55.8182 1.86086C55.3778 1.71882 54.8949 1.64779 54.3693 1.64779C53.5076 1.64779 52.724 1.87033 52.0185 2.31541C51.313 2.76048 50.7519 3.41626 50.3352 4.28274C49.9186 5.14921 49.7102 6.21219 49.7102 7.47166C49.7102 8.73113 49.9209 9.7941 50.3423 10.6606C50.7637 11.5271 51.3343 12.1828 52.054 12.6279C52.7737 13.073 53.5833 13.2955 54.483 13.2955C55.3163 13.2955 56.0502 13.118 56.6847 12.7629C57.3239 12.403 57.821 11.8964 58.1761 11.243C58.536 10.5848 58.7159 9.81067 58.7159 8.92052L59.2557 9.03416H54.8807V7.47166H60.4205V9.03416C60.4205 10.2321 60.1648 11.2737 59.6534 12.1592C59.1468 13.0446 58.446 13.7311 57.5511 14.2188C56.661 14.7018 55.6383 14.9432 54.483 14.9432C53.1951 14.9432 52.0634 14.6402 51.0881 14.0342C50.1174 13.4281 49.3598 12.5664 48.8153 11.4489C48.2756 10.3315 48.0057 9.00575 48.0057 7.47166C48.0057 6.32109 48.1596 5.28652 48.4673 4.36796C48.7798 3.44467 49.2202 2.65868 49.7884 2.01001C50.3565 1.36134 51.0289 0.864176 51.8054 0.518532C52.5819 0.172888 53.4366 6.60419e-05 54.3693 6.60419e-05C55.1364 6.60419e-05 55.8513 0.11607 56.5142 0.348077C57.1818 0.57535 57.776 0.899687 58.2969 1.32109C58.8224 1.73776 59.2604 2.23728 59.6108 2.81967C59.9612 3.39732 60.2027 4.03889 60.3352 4.74438H58.517ZM63.2099 14.7444V3.83529H64.8292V5.48302H64.9428C65.1417 4.94325 65.5015 4.50527 66.0224 4.1691C66.5432 3.83293 67.1303 3.66484 67.7837 3.66484C67.9068 3.66484 68.0607 3.66721 68.2454 3.67194C68.43 3.67668 68.5697 3.68378 68.6644 3.69325V5.39779C68.6076 5.38359 68.4774 5.36228 68.2738 5.33387C68.0749 5.30073 67.8642 5.28416 67.6417 5.28416C67.1114 5.28416 66.6379 5.39543 66.2212 5.61796C65.8093 5.83577 65.4826 6.1388 65.2411 6.52705C65.0044 6.91058 64.886 7.34855 64.886 7.84098V14.7444H63.2099ZM73.8615 15.0001C73.1702 15.0001 72.5429 14.8699 71.9794 14.6094C71.416 14.3443 70.9685 13.9631 70.6371 13.466C70.3056 12.9641 70.1399 12.358 70.1399 11.6478C70.1399 11.0228 70.263 10.5162 70.5092 10.1279C70.7554 9.73491 71.0845 9.42715 71.4964 9.20461C71.9084 8.98207 72.3629 8.81635 72.8601 8.70745C73.362 8.59382 73.8662 8.50385 74.3729 8.43757C75.0357 8.35234 75.5732 8.28842 75.9851 8.2458C76.4018 8.19846 76.7048 8.12033 76.8942 8.01143C77.0883 7.90253 77.1854 7.71313 77.1854 7.44325V7.38643C77.1854 6.68567 76.9936 6.14116 76.6101 5.75291C76.2313 5.36465 75.656 5.17052 74.8842 5.17052C74.084 5.17052 73.4567 5.34571 73.0021 5.69609C72.5476 6.04647 72.228 6.42052 72.0433 6.81825L70.4524 6.25007C70.7365 5.58719 71.1153 5.07109 71.5888 4.70177C72.067 4.32772 72.5878 4.0673 73.1513 3.92052C73.7195 3.76901 74.2782 3.69325 74.8274 3.69325C75.1778 3.69325 75.5803 3.73586 76.0348 3.82109C76.4941 3.90158 76.9368 4.06967 77.3629 4.32535C77.7938 4.58103 78.1513 4.96692 78.4354 5.48302C78.7195 5.99912 78.8615 6.69041 78.8615 7.55688V14.7444H77.1854V13.2671H77.1001C76.9865 13.5039 76.7971 13.7572 76.532 14.0271C76.2668 14.2969 75.9141 14.5266 75.4737 14.716C75.0334 14.9054 74.496 15.0001 73.8615 15.0001ZM74.1172 13.4944C74.7801 13.4944 75.3388 13.3642 75.7933 13.1038C76.2526 12.8433 76.5982 12.5072 76.8303 12.0952C77.067 11.6833 77.1854 11.2501 77.1854 10.7955V9.26143C77.1143 9.34666 76.9581 9.42478 76.7166 9.4958C76.4799 9.56209 76.2053 9.62128 75.8928 9.67336C75.585 9.72071 75.2843 9.76332 74.9908 9.8012C74.7019 9.83435 74.4676 9.86276 74.2876 9.88643C73.852 9.94325 73.4448 10.0356 73.0661 10.1634C72.692 10.2865 72.389 10.4736 72.157 10.7245C71.9297 10.9707 71.8161 11.3069 71.8161 11.733C71.8161 12.3154 72.0315 12.7557 72.4624 13.054C72.898 13.3476 73.4496 13.4944 74.1172 13.4944ZM86.0401 14.9717C85.131 14.9717 84.3285 14.742 83.6325 14.2827C82.9364 13.8187 82.3919 13.1653 81.9989 12.3225C81.6059 11.475 81.4094 10.4736 81.4094 9.31825C81.4094 8.17241 81.6059 7.1781 81.9989 6.33529C82.3919 5.49249 82.9388 4.84145 83.6396 4.38217C84.3403 3.92289 85.15 3.69325 86.0685 3.69325C86.7788 3.69325 87.3398 3.81162 87.7518 4.04836C88.1684 4.28037 88.4857 4.54552 88.7035 4.84382C88.926 5.13738 89.0988 5.37885 89.2219 5.56825H89.364V0.19893H91.0401V14.7444H89.4208V13.0682H89.2219C89.0988 13.2671 88.9237 13.5181 88.6964 13.8211C88.4691 14.1194 88.1448 14.3869 87.7234 14.6236C87.302 14.8557 86.7409 14.9717 86.0401 14.9717ZM86.2674 13.466C86.9397 13.466 87.5079 13.2908 87.9719 12.9404C88.436 12.5853 88.7887 12.0952 89.0302 11.4702C89.2717 10.8405 89.3924 10.1137 89.3924 9.28984C89.3924 8.47544 89.274 7.76285 89.0373 7.15205C88.8005 6.53652 88.4502 6.05831 87.9862 5.7174C87.5221 5.37175 86.9492 5.19893 86.2674 5.19893C85.5572 5.19893 84.9653 5.38122 84.4918 5.7458C84.0231 6.10565 83.6703 6.59571 83.4336 7.21598C83.2016 7.83151 83.0856 8.52279 83.0856 9.28984C83.0856 10.0664 83.204 10.7718 83.4407 11.4063C83.6822 12.0361 84.0373 12.5379 84.506 12.912C84.9795 13.2813 85.5666 13.466 86.2674 13.466Z" fill="black"/>
</svg>
