<svg width="102" height="15" viewBox="0 0 102 15" fill="none" xmlns="http://www.w3.org/2000/svg">
<path d="M8.57919 3.83529C8.49396 3.1156 8.14832 2.55688 7.54226 2.15916C6.9362 1.76143 6.19283 1.56257 5.31214 1.56257C4.66821 1.56257 4.10476 1.66673 3.6218 1.87507C3.14358 2.0834 2.76953 2.36986 2.49964 2.73444C2.23449 3.09902 2.10192 3.51332 2.10192 3.97734C2.10192 4.3656 2.19425 4.6994 2.37891 4.97876C2.5683 5.25338 2.80978 5.48302 3.10334 5.66768C3.3969 5.8476 3.70466 5.99675 4.02663 6.11512C4.3486 6.22876 4.64453 6.32109 4.91442 6.39211L6.39169 6.78984C6.77048 6.88927 7.19188 7.02658 7.65589 7.20177C8.12464 7.37696 8.57209 7.61607 8.99822 7.9191C9.4291 8.2174 9.78421 8.60092 10.0636 9.06967C10.3429 9.53842 10.4826 10.1137 10.4826 10.7955C10.4826 11.5815 10.2766 12.2917 9.8647 12.9262C9.4575 13.5607 8.86091 14.0649 8.07493 14.439C7.29368 14.813 6.34434 15.0001 5.22692 15.0001C4.18525 15.0001 3.28326 14.832 2.52095 14.4958C1.76338 14.1596 1.16679 13.6909 0.731179 13.0896C0.300308 12.4882 0.0564631 11.7898 -0.00035508 10.9944H1.81783C1.86518 11.5436 2.04983 11.9982 2.3718 12.358C2.69851 12.7131 3.11044 12.9783 3.6076 13.1535C4.10949 13.3239 4.64927 13.4092 5.22692 13.4092C5.89927 13.4092 6.50296 13.3003 7.038 13.0825C7.57304 12.8599 7.9968 12.5521 8.3093 12.1592C8.6218 11.7614 8.77805 11.2974 8.77805 10.7671C8.77805 10.2842 8.64311 9.89116 8.37322 9.58813C8.10334 9.2851 7.74822 9.03889 7.30788 8.8495C6.86754 8.6601 6.39169 8.49438 5.88033 8.35234L4.09055 7.84098C2.95419 7.51427 2.05457 7.04789 1.39169 6.44183C0.728812 5.83577 0.397372 5.04268 0.397372 4.06257C0.397372 3.24817 0.617543 2.53794 1.05788 1.93188C1.50296 1.32109 2.09955 0.847604 2.84766 0.51143C3.6005 0.170521 4.44093 6.60419e-05 5.36896 6.60419e-05C6.30646 6.60419e-05 7.1398 0.168153 7.86896 0.504327C8.59813 0.835766 9.17578 1.29031 9.60192 1.86796C10.0328 2.44562 10.2601 3.10139 10.2837 3.83529H8.57919ZM17.7251 14.9717C16.674 14.9717 15.7673 14.7396 15.005 14.2756C14.2474 13.8069 13.6626 13.1535 13.2507 12.3154C12.8435 11.4726 12.6399 10.4925 12.6399 9.37507C12.6399 8.25764 12.8435 7.27279 13.2507 6.42052C13.6626 5.56351 14.2356 4.8959 14.9695 4.41768C15.7081 3.93473 16.5698 3.69325 17.5547 3.69325C18.1229 3.69325 18.6839 3.78795 19.2379 3.97734C19.7919 4.16673 20.2962 4.4745 20.7507 4.90063C21.2053 5.32204 21.5675 5.88075 21.8374 6.57677C22.1072 7.27279 22.2422 8.1298 22.2422 9.14779V9.85802H13.8331V8.40916H20.5376C20.5376 7.79363 20.4145 7.24438 20.1683 6.76143C19.9268 6.27848 19.5812 5.89732 19.1314 5.61796C18.6863 5.33861 18.1607 5.19893 17.5547 5.19893C16.8871 5.19893 16.3094 5.36465 15.8217 5.69609C15.3388 6.02279 14.9671 6.44893 14.7067 6.9745C14.4463 7.50007 14.3161 8.06351 14.3161 8.66484V9.63075C14.3161 10.4546 14.4581 11.153 14.7422 11.7259C15.031 12.2941 15.4311 12.7273 15.9425 13.0256C16.4538 13.3192 17.0481 13.466 17.7251 13.466C18.1655 13.466 18.5632 13.4044 18.9183 13.2813C19.2782 13.1535 19.5883 12.9641 19.8487 12.7131C20.1091 12.4575 20.3104 12.1402 20.4524 11.7614L22.0717 12.216C21.9013 12.7652 21.6148 13.2482 21.2124 13.6648C20.8099 14.0768 20.3127 14.3987 19.7209 14.6307C19.129 14.858 18.4638 14.9717 17.7251 14.9717ZM26.468 0.19893V14.7444H24.7919V0.19893H26.468ZM34.1119 14.9717C33.0607 14.9717 32.154 14.7396 31.3917 14.2756C30.6341 13.8069 30.0494 13.1535 29.6374 12.3154C29.2302 11.4726 29.0266 10.4925 29.0266 9.37507C29.0266 8.25764 29.2302 7.27279 29.6374 6.42052C30.0494 5.56351 30.6223 4.8959 31.3562 4.41768C32.0948 3.93473 32.9566 3.69325 33.9414 3.69325C34.5096 3.69325 35.0707 3.78795 35.6246 3.97734C36.1786 4.16673 36.6829 4.4745 37.1374 4.90063C37.592 5.32204 37.9542 5.88075 38.2241 6.57677C38.494 7.27279 38.6289 8.1298 38.6289 9.14779V9.85802H30.2198V8.40916H36.9244C36.9244 7.79363 36.8013 7.24438 36.555 6.76143C36.3136 6.27848 35.9679 5.89732 35.5181 5.61796C35.073 5.33861 34.5475 5.19893 33.9414 5.19893C33.2738 5.19893 32.6961 5.36465 32.2085 5.69609C31.7255 6.02279 31.3538 6.44893 31.0934 6.9745C30.833 7.50007 30.7028 8.06351 30.7028 8.66484V9.63075C30.7028 10.4546 30.8448 11.153 31.1289 11.7259C31.4177 12.2941 31.8178 12.7273 32.3292 13.0256C32.8406 13.3192 33.4348 13.466 34.1119 13.466C34.5522 13.466 34.9499 13.4044 35.305 13.2813C35.6649 13.1535 35.975 12.9641 36.2354 12.7131C36.4959 12.4575 36.6971 12.1402 36.8391 11.7614L38.4585 12.216C38.288 12.7652 38.0015 13.2482 37.5991 13.6648C37.1966 14.0768 36.6995 14.3987 36.1076 14.6307C35.5157 14.858 34.8505 14.9717 34.1119 14.9717ZM45.6104 14.9717C44.5877 14.9717 43.707 14.7302 42.9684 14.2472C42.2298 13.7643 41.6616 13.099 41.2638 12.2515C40.8661 11.4039 40.6673 10.4357 40.6673 9.34666C40.6673 8.2387 40.8709 7.26096 41.2781 6.41342C41.69 5.56115 42.2629 4.8959 42.9968 4.41768C43.7354 3.93473 44.5972 3.69325 45.582 3.69325C46.3491 3.69325 47.0404 3.83529 47.6559 4.11938C48.2714 4.40348 48.7757 4.8012 49.1687 5.31257C49.5617 5.82393 49.8055 6.42052 49.9002 7.10234H48.2241C48.0962 6.60518 47.8121 6.16484 47.3718 5.78132C46.9362 5.39306 46.3491 5.19893 45.6104 5.19893C44.957 5.19893 44.3841 5.36938 43.8917 5.71029C43.404 6.04647 43.0228 6.52232 42.7482 7.13785C42.4783 7.74865 42.3434 8.46598 42.3434 9.28984C42.3434 10.1326 42.476 10.8665 42.7411 11.4915C43.011 12.1165 43.3898 12.6019 43.8775 12.9475C44.3699 13.2932 44.9476 13.466 45.6104 13.466C46.046 13.466 46.4414 13.3902 46.7965 13.2387C47.1516 13.0872 47.4523 12.8694 47.6985 12.5853C47.9447 12.3012 48.1199 11.9603 48.2241 11.5626H49.9002C49.8055 12.2065 49.5711 12.7865 49.1971 13.3026C48.8278 13.814 48.3377 14.2212 47.7269 14.5242C47.1209 14.8225 46.4154 14.9717 45.6104 14.9717ZM57.0948 3.83529V5.25575H51.4414V3.83529H57.0948ZM53.0891 1.22166H54.7653V11.6194C54.7653 12.0929 54.8339 12.448 54.9712 12.6847C55.1133 12.9167 55.2932 13.073 55.511 13.1535C55.7335 13.2292 55.9679 13.2671 56.2141 13.2671C56.3988 13.2671 56.5503 13.2576 56.6687 13.2387C56.7871 13.215 56.8817 13.1961 56.9528 13.1819L57.2937 14.6876C57.18 14.7302 57.0214 14.7728 56.8178 14.8154C56.6142 14.8628 56.3562 14.8864 56.0437 14.8864C55.5702 14.8864 55.1062 14.7846 54.6516 14.581C54.2018 14.3774 53.8278 14.0673 53.5295 13.6506C53.2359 13.234 53.0891 12.7084 53.0891 12.0739V1.22166ZM77.7411 7.47166C77.7411 9.00575 77.4641 10.3315 76.9102 11.4489C76.3562 12.5664 75.5962 13.4281 74.6303 14.0342C73.6644 14.6402 72.5612 14.9432 71.3207 14.9432C70.0801 14.9432 68.9769 14.6402 68.011 14.0342C67.0451 13.4281 66.2852 12.5664 65.7312 11.4489C65.1772 10.3315 64.9002 9.00575 64.9002 7.47166C64.9002 5.93757 65.1772 4.61181 65.7312 3.49438C66.2852 2.37696 67.0451 1.51522 68.011 0.909157C68.9769 0.303096 70.0801 6.60419e-05 71.3207 6.60419e-05C72.5612 6.60419e-05 73.6644 0.303096 74.6303 0.909157C75.5962 1.51522 76.3562 2.37696 76.9102 3.49438C77.4641 4.61181 77.7411 5.93757 77.7411 7.47166ZM76.0366 7.47166C76.0366 6.21219 75.8259 5.14921 75.4045 4.28274C74.9878 3.41626 74.422 2.76048 73.707 2.31541C72.9968 1.87033 72.2013 1.64779 71.3207 1.64779C70.44 1.64779 69.6422 1.87033 68.9272 2.31541C68.217 2.76048 67.6512 3.41626 67.2298 4.28274C66.8131 5.14921 66.6048 6.21219 66.6048 7.47166C66.6048 8.73113 66.8131 9.7941 67.2298 10.6606C67.6512 11.5271 68.217 12.1828 68.9272 12.6279C69.6422 13.073 70.44 13.2955 71.3207 13.2955C72.2013 13.2955 72.9968 13.073 73.707 12.6279C74.422 12.1828 74.9878 11.5271 75.4045 10.6606C75.8259 9.7941 76.0366 8.73113 76.0366 7.47166ZM82.1516 8.18188V14.7444H80.4755V3.83529H82.0948V5.53984H82.2369C82.4925 4.98586 82.8808 4.54079 83.4016 4.20461C83.9225 3.8637 84.5948 3.69325 85.4187 3.69325C86.1573 3.69325 86.8036 3.84476 87.3576 4.14779C87.9116 4.44609 88.3424 4.90063 88.6502 5.51143C88.958 6.11749 89.1119 6.88454 89.1119 7.81257V14.7444H87.4357V7.9262C87.4357 7.0692 87.2132 6.40158 86.7681 5.92336C86.323 5.44041 85.7122 5.19893 84.9357 5.19893C84.4007 5.19893 83.9225 5.31493 83.5011 5.54694C83.0844 5.77895 82.7553 6.11749 82.5138 6.56257C82.2724 7.00764 82.1516 7.54741 82.1516 8.18188ZM96.7486 14.9717C95.6974 14.9717 94.7907 14.7396 94.0284 14.2756C93.2708 13.8069 92.6861 13.1535 92.2741 12.3154C91.867 11.4726 91.6634 10.4925 91.6634 9.37507C91.6634 8.25764 91.867 7.27279 92.2741 6.42052C92.6861 5.56351 93.259 4.8959 93.9929 4.41768C94.7315 3.93473 95.5933 3.69325 96.5781 3.69325C97.1463 3.69325 97.7074 3.78795 98.2614 3.97734C98.8153 4.16673 99.3196 4.4745 99.7741 4.90063C100.229 5.32204 100.591 5.88075 100.861 6.57677C101.131 7.27279 101.266 8.1298 101.266 9.14779V9.85802H92.8565V8.40916H99.5611C99.5611 7.79363 99.438 7.24438 99.1918 6.76143C98.9503 6.27848 98.6046 5.89732 98.1548 5.61796C97.7098 5.33861 97.1842 5.19893 96.5781 5.19893C95.9105 5.19893 95.3329 5.36465 94.8452 5.69609C94.3622 6.02279 93.9905 6.44893 93.7301 6.9745C93.4697 7.50007 93.3395 8.06351 93.3395 8.66484V9.63075C93.3395 10.4546 93.4815 11.153 93.7656 11.7259C94.0545 12.2941 94.4545 12.7273 94.9659 13.0256C95.4773 13.3192 96.0715 13.466 96.7486 13.466C97.1889 13.466 97.5866 13.4044 97.9418 13.2813C98.3016 13.1535 98.6117 12.9641 98.8722 12.7131C99.1326 12.4575 99.3338 12.1402 99.4759 11.7614L101.095 12.216C100.925 12.7652 100.638 13.2482 100.236 13.6648C99.8333 14.0768 99.3362 14.3987 98.7443 14.6307C98.1525 14.858 97.4872 14.9717 96.7486 14.9717Z" fill="#A4A4A4"/>
</svg>
