<svg width="73" height="15" viewBox="0 0 73 15" fill="none" xmlns="http://www.w3.org/2000/svg">
<path d="M8.57919 3.83529C8.49396 3.1156 8.14832 2.55688 7.54226 2.15916C6.9362 1.76143 6.19283 1.56257 5.31214 1.56257C4.66821 1.56257 4.10476 1.66673 3.6218 1.87507C3.14358 2.0834 2.76953 2.36986 2.49964 2.73444C2.23449 3.09902 2.10192 3.51332 2.10192 3.97734C2.10192 4.3656 2.19425 4.6994 2.37891 4.97876C2.5683 5.25338 2.80978 5.48302 3.10334 5.66768C3.3969 5.8476 3.70466 5.99675 4.02663 6.11512C4.3486 6.22876 4.64453 6.32109 4.91442 6.39211L6.39169 6.78984C6.77048 6.88927 7.19188 7.02658 7.65589 7.20177C8.12464 7.37696 8.57209 7.61607 8.99822 7.9191C9.4291 8.2174 9.78421 8.60092 10.0636 9.06967C10.3429 9.53842 10.4826 10.1137 10.4826 10.7955C10.4826 11.5815 10.2766 12.2917 9.8647 12.9262C9.4575 13.5607 8.86091 14.0649 8.07493 14.439C7.29368 14.813 6.34434 15.0001 5.22692 15.0001C4.18525 15.0001 3.28326 14.832 2.52095 14.4958C1.76338 14.1596 1.16679 13.6909 0.731179 13.0896C0.300308 12.4882 0.0564631 11.7898 -0.00035508 10.9944H1.81783C1.86518 11.5436 2.04983 11.9982 2.3718 12.358C2.69851 12.7131 3.11044 12.9783 3.6076 13.1535C4.10949 13.3239 4.64927 13.4092 5.22692 13.4092C5.89927 13.4092 6.50296 13.3003 7.038 13.0825C7.57304 12.8599 7.9968 12.5521 8.3093 12.1592C8.6218 11.7614 8.77805 11.2974 8.77805 10.7671C8.77805 10.2842 8.64311 9.89116 8.37322 9.58813C8.10334 9.2851 7.74822 9.03889 7.30788 8.8495C6.86754 8.6601 6.39169 8.49438 5.88033 8.35234L4.09055 7.84098C2.95419 7.51427 2.05457 7.04789 1.39169 6.44183C0.728812 5.83577 0.397372 5.04268 0.397372 4.06257C0.397372 3.24817 0.617543 2.53794 1.05788 1.93188C1.50296 1.32109 2.09955 0.847604 2.84766 0.51143C3.6005 0.170521 4.44093 6.60419e-05 5.36896 6.60419e-05C6.30646 6.60419e-05 7.1398 0.168153 7.86896 0.504327C8.59813 0.835766 9.17578 1.29031 9.60192 1.86796C10.0328 2.44562 10.2601 3.10139 10.2837 3.83529H8.57919ZM17.8956 3.83529V5.25575H12.2422V3.83529H17.8956ZM13.8899 1.22166H15.5661V11.6194C15.5661 12.0929 15.6347 12.448 15.772 12.6847C15.9141 12.9167 16.094 13.073 16.3118 13.1535C16.5343 13.2292 16.7687 13.2671 17.0149 13.2671C17.1996 13.2671 17.3511 13.2576 17.4695 13.2387C17.5878 13.215 17.6825 13.1961 17.7536 13.1819L18.0945 14.6876C17.9808 14.7302 17.8222 14.7728 17.6186 14.8154C17.415 14.8628 17.157 14.8864 16.8445 14.8864C16.371 14.8864 15.907 14.7846 15.4524 14.581C15.0026 14.3774 14.6286 14.0673 14.3303 13.6506C14.0367 13.234 13.8899 12.7084 13.8899 12.0739V1.22166ZM27.2919 10.2842V3.83529H28.968V14.7444H27.2919V12.8978H27.1783C26.9226 13.4518 26.5249 13.9229 25.9851 14.3111C25.4453 14.6947 24.7635 14.8864 23.9396 14.8864C23.2578 14.8864 22.6518 14.7373 22.1214 14.439C21.5911 14.136 21.1745 13.6814 20.8714 13.0754C20.5684 12.4646 20.4169 11.6951 20.4169 10.7671V3.83529H22.093V10.6535C22.093 11.4489 22.3156 12.0834 22.7607 12.5569C23.2105 13.0304 23.7834 13.2671 24.4794 13.2671C24.8961 13.2671 25.3198 13.1606 25.7507 12.9475C26.1863 12.7344 26.5509 12.4077 26.8445 11.9674C27.1428 11.5271 27.2919 10.966 27.2919 10.2842ZM36.1573 14.9717C35.2482 14.9717 34.4457 14.742 33.7496 14.2827C33.0536 13.8187 32.5091 13.1653 32.1161 12.3225C31.7231 11.475 31.5266 10.4736 31.5266 9.31825C31.5266 8.17241 31.7231 7.1781 32.1161 6.33529C32.5091 5.49249 33.056 4.84145 33.7567 4.38217C34.4575 3.92289 35.2672 3.69325 36.1857 3.69325C36.896 3.69325 37.457 3.81162 37.869 4.04836C38.2856 4.28037 38.6029 4.54552 38.8207 4.84382C39.0432 5.13738 39.216 5.37885 39.3391 5.56825H39.4812V0.19893H41.1573V14.7444H39.538V13.0682H39.3391C39.216 13.2671 39.0408 13.5181 38.8136 13.8211C38.5863 14.1194 38.262 14.3869 37.8406 14.6236C37.4192 14.8557 36.8581 14.9717 36.1573 14.9717ZM36.3846 13.466C37.0569 13.466 37.6251 13.2908 38.0891 12.9404C38.5531 12.5853 38.9059 12.0952 39.1474 11.4702C39.3888 10.8405 39.5096 10.1137 39.5096 9.28984C39.5096 8.47544 39.3912 7.76285 39.1545 7.15205C38.9177 6.53652 38.5674 6.05831 38.1033 5.7174C37.6393 5.37175 37.0664 5.19893 36.3846 5.19893C35.6744 5.19893 35.0825 5.38122 34.609 5.7458C34.1403 6.10565 33.7875 6.59571 33.5508 7.21598C33.3188 7.83151 33.2028 8.52279 33.2028 9.28984C33.2028 10.0664 33.3211 10.7718 33.5579 11.4063C33.7994 12.0361 34.1545 12.5379 34.6232 12.912C35.0967 13.2813 35.6838 13.466 36.3846 13.466ZM49.0337 14.9717C47.9826 14.9717 47.0759 14.7396 46.3136 14.2756C45.556 13.8069 44.9712 13.1535 44.5593 12.3154C44.1521 11.4726 43.9485 10.4925 43.9485 9.37507C43.9485 8.25764 44.1521 7.27279 44.5593 6.42052C44.9712 5.56351 45.5442 4.8959 46.2781 4.41768C47.0167 3.93473 47.8784 3.69325 48.8633 3.69325C49.4315 3.69325 49.9925 3.78795 50.5465 3.97734C51.1005 4.16673 51.6048 4.4745 52.0593 4.90063C52.5138 5.32204 52.8761 5.88075 53.146 6.57677C53.4158 7.27279 53.5508 8.1298 53.5508 9.14779V9.85802H45.1417V8.40916H51.8462C51.8462 7.79363 51.7231 7.24438 51.4769 6.76143C51.2354 6.27848 50.8898 5.89732 50.44 5.61796C49.9949 5.33861 49.4693 5.19893 48.8633 5.19893C48.1957 5.19893 47.618 5.36465 47.1303 5.69609C46.6474 6.02279 46.2757 6.44893 46.0153 6.9745C45.7549 7.50007 45.6246 8.06351 45.6246 8.66484V9.63075C45.6246 10.4546 45.7667 11.153 46.0508 11.7259C46.3396 12.2941 46.7397 12.7273 47.2511 13.0256C47.7624 13.3192 48.3567 13.466 49.0337 13.466C49.4741 13.466 49.8718 13.4044 50.2269 13.2813C50.5868 13.1535 50.8969 12.9641 51.1573 12.7131C51.4177 12.4575 51.619 12.1402 51.761 11.7614L53.3803 12.216C53.2099 12.7652 52.9234 13.2482 52.521 13.6648C52.1185 14.0768 51.6213 14.3987 51.0295 14.6307C50.4376 14.858 49.7724 14.9717 49.0337 14.9717ZM57.7766 8.18188V14.7444H56.1005V3.83529H57.7198V5.53984H57.8619C58.1175 4.98586 58.5058 4.54079 59.0266 4.20461C59.5475 3.8637 60.2198 3.69325 61.0437 3.69325C61.7823 3.69325 62.4286 3.84476 62.9826 4.14779C63.5366 4.44609 63.9674 4.90063 64.2752 5.51143C64.583 6.11749 64.7369 6.88454 64.7369 7.81257V14.7444H63.0607V7.9262C63.0607 7.0692 62.8382 6.40158 62.3931 5.92336C61.948 5.44041 61.3372 5.19893 60.5607 5.19893C60.0257 5.19893 59.5475 5.31493 59.1261 5.54694C58.7094 5.77895 58.3803 6.11749 58.1388 6.56257C57.8974 7.00764 57.7766 7.54741 57.7766 8.18188ZM72.544 3.83529V5.25575H66.8906V3.83529H72.544ZM68.5384 1.22166H70.2145V11.6194C70.2145 12.0929 70.2831 12.448 70.4205 12.6847C70.5625 12.9167 70.7424 13.073 70.9602 13.1535C71.1828 13.2292 71.4171 13.2671 71.6634 13.2671C71.848 13.2671 71.9995 13.2576 72.1179 13.2387C72.2363 13.215 72.331 13.1961 72.402 13.1819L72.7429 14.6876C72.6293 14.7302 72.4706 14.7728 72.267 14.8154C72.0634 14.8628 71.8054 14.8864 71.4929 14.8864C71.0194 14.8864 70.5554 14.7846 70.1009 14.581C69.651 14.3774 69.277 14.0673 68.9787 13.6506C68.6851 13.234 68.5384 12.7084 68.5384 12.0739V1.22166Z" fill="black"/>
</svg>
