<svg width="563" height="102" viewBox="0 0 563 102" fill="none" xmlns="http://www.w3.org/2000/svg">
<g clip-path="url(#clip0_4_175)">
<rect width="563" height="102" rx="19" fill="white"/>
<rect y="-5" width="563" height="101" rx="9" fill="white"/>
<path d="M24.7159 19.0909C24.6307 18.3712 24.285 17.8125 23.679 17.4148C23.0729 17.017 22.3295 16.8182 21.4489 16.8182C20.8049 16.8182 20.2415 16.9223 19.7585 17.1307C19.2803 17.339 18.9063 17.6255 18.6364 17.9901C18.3712 18.3546 18.2386 18.7689 18.2386 19.233C18.2386 19.6212 18.331 19.955 18.5156 20.2344C18.705 20.509 18.9465 20.7386 19.2401 20.9233C19.5336 21.1032 19.8414 21.2524 20.1634 21.3707C20.4853 21.4844 20.7812 21.5767 21.0511 21.6477L22.5284 22.0455C22.9072 22.1449 23.3286 22.2822 23.7926 22.4574C24.2614 22.6326 24.7088 22.8717 25.1349 23.1747C25.5658 23.473 25.9209 23.8565 26.2003 24.3253C26.4796 24.794 26.6193 25.3693 26.6193 26.0511C26.6193 26.8371 26.4134 27.5473 26.0014 28.1818C25.5942 28.8163 24.9976 29.3205 24.2116 29.6946C23.4304 30.0687 22.4811 30.2557 21.3636 30.2557C20.322 30.2557 19.42 30.0876 18.6577 29.7514C17.9001 29.4152 17.3035 28.9465 16.8679 28.3452C16.437 27.7438 16.1932 27.0455 16.1364 26.25H17.9545C18.0019 26.7992 18.1866 27.2538 18.5085 27.6136C18.8352 27.9687 19.2472 28.2339 19.7443 28.4091C20.2462 28.5795 20.786 28.6648 21.3636 28.6648C22.036 28.6648 22.6397 28.5559 23.1747 28.3381C23.7098 28.1155 24.1335 27.8078 24.446 27.4148C24.7585 27.017 24.9148 26.553 24.9148 26.0227C24.9148 25.5398 24.7798 25.1468 24.5099 24.8438C24.2401 24.5407 23.8849 24.2945 23.4446 24.1051C23.0043 23.9157 22.5284 23.75 22.017 23.608L20.2273 23.0966C19.0909 22.7699 18.1913 22.3035 17.5284 21.6974C16.8655 21.0914 16.5341 20.2983 16.5341 19.3182C16.5341 18.5038 16.7543 17.7936 17.1946 17.1875C17.6397 16.5767 18.2363 16.1032 18.9844 15.767C19.7372 15.4261 20.5777 15.2557 21.5057 15.2557C22.4432 15.2557 23.2765 15.4238 24.0057 15.7599C24.7348 16.0914 25.3125 16.5459 25.7386 17.1236C26.1695 17.7012 26.3968 18.357 26.4205 19.0909H24.7159ZM34.0323 19.0909V20.5114H28.3789V19.0909H34.0323ZM30.0266 16.4773H31.7028V26.875C31.7028 27.3485 31.7714 27.7036 31.9087 27.9403C32.0508 28.1723 32.2307 28.3286 32.4485 28.4091C32.671 28.4848 32.9054 28.5227 33.1516 28.5227C33.3363 28.5227 33.4878 28.5133 33.6062 28.4943C33.7246 28.4706 33.8192 28.4517 33.8903 28.4375L34.2312 29.9432C34.1175 29.9858 33.9589 30.0284 33.7553 30.071C33.5517 30.1184 33.2937 30.142 32.9812 30.142C32.5077 30.142 32.0437 30.0402 31.5891 29.8366C31.1393 29.633 30.7653 29.3229 30.467 28.9062C30.1734 28.4896 30.0266 27.964 30.0266 27.3295V16.4773ZM43.4286 25.5398V19.0909H45.1048V30H43.4286V28.1534H43.315C43.0593 28.7074 42.6616 29.1785 42.1218 29.5668C41.582 29.9503 40.9002 30.142 40.0763 30.142C39.3945 30.142 38.7885 29.9929 38.2582 29.6946C37.7279 29.3916 37.3112 28.937 37.0082 28.331C36.7051 27.7202 36.5536 26.9508 36.5536 26.0227V19.0909H38.2298V25.9091C38.2298 26.7045 38.4523 27.339 38.8974 27.8125C39.3472 28.286 39.9201 28.5227 40.6161 28.5227C41.0328 28.5227 41.4566 28.4162 41.8874 28.2031C42.323 27.9901 42.6876 27.6634 42.9812 27.223C43.2795 26.7827 43.4286 26.2216 43.4286 25.5398ZM52.294 30.2273C51.3849 30.2273 50.5824 29.9976 49.8864 29.5384C49.1903 29.0743 48.6458 28.4209 48.2528 27.5781C47.8598 26.7306 47.6634 25.7292 47.6634 24.5739C47.6634 23.428 47.8598 22.4337 48.2528 21.5909C48.6458 20.7481 49.1927 20.0971 49.8935 19.6378C50.5942 19.1785 51.4039 18.9489 52.3224 18.9489C53.0327 18.9489 53.5938 19.0672 54.0057 19.304C54.4223 19.536 54.7396 19.8011 54.9574 20.0994C55.1799 20.393 55.3527 20.6345 55.4759 20.8239H55.6179V15.4545H57.294V30H55.6747V28.3239H55.4759C55.3527 28.5227 55.1776 28.7737 54.9503 29.0767C54.723 29.375 54.3987 29.6425 53.9773 29.8793C53.5559 30.1113 52.9948 30.2273 52.294 30.2273ZM52.5213 28.7216C53.1937 28.7216 53.7618 28.5464 54.2259 28.196C54.6899 27.8409 55.0426 27.3509 55.2841 26.7259C55.5256 26.0961 55.6463 25.3693 55.6463 24.5455C55.6463 23.7311 55.5279 23.0185 55.2912 22.4077C55.0545 21.7921 54.7041 21.3139 54.2401 20.973C53.776 20.6274 53.2031 20.4545 52.5213 20.4545C51.8111 20.4545 51.2192 20.6368 50.7457 21.0014C50.277 21.3613 49.9242 21.8513 49.6875 22.4716C49.4555 23.0871 49.3395 23.7784 49.3395 24.5455C49.3395 25.322 49.4579 26.0275 49.6946 26.6619C49.9361 27.2917 50.2912 27.7936 50.7599 28.1676C51.2334 28.5369 51.8205 28.7216 52.5213 28.7216ZM65.1705 30.2273C64.1193 30.2273 63.2126 29.9953 62.4503 29.5312C61.6927 29.0625 61.108 28.4091 60.696 27.571C60.2888 26.7282 60.0852 25.7481 60.0852 24.6307C60.0852 23.5133 60.2888 22.5284 60.696 21.6761C61.108 20.8191 61.6809 20.1515 62.4148 19.6733C63.1534 19.1903 64.0152 18.9489 65 18.9489C65.5682 18.9489 66.1293 19.0436 66.6832 19.233C67.2372 19.4223 67.7415 19.7301 68.196 20.1562C68.6506 20.5777 69.0128 21.1364 69.2827 21.8324C69.5526 22.5284 69.6875 23.3854 69.6875 24.4034V25.1136H61.2784V23.6648H67.983C67.983 23.0492 67.8598 22.5 67.6136 22.017C67.3722 21.5341 67.0265 21.1529 66.5767 20.8736C66.1316 20.5942 65.6061 20.4545 65 20.4545C64.3324 20.4545 63.7547 20.6203 63.267 20.9517C62.7841 21.2784 62.4124 21.7045 62.152 22.2301C61.8916 22.7557 61.7614 23.3191 61.7614 23.9205V24.8864C61.7614 25.7102 61.9034 26.4086 62.1875 26.9815C62.4763 27.5497 62.8764 27.983 63.3878 28.2812C63.8991 28.5748 64.4934 28.7216 65.1705 28.7216C65.6108 28.7216 66.0085 28.66 66.3636 28.5369C66.7235 28.4091 67.0336 28.2197 67.294 27.9688C67.5545 27.7131 67.7557 27.3958 67.8977 27.017L69.517 27.4716C69.3466 28.0208 69.0601 28.5038 68.6577 28.9205C68.2552 29.3324 67.758 29.6544 67.1662 29.8864C66.5743 30.1136 65.9091 30.2273 65.1705 30.2273ZM73.9134 23.4375V30H72.2372V19.0909H73.8565V20.7955H73.9986C74.2543 20.2415 74.6425 19.7964 75.1634 19.4602C75.6842 19.1193 76.3565 18.9489 77.1804 18.9489C77.919 18.9489 78.5653 19.1004 79.1193 19.4034C79.6733 19.7017 80.1042 20.1562 80.4119 20.767C80.7197 21.3731 80.8736 22.1402 80.8736 23.0682V30H79.1974V23.1818C79.1974 22.3248 78.9749 21.6572 78.5298 21.179C78.0848 20.696 77.474 20.4545 76.6974 20.4545C76.1624 20.4545 75.6842 20.5705 75.2628 20.8026C74.8461 21.0346 74.517 21.3731 74.2756 21.8182C74.0341 22.2633 73.9134 22.803 73.9134 23.4375ZM88.6808 19.0909V20.5114H83.0273V19.0909H88.6808ZM84.6751 16.4773H86.3512V26.875C86.3512 27.3485 86.4199 27.7036 86.5572 27.9403C86.6992 28.1723 86.8791 28.3286 87.0969 28.4091C87.3195 28.4848 87.5539 28.5227 87.8001 28.5227C87.9847 28.5227 88.1362 28.5133 88.2546 28.4943C88.373 28.4706 88.4677 28.4517 88.5387 28.4375L88.8796 29.9432C88.766 29.9858 88.6074 30.0284 88.4038 30.071C88.2002 30.1184 87.9421 30.142 87.6296 30.142C87.1561 30.142 86.6921 30.0402 86.2376 29.8366C85.7878 29.633 85.4137 29.3229 85.1154 28.9062C84.8219 28.4896 84.6751 27.964 84.6751 27.3295V16.4773Z" fill="black"/>
<path d="M28.2955 63.4545V78H26.5909L18.6648 66.5795H18.5227V78H16.7614V63.4545H18.4659L26.4205 74.9034H26.5625V63.4545H28.2955ZM36.1665 78.2273C35.1154 78.2273 34.2087 77.9953 33.4464 77.5312C32.6888 77.0625 32.104 76.4091 31.6921 75.571C31.2849 74.7282 31.0813 73.7481 31.0813 72.6307C31.0813 71.5133 31.2849 70.5284 31.6921 69.6761C32.104 68.8191 32.677 68.1515 33.4109 67.6733C34.1495 67.1903 35.0112 66.9489 35.9961 66.9489C36.5643 66.9489 37.1254 67.0436 37.6793 67.233C38.2333 67.4223 38.7376 67.7301 39.1921 68.1562C39.6467 68.5777 40.0089 69.1364 40.2788 69.8324C40.5487 70.5284 40.6836 71.3854 40.6836 72.4034V73.1136H32.2745V71.6648H38.979C38.979 71.0492 38.8559 70.5 38.6097 70.017C38.3683 69.5341 38.0226 69.1529 37.5728 68.8736C37.1277 68.5942 36.6022 68.4545 35.9961 68.4545C35.3285 68.4545 34.7508 68.6203 34.2631 68.9517C33.7802 69.2784 33.4085 69.7045 33.1481 70.2301C32.8877 70.7557 32.7575 71.3191 32.7575 71.9205V72.8864C32.7575 73.7102 32.8995 74.4086 33.1836 74.9815C33.4724 75.5497 33.8725 75.983 34.3839 76.2812C34.8952 76.5748 35.4895 76.7216 36.1665 76.7216C36.6069 76.7216 37.0046 76.66 37.3597 76.5369C37.7196 76.4091 38.0297 76.2197 38.2901 75.9688C38.5505 75.7131 38.7518 75.3958 38.8938 75.017L40.5131 75.4716C40.3427 76.0208 40.0562 76.5038 39.6538 76.9205C39.2513 77.3324 38.7541 77.6544 38.1623 77.8864C37.5704 78.1136 36.9052 78.2273 36.1665 78.2273ZM45.7049 78L42.381 67.0909H44.1424L46.5004 75.4432H46.614L48.9435 67.0909H50.7333L53.0344 75.4148H53.1481L55.506 67.0909H57.2674L53.9435 78H52.2958L49.9094 69.6193H49.739L47.3526 78H45.7049ZM75.2788 68C75.1225 67.5218 74.9165 67.0933 74.6609 66.7145C74.4099 66.331 74.1093 66.0043 73.7589 65.7344C73.4132 65.4645 73.0202 65.2585 72.5799 65.1165C72.1396 64.9744 71.6566 64.9034 71.131 64.9034C70.2693 64.9034 69.4857 65.1259 68.7802 65.571C68.0747 66.0161 67.5136 66.6719 67.0969 67.5384C66.6803 68.4048 66.4719 69.4678 66.4719 70.7273C66.4719 71.9867 66.6826 73.0497 67.104 73.9162C67.5254 74.7827 68.096 75.4384 68.8157 75.8835C69.5354 76.3286 70.3451 76.5511 71.2447 76.5511C72.078 76.5511 72.8119 76.3736 73.4464 76.0185C74.0856 75.6586 74.5827 75.152 74.9379 74.4986C75.2977 73.8404 75.4776 73.0663 75.4776 72.1761L76.0174 72.2898H71.6424V70.7273H77.1822V72.2898C77.1822 73.4877 76.9265 74.5294 76.4151 75.4148C75.9085 76.3002 75.2077 76.9867 74.3129 77.4744C73.4227 77.9574 72.4 78.1989 71.2447 78.1989C69.9568 78.1989 68.8252 77.8958 67.8498 77.2898C66.8791 76.6837 66.1216 75.822 65.5771 74.7045C65.0373 73.5871 64.7674 72.2614 64.7674 70.7273C64.7674 69.5767 64.9213 68.5421 65.229 67.6236C65.5415 66.7003 65.9819 65.9143 66.5501 65.2656C67.1183 64.617 67.7906 64.1198 68.5671 63.7741C69.3436 63.4285 70.1983 63.2557 71.131 63.2557C71.8981 63.2557 72.613 63.3717 73.2759 63.6037C73.9435 63.831 74.5378 64.1553 75.0586 64.5767C75.5842 64.9934 76.0221 65.4929 76.3725 66.0753C76.7229 66.6529 76.9644 67.2945 77.0969 68H75.2788ZM79.9716 78V67.0909H81.5909V68.7386H81.7045C81.9034 68.1989 82.2633 67.7609 82.7841 67.4247C83.3049 67.0885 83.892 66.9205 84.5455 66.9205C84.6686 66.9205 84.8224 66.9228 85.0071 66.9276C85.1918 66.9323 85.3314 66.9394 85.4261 66.9489V68.6534C85.3693 68.6392 85.2391 68.6179 85.0355 68.5895C84.8366 68.5563 84.6259 68.5398 84.4034 68.5398C83.8731 68.5398 83.3996 68.651 82.983 68.8736C82.571 69.0914 82.2443 69.3944 82.0028 69.7827C81.7661 70.1662 81.6477 70.6042 81.6477 71.0966V78H79.9716ZM90.6232 78.2557C89.9319 78.2557 89.3046 78.1255 88.7411 77.8651C88.1777 77.5999 87.7302 77.2188 87.3988 76.7216C87.0674 76.2197 86.9016 75.6136 86.9016 74.9034C86.9016 74.2784 87.0247 73.7718 87.271 73.3835C87.5172 72.9905 87.8462 72.6828 88.2582 72.4602C88.6701 72.2377 89.1246 72.072 89.6218 71.9631C90.1237 71.8494 90.628 71.7595 91.1346 71.6932C91.7975 71.608 92.3349 71.544 92.7468 71.5014C93.1635 71.4541 93.4665 71.3759 93.6559 71.267C93.85 71.1581 93.9471 70.9687 93.9471 70.6989V70.642C93.9471 69.9413 93.7553 69.3968 93.3718 69.0085C92.993 68.6203 92.4177 68.4261 91.646 68.4261C90.8458 68.4261 90.2184 68.6013 89.7638 68.9517C89.3093 69.3021 88.9897 69.6761 88.805 70.0739L87.2141 69.5057C87.4982 68.8428 87.877 68.3267 88.3505 67.9574C88.8287 67.5833 89.3496 67.3229 89.913 67.1761C90.4812 67.0246 91.0399 66.9489 91.5891 66.9489C91.9395 66.9489 92.342 66.9915 92.7965 67.0767C93.2558 67.1572 93.6985 67.3253 94.1246 67.581C94.5555 67.8366 94.913 68.2225 95.1971 68.7386C95.4812 69.2547 95.6232 69.946 95.6232 70.8125V78H93.9471V76.5227H93.8619C93.7482 76.7595 93.5588 77.0128 93.2937 77.2827C93.0285 77.5526 92.6758 77.7822 92.2354 77.9716C91.7951 78.161 91.2577 78.2557 90.6232 78.2557ZM90.8789 76.75C91.5418 76.75 92.1005 76.6198 92.555 76.3594C93.0143 76.099 93.36 75.7628 93.592 75.3509C93.8287 74.9389 93.9471 74.5057 93.9471 74.0511V72.517C93.8761 72.6023 93.7198 72.6804 93.4783 72.7514C93.2416 72.8177 92.967 72.8769 92.6545 72.929C92.3467 72.9763 92.046 73.0189 91.7525 73.0568C91.4637 73.09 91.2293 73.1184 91.0494 73.142C90.6138 73.1989 90.2066 73.2912 89.8278 73.419C89.4537 73.5421 89.1507 73.7292 88.9187 73.9801C88.6914 74.2263 88.5778 74.5625 88.5778 74.9886C88.5778 75.571 88.7932 76.0114 89.2241 76.3097C89.6597 76.6032 90.2113 76.75 90.8789 76.75ZM102.802 78.2273C101.893 78.2273 101.09 77.9976 100.394 77.5384C99.6982 77.0743 99.1536 76.4209 98.7607 75.5781C98.3677 74.7306 98.1712 73.7292 98.1712 72.5739C98.1712 71.428 98.3677 70.4337 98.7607 69.5909C99.1536 68.7481 99.7005 68.0971 100.401 67.6378C101.102 67.1785 101.912 66.9489 102.83 66.9489C103.54 66.9489 104.102 67.0672 104.513 67.304C104.93 67.536 105.247 67.8011 105.465 68.0994C105.688 68.393 105.861 68.6345 105.984 68.8239H106.126V63.4545H107.802V78H106.183V76.3239H105.984C105.861 76.5227 105.685 76.7737 105.458 77.0767C105.231 77.375 104.906 77.6425 104.485 77.8793C104.064 78.1113 103.503 78.2273 102.802 78.2273ZM103.029 76.7216C103.701 76.7216 104.27 76.5464 104.734 76.196C105.198 75.8409 105.55 75.3509 105.792 74.7259C106.033 74.0961 106.154 73.3693 106.154 72.5455C106.154 71.7311 106.036 71.0185 105.799 70.4077C105.562 69.7921 105.212 69.3139 104.748 68.973C104.284 68.6274 103.711 68.4545 103.029 68.4545C102.319 68.4545 101.727 68.6368 101.254 69.0014C100.785 69.3613 100.432 69.8513 100.195 70.4716C99.9633 71.0871 99.8473 71.7784 99.8473 72.5455C99.8473 73.322 99.9657 74.0275 100.202 74.6619C100.444 75.2917 100.799 75.7936 101.268 76.1676C101.741 76.5369 102.328 76.7216 103.029 76.7216Z" fill="black"/>
<line y1="46.9" x2="563" y2="46.9" stroke="#A1A1A1" stroke-width="0.2"/>
</g>
<defs>
<clipPath id="clip0_4_175">
<rect width="563" height="102" rx="19" fill="white"/>
</clipPath>
</defs>
</svg>
