<svg width="563" height="181" viewBox="0 0 563 181" fill="none" xmlns="http://www.w3.org/2000/svg">
<g clip-path="url(#clip0_8_249)">
<rect width="563" height="181" rx="19" fill="white"/>
<rect y="-5" width="563" height="101" rx="9" fill="white"/>
<path d="M28.2955 15.4545V30H26.5909L18.6648 18.5795H18.5227V30H16.7614V15.4545H18.4659L26.4205 26.9034H26.5625V15.4545H28.2955ZM36.0245 30.2273C35.0397 30.2273 34.1755 29.9929 33.4322 29.5241C32.6935 29.0554 32.1159 28.3996 31.6992 27.5568C31.2873 26.714 31.0813 25.7292 31.0813 24.6023C31.0813 23.4659 31.2873 22.474 31.6992 21.6264C32.1159 20.7789 32.6935 20.1207 33.4322 19.652C34.1755 19.1832 35.0397 18.9489 36.0245 18.9489C37.0094 18.9489 37.8711 19.1832 38.6097 19.652C39.3531 20.1207 39.9308 20.7789 40.3427 21.6264C40.7594 22.474 40.9677 23.4659 40.9677 24.6023C40.9677 25.7292 40.7594 26.714 40.3427 27.5568C39.9308 28.3996 39.3531 29.0554 38.6097 29.5241C37.8711 29.9929 37.0094 30.2273 36.0245 30.2273ZM36.0245 28.7216C36.7726 28.7216 37.3881 28.5298 37.8711 28.1463C38.354 27.7628 38.7115 27.2585 38.9435 26.6335C39.1755 26.0085 39.2915 25.3314 39.2915 24.6023C39.2915 23.8731 39.1755 23.1937 38.9435 22.5639C38.7115 21.9342 38.354 21.4252 37.8711 21.0369C37.3881 20.6487 36.7726 20.4545 36.0245 20.4545C35.2764 20.4545 34.6609 20.6487 34.1779 21.0369C33.695 21.4252 33.3375 21.9342 33.1055 22.5639C32.8735 23.1937 32.7575 23.8731 32.7575 24.6023C32.7575 25.3314 32.8735 26.0085 33.1055 26.6335C33.3375 27.2585 33.695 27.7628 34.1779 28.1463C34.6609 28.5298 35.2764 28.7216 36.0245 28.7216ZM53.5831 30.2273C52.5604 30.2273 51.6797 29.9858 50.9411 29.5028C50.2024 29.0199 49.6342 28.3546 49.2365 27.5071C48.8388 26.6596 48.6399 25.6913 48.6399 24.6023C48.6399 23.4943 48.8435 22.5166 49.2507 21.669C49.6626 20.8168 50.2356 20.1515 50.9695 19.6733C51.7081 19.1903 52.5698 18.9489 53.5547 18.9489C54.3217 18.9489 55.013 19.0909 55.6286 19.375C56.2441 19.6591 56.7483 20.0568 57.1413 20.5682C57.5343 21.0795 57.7782 21.6761 57.8729 22.358H56.1967C56.0689 21.8608 55.7848 21.4205 55.3445 21.0369C54.9089 20.6487 54.3217 20.4545 53.5831 20.4545C52.9297 20.4545 52.3568 20.625 51.8643 20.9659C51.3767 21.3021 50.9955 21.7779 50.7209 22.3935C50.451 23.0043 50.3161 23.7216 50.3161 24.5455C50.3161 25.3883 50.4486 26.1222 50.7138 26.7472C50.9837 27.3722 51.3625 27.8575 51.8501 28.2031C52.3426 28.5488 52.9202 28.7216 53.5831 28.7216C54.0187 28.7216 54.4141 28.6458 54.7692 28.4943C55.1243 28.3428 55.425 28.125 55.6712 27.8409C55.9174 27.5568 56.0926 27.2159 56.1967 26.8182H57.8729C57.7782 27.4621 57.5438 28.0421 57.1697 28.5582C56.8004 29.0696 56.3104 29.4768 55.6996 29.7798C55.0935 30.0781 54.388 30.2273 53.5831 30.2273ZM61.9993 23.4375V30H60.3232V15.4545H61.9993V20.7955H62.1413C62.397 20.232 62.7805 19.7846 63.2919 19.4531C63.808 19.117 64.4946 18.9489 65.3516 18.9489C66.0949 18.9489 66.746 19.098 67.3047 19.3963C67.8634 19.6899 68.2966 20.142 68.6044 20.7528C68.9169 21.3589 69.0732 22.1307 69.0732 23.0682V30H67.397V23.1818C67.397 22.3153 67.1721 21.6454 66.7223 21.1719C66.2772 20.6937 65.6593 20.4545 64.8686 20.4545C64.3194 20.4545 63.8269 20.5705 63.3913 20.8026C62.9605 21.0346 62.6196 21.3731 62.3686 21.8182C62.1224 22.2633 61.9993 22.803 61.9993 23.4375ZM72.1396 30V19.0909H73.8157V30H72.1396ZM72.9918 17.2727C72.6651 17.2727 72.3834 17.1615 72.1467 16.9389C71.9147 16.7164 71.7987 16.4489 71.7987 16.1364C71.7987 15.8239 71.9147 15.5563 72.1467 15.3338C72.3834 15.1113 72.6651 15 72.9918 15C73.3185 15 73.5979 15.1113 73.8299 15.3338C74.0666 15.5563 74.185 15.8239 74.185 16.1364C74.185 16.4489 74.0666 16.7164 73.8299 16.9389C73.5979 17.1615 73.3185 17.2727 72.9918 17.2727ZM78.5618 15.4545V30H76.8857V15.4545H78.5618ZM85.7511 30.2273C84.842 30.2273 84.0394 29.9976 83.3434 29.5384C82.6474 29.0743 82.1029 28.4209 81.7099 27.5781C81.3169 26.7306 81.1204 25.7292 81.1204 24.5739C81.1204 23.428 81.3169 22.4337 81.7099 21.5909C82.1029 20.7481 82.6497 20.0971 83.3505 19.6378C84.0513 19.1785 84.8609 18.9489 85.7795 18.9489C86.4897 18.9489 87.0508 19.0672 87.4627 19.304C87.8794 19.536 88.1966 19.8011 88.4144 20.0994C88.637 20.393 88.8098 20.6345 88.9329 20.8239H89.0749V15.4545H90.7511V30H89.1317V28.3239H88.9329C88.8098 28.5227 88.6346 28.7737 88.4073 29.0767C88.18 29.375 87.8557 29.6425 87.4343 29.8793C87.0129 30.1113 86.4518 30.2273 85.7511 30.2273ZM85.9783 28.7216C86.6507 28.7216 87.2189 28.5464 87.6829 28.196C88.1469 27.8409 88.4996 27.3509 88.7411 26.7259C88.9826 26.0961 89.1033 25.3693 89.1033 24.5455C89.1033 23.7311 88.985 23.0185 88.7482 22.4077C88.5115 21.7921 88.1611 21.3139 87.6971 20.973C87.2331 20.6274 86.6602 20.4545 85.9783 20.4545C85.2681 20.4545 84.6763 20.6368 84.2028 21.0014C83.734 21.3613 83.3813 21.8513 83.1445 22.4716C82.9125 23.0871 82.7965 23.7784 82.7965 24.5455C82.7965 25.322 82.9149 26.0275 83.1516 26.6619C83.3931 27.2917 83.7482 27.7936 84.217 28.1676C84.6905 28.5369 85.2776 28.7216 85.9783 28.7216ZM94.0536 30V19.0909H95.6729V20.7386H95.7866C95.9854 20.1989 96.3453 19.7609 96.8661 19.4247C97.387 19.0885 97.9741 18.9205 98.6275 18.9205C98.7506 18.9205 98.9045 18.9228 99.0891 18.9276C99.2738 18.9323 99.4135 18.9394 99.5082 18.9489V20.6534C99.4513 20.6392 99.3211 20.6179 99.1175 20.5895C98.9187 20.5563 98.708 20.5398 98.4854 20.5398C97.9551 20.5398 97.4817 20.651 97.065 20.8736C96.6531 21.0914 96.3263 21.3944 96.0849 21.7827C95.8481 22.1662 95.7298 22.6042 95.7298 23.0966V30H94.0536ZM105.737 30.2273C104.686 30.2273 103.779 29.9953 103.017 29.5312C102.259 29.0625 101.674 28.4091 101.262 27.571C100.855 26.7282 100.652 25.7481 100.652 24.6307C100.652 23.5133 100.855 22.5284 101.262 21.6761C101.674 20.8191 102.247 20.1515 102.981 19.6733C103.72 19.1903 104.582 18.9489 105.566 18.9489C106.135 18.9489 106.696 19.0436 107.25 19.233C107.804 19.4223 108.308 19.7301 108.762 20.1562C109.217 20.5777 109.579 21.1364 109.849 21.8324C110.119 22.5284 110.254 23.3854 110.254 24.4034V25.1136H101.845V23.6648H108.549C108.549 23.0492 108.426 22.5 108.18 22.017C107.939 21.5341 107.593 21.1529 107.143 20.8736C106.698 20.5942 106.172 20.4545 105.566 20.4545C104.899 20.4545 104.321 20.6203 103.833 20.9517C103.35 21.2784 102.979 21.7045 102.718 22.2301C102.458 22.7557 102.328 23.3191 102.328 23.9205V24.8864C102.328 25.7102 102.47 26.4086 102.754 26.9815C103.043 27.5497 103.443 27.983 103.954 28.2812C104.466 28.5748 105.06 28.7216 105.737 28.7216C106.177 28.7216 106.575 28.66 106.93 28.5369C107.29 28.4091 107.6 28.2197 107.86 27.9688C108.121 27.7131 108.322 27.3958 108.464 27.017L110.083 27.4716C109.913 28.0208 109.627 28.5038 109.224 28.9205C108.822 29.3324 108.324 29.6544 107.733 29.8864C107.141 30.1136 106.475 30.2273 105.737 30.2273ZM114.48 23.4375V30H112.804V19.0909H114.423V20.7955H114.565C114.821 20.2415 115.209 19.7964 115.73 19.4602C116.251 19.1193 116.923 18.9489 117.747 18.9489C118.485 18.9489 119.132 19.1004 119.686 19.4034C120.24 19.7017 120.671 20.1562 120.978 20.767C121.286 21.3731 121.44 22.1402 121.44 23.0682V30H119.764V23.1818C119.764 22.3248 119.541 21.6572 119.096 21.179C118.651 20.696 118.04 20.4545 117.264 20.4545C116.729 20.4545 116.251 20.5705 115.829 20.8026C115.413 21.0346 115.083 21.3731 114.842 21.8182C114.6 22.2633 114.48 22.803 114.48 23.4375Z" fill="black"/>
<path d="M18.5227 63.4545V78H16.7614V63.4545H18.5227ZM23.5032 71.4375V78H21.8271V67.0909H23.4464V68.7955H23.5884C23.8441 68.2415 24.2324 67.7964 24.7532 67.4602C25.274 67.1193 25.9464 66.9489 26.7702 66.9489C27.5089 66.9489 28.1552 67.1004 28.7092 67.4034C29.2631 67.7017 29.694 68.1562 30.0018 68.767C30.3095 69.3731 30.4634 70.1402 30.4634 71.0682V78H28.7873V71.1818C28.7873 70.3248 28.5647 69.6572 28.1197 69.179C27.6746 68.696 27.0638 68.4545 26.2873 68.4545C25.7522 68.4545 25.274 68.5705 24.8526 68.8026C24.436 69.0346 24.1069 69.3731 23.8654 69.8182C23.6239 70.2633 23.5032 70.803 23.5032 71.4375ZM44.2365 63.4545V78H42.4751V65.3011H42.3899L38.8388 67.6591V65.8693L42.4751 63.4545H44.2365ZM54.6982 69.946V71.5085H48.3345V69.946H54.6982ZM62.2994 78.1989C61.3619 78.1989 60.5262 78.0379 59.7923 77.7159C59.0631 77.3939 58.4831 76.9465 58.0522 76.3736C57.6261 75.7959 57.3941 75.1259 57.3562 74.3636H59.146C59.1838 74.8324 59.3448 75.2372 59.6289 75.5781C59.913 75.9143 60.2847 76.1747 60.744 76.3594C61.2032 76.544 61.7122 76.6364 62.271 76.6364C62.896 76.6364 63.4499 76.5275 63.9329 76.3097C64.4158 76.0919 64.7946 75.7888 65.0692 75.4006C65.3439 75.0123 65.4812 74.5625 65.4812 74.0511C65.4812 73.5161 65.3486 73.045 65.0835 72.6378C64.8183 72.2259 64.43 71.9039 63.9187 71.6719C63.4073 71.4399 62.7823 71.3239 62.0437 71.3239H60.8789V69.7614H62.0437C62.6213 69.7614 63.128 69.6572 63.5636 69.4489C64.0039 69.2405 64.3472 68.947 64.5934 68.5682C64.8443 68.1894 64.9698 67.7443 64.9698 67.233C64.9698 66.7405 64.8609 66.312 64.6431 65.9474C64.4253 65.5829 64.1175 65.2988 63.7198 65.0952C63.3268 64.8916 62.8628 64.7898 62.3278 64.7898C61.8259 64.7898 61.3524 64.8821 60.9073 65.0668C60.467 65.2467 60.1071 65.5095 59.8278 65.8551C59.5484 66.196 59.3969 66.608 59.3732 67.0909H57.6687C57.6971 66.3286 57.9267 65.661 58.3576 65.0881C58.7885 64.5104 59.3519 64.0606 60.0479 63.7386C60.7487 63.4167 61.5181 63.2557 62.3562 63.2557C63.2558 63.2557 64.0276 63.438 64.6715 63.8026C65.3155 64.1624 65.8103 64.6383 66.1559 65.2301C66.5015 65.822 66.6744 66.4612 66.6744 67.1477C66.6744 67.9669 66.4589 68.6652 66.0281 69.2429C65.6019 69.8205 65.0219 70.2206 64.288 70.4432V70.5568C65.2066 70.7083 65.9239 71.099 66.44 71.7287C66.9561 72.3537 67.2141 73.1278 67.2141 74.0511C67.2141 74.8419 66.9987 75.5521 66.5678 76.1818C66.1417 76.8068 65.5593 77.2992 64.8207 77.6591C64.082 78.0189 63.2416 78.1989 62.2994 78.1989ZM76.8519 82.0909C76.5678 82.0909 76.3145 82.0672 76.092 82.0199C75.8694 81.9773 75.7156 81.9347 75.6303 81.892L76.0565 80.4148C76.4637 80.5189 76.8235 80.5568 77.136 80.5284C77.4485 80.5 77.7255 80.3603 77.967 80.1094C78.2132 79.8632 78.4381 79.4631 78.6417 78.9091L78.9542 78.0568L74.9201 67.0909H76.7383L79.7496 75.7841H79.8633L82.8746 67.0909H84.6928L80.0621 79.5909C79.8538 80.1544 79.5958 80.6207 79.288 80.9901C78.9802 81.3641 78.6228 81.6411 78.2156 81.821C77.8131 82.0009 77.3585 82.0909 76.8519 82.0909ZM91.0884 78.2273C90.0373 78.2273 89.1306 77.9953 88.3683 77.5312C87.6107 77.0625 87.0259 76.4091 86.614 75.571C86.2068 74.7282 86.0032 73.7481 86.0032 72.6307C86.0032 71.5133 86.2068 70.5284 86.614 69.6761C87.0259 68.8191 87.5988 68.1515 88.3327 67.6733C89.0714 67.1903 89.9331 66.9489 90.918 66.9489C91.4862 66.9489 92.0472 67.0436 92.6012 67.233C93.1552 67.4223 93.6594 67.7301 94.114 68.1562C94.5685 68.5777 94.9308 69.1364 95.2006 69.8324C95.4705 70.5284 95.6055 71.3854 95.6055 72.4034V73.1136H87.1964V71.6648H93.9009C93.9009 71.0492 93.7778 70.5 93.5316 70.017C93.2901 69.5341 92.9445 69.1529 92.4947 68.8736C92.0496 68.5942 91.524 68.4545 90.918 68.4545C90.2504 68.4545 89.6727 68.6203 89.185 68.9517C88.7021 69.2784 88.3304 69.7045 88.07 70.2301C87.8095 70.7557 87.6793 71.3191 87.6793 71.9205V72.8864C87.6793 73.7102 87.8214 74.4086 88.1055 74.9815C88.3943 75.5497 88.7944 75.983 89.3058 76.2812C89.8171 76.5748 90.4113 76.7216 91.0884 76.7216C91.5288 76.7216 91.9265 76.66 92.2816 76.5369C92.6415 76.4091 92.9516 76.2197 93.212 75.9688C93.4724 75.7131 93.6737 75.3958 93.8157 75.017L95.435 75.4716C95.2646 76.0208 94.9781 76.5038 94.5756 76.9205C94.1732 77.3324 93.676 77.6544 93.0842 77.8864C92.4923 78.1136 91.8271 78.2273 91.0884 78.2273ZM101.365 78.2557C100.674 78.2557 100.047 78.1255 99.4833 77.8651C98.9199 77.5999 98.4724 77.2188 98.141 76.7216C97.8095 76.2197 97.6438 75.6136 97.6438 74.9034C97.6438 74.2784 97.7669 73.7718 98.0131 73.3835C98.2594 72.9905 98.5884 72.6828 99.0004 72.4602C99.4123 72.2377 99.8668 72.072 100.364 71.9631C100.866 71.8494 101.37 71.7595 101.877 71.6932C102.54 71.608 103.077 71.544 103.489 71.5014C103.906 71.4541 104.209 71.3759 104.398 71.267C104.592 71.1581 104.689 70.9687 104.689 70.6989V70.642C104.689 69.9413 104.498 69.3968 104.114 69.0085C103.735 68.6203 103.16 68.4261 102.388 68.4261C101.588 68.4261 100.961 68.6013 100.506 68.9517C100.051 69.3021 99.7319 69.6761 99.5472 70.0739L97.9563 69.5057C98.2404 68.8428 98.6192 68.3267 99.0927 67.9574C99.5709 67.5833 100.092 67.3229 100.655 67.1761C101.223 67.0246 101.782 66.9489 102.331 66.9489C102.682 66.9489 103.084 66.9915 103.539 67.0767C103.998 67.1572 104.441 67.3253 104.867 67.581C105.298 67.8366 105.655 68.2225 105.939 68.7386C106.223 69.2547 106.365 69.946 106.365 70.8125V78H104.689V76.5227H104.604C104.49 76.7595 104.301 77.0128 104.036 77.2827C103.771 77.5526 103.418 77.7822 102.978 77.9716C102.537 78.161 102 78.2557 101.365 78.2557ZM101.621 76.75C102.284 76.75 102.843 76.6198 103.297 76.3594C103.757 76.099 104.102 75.7628 104.334 75.3509C104.571 74.9389 104.689 74.5057 104.689 74.0511V72.517C104.618 72.6023 104.462 72.6804 104.221 72.7514C103.984 72.8177 103.709 72.8769 103.397 72.929C103.089 72.9763 102.788 73.0189 102.495 73.0568C102.206 73.09 101.971 73.1184 101.792 73.142C101.356 73.1989 100.949 73.2912 100.57 73.419C100.196 73.5421 99.8929 73.7292 99.6609 73.9801C99.4336 74.2263 99.32 74.5625 99.32 74.9886C99.32 75.571 99.5354 76.0114 99.9663 76.3097C100.402 76.6032 100.953 76.75 101.621 76.75ZM109.425 78V67.0909H111.044V68.7386H111.158C111.357 68.1989 111.716 67.7609 112.237 67.4247C112.758 67.0885 113.345 66.9205 113.999 66.9205C114.122 66.9205 114.276 66.9228 114.46 66.9276C114.645 66.9323 114.785 66.9394 114.879 66.9489V68.6534C114.822 68.6392 114.692 68.6179 114.489 68.5895C114.29 68.5563 114.079 68.5398 113.857 68.5398C113.326 68.5398 112.853 68.651 112.436 68.8736C112.024 69.0914 111.697 69.3944 111.456 69.7827C111.219 70.1662 111.101 70.6042 111.101 71.0966V78H109.425ZM124.593 69.5341L123.088 69.9602C122.993 69.7093 122.853 69.4654 122.669 69.2287C122.489 68.9872 122.243 68.7884 121.93 68.6321C121.618 68.4759 121.217 68.3977 120.73 68.3977C120.062 68.3977 119.506 68.5516 119.061 68.8594C118.62 69.1624 118.4 69.5483 118.4 70.017C118.4 70.4337 118.552 70.7628 118.855 71.0043C119.158 71.2457 119.631 71.447 120.275 71.608L121.895 72.0057C122.87 72.2424 123.597 72.6046 124.075 73.0923C124.553 73.5753 124.792 74.1979 124.792 74.9602C124.792 75.5852 124.612 76.1439 124.252 76.6364C123.897 77.1288 123.4 77.517 122.761 77.8011C122.122 78.0852 121.378 78.2273 120.531 78.2273C119.418 78.2273 118.497 77.9858 117.768 77.5028C117.039 77.0199 116.577 76.3144 116.383 75.3864L117.974 74.9886C118.126 75.5758 118.412 76.0161 118.833 76.3097C119.26 76.6032 119.816 76.75 120.502 76.75C121.284 76.75 121.904 76.5843 122.363 76.2528C122.827 75.9167 123.059 75.5142 123.059 75.0455C123.059 74.6667 122.927 74.3494 122.662 74.0938C122.396 73.8333 121.989 73.6392 121.44 73.5114L119.622 73.0852C118.623 72.8485 117.889 72.4815 117.42 71.9844C116.956 71.4825 116.724 70.8551 116.724 70.1023C116.724 69.4867 116.897 68.9422 117.243 68.4688C117.593 67.9953 118.069 67.6236 118.67 67.3537C119.276 67.0838 119.963 66.9489 120.73 66.9489C121.809 66.9489 122.657 67.1856 123.272 67.6591C123.893 68.1326 124.333 68.7576 124.593 69.5341Z" fill="black"/>
<path d="M18.5227 107.455V122H16.7614V107.455H18.5227ZM23.5032 115.438V122H21.8271V111.091H23.4464V112.795H23.5884C23.8441 112.241 24.2324 111.796 24.7532 111.46C25.274 111.119 25.9464 110.949 26.7702 110.949C27.5089 110.949 28.1552 111.1 28.7092 111.403C29.2631 111.702 29.694 112.156 30.0018 112.767C30.3095 113.373 30.4634 114.14 30.4634 115.068V122H28.7873V115.182C28.7873 114.325 28.5647 113.657 28.1197 113.179C27.6746 112.696 27.0638 112.455 26.2873 112.455C25.7522 112.455 25.274 112.571 24.8526 112.803C24.436 113.035 24.1069 113.373 23.8654 113.818C23.6239 114.263 23.5032 114.803 23.5032 115.438ZM44.0376 122.199C43.1001 122.199 42.2644 122.038 41.5305 121.716C40.8014 121.394 40.2214 120.946 39.7905 120.374C39.3643 119.796 39.1323 119.126 39.0945 118.364H40.8842C40.9221 118.832 41.0831 119.237 41.3672 119.578C41.6513 119.914 42.023 120.175 42.4822 120.359C42.9415 120.544 43.4505 120.636 44.0092 120.636C44.6342 120.636 45.1882 120.527 45.6712 120.31C46.1541 120.092 46.5329 119.789 46.8075 119.401C47.0821 119.012 47.2195 118.562 47.2195 118.051C47.2195 117.516 47.0869 117.045 46.8217 116.638C46.5566 116.226 46.1683 115.904 45.657 115.672C45.1456 115.44 44.5206 115.324 43.782 115.324H42.6172V113.761H43.782C44.3596 113.761 44.8662 113.657 45.3018 113.449C45.7422 113.241 46.0855 112.947 46.3317 112.568C46.5826 112.189 46.7081 111.744 46.7081 111.233C46.7081 110.741 46.5992 110.312 46.3814 109.947C46.1636 109.583 45.8558 109.299 45.4581 109.095C45.0651 108.892 44.6011 108.79 44.0661 108.79C43.5642 108.79 43.0907 108.882 42.6456 109.067C42.2053 109.247 41.8454 109.509 41.5661 109.855C41.2867 110.196 41.1352 110.608 41.1115 111.091H39.407C39.4354 110.329 39.665 109.661 40.0959 109.088C40.5268 108.51 41.0902 108.061 41.7862 107.739C42.487 107.417 43.2564 107.256 44.0945 107.256C44.9941 107.256 45.7659 107.438 46.4098 107.803C47.0537 108.162 47.5485 108.638 47.8942 109.23C48.2398 109.822 48.4126 110.461 48.4126 111.148C48.4126 111.967 48.1972 112.665 47.7663 113.243C47.3402 113.821 46.7602 114.221 46.0263 114.443V114.557C46.9448 114.708 47.6622 115.099 48.1783 115.729C48.6944 116.354 48.9524 117.128 48.9524 118.051C48.9524 118.842 48.737 119.552 48.3061 120.182C47.88 120.807 47.2976 121.299 46.5589 121.659C45.8203 122.019 44.9799 122.199 44.0376 122.199ZM58.1357 113.946V115.509H51.772V113.946H58.1357ZM65.6019 122.199C64.7686 122.199 64.0181 122.033 63.3505 121.702C62.6829 121.37 62.1478 120.916 61.7454 120.338C61.3429 119.76 61.1228 119.102 61.0849 118.364H62.7894C62.8557 119.022 63.154 119.566 63.6843 119.997C64.2193 120.423 64.8585 120.636 65.6019 120.636C66.1985 120.636 66.7288 120.497 67.1928 120.217C67.6616 119.938 68.0285 119.554 68.2937 119.067C68.5636 118.574 68.6985 118.018 68.6985 117.398C68.6985 116.763 68.5588 116.197 68.2795 115.7C68.0049 115.198 67.6261 114.803 67.1431 114.514C66.6602 114.225 66.1085 114.079 65.4883 114.074C65.0432 114.069 64.5863 114.138 64.1175 114.28C63.6488 114.417 63.2629 114.595 62.9599 114.812L61.3121 114.614L62.1928 107.455H69.7496V109.017H63.6701L63.1587 113.307H63.244C63.5423 113.07 63.9163 112.874 64.3661 112.717C64.8159 112.561 65.2847 112.483 65.7724 112.483C66.6625 112.483 67.4556 112.696 68.1516 113.122C68.8524 113.544 69.4016 114.121 69.7994 114.855C70.2018 115.589 70.4031 116.427 70.4031 117.369C70.4031 118.297 70.1947 119.126 69.7781 119.855C69.3661 120.58 68.7979 121.152 68.0735 121.574C67.3491 121.991 66.5252 122.199 65.6019 122.199ZM79.9574 126.091C79.6733 126.091 79.42 126.067 79.1974 126.02C78.9749 125.977 78.821 125.935 78.7358 125.892L79.1619 124.415C79.5691 124.519 79.929 124.557 80.2415 124.528C80.554 124.5 80.831 124.36 81.0724 124.109C81.3187 123.863 81.5436 123.463 81.7472 122.909L82.0597 122.057L78.0256 111.091H79.8438L82.8551 119.784H82.9688L85.9801 111.091H87.7983L83.1676 123.591C82.9593 124.154 82.7012 124.621 82.3935 124.99C82.0857 125.364 81.7282 125.641 81.321 125.821C80.9186 126.001 80.464 126.091 79.9574 126.091ZM94.1939 122.227C93.1428 122.227 92.236 121.995 91.4737 121.531C90.7161 121.062 90.1314 120.409 89.7195 119.571C89.3123 118.728 89.1087 117.748 89.1087 116.631C89.1087 115.513 89.3123 114.528 89.7195 113.676C90.1314 112.819 90.7043 112.152 91.4382 111.673C92.1768 111.19 93.0386 110.949 94.0234 110.949C94.5916 110.949 95.1527 111.044 95.7067 111.233C96.2607 111.422 96.7649 111.73 97.2195 112.156C97.674 112.578 98.0362 113.136 98.3061 113.832C98.576 114.528 98.7109 115.385 98.7109 116.403V117.114H90.3018V115.665H97.0064C97.0064 115.049 96.8833 114.5 96.6371 114.017C96.3956 113.534 96.05 113.153 95.6001 112.874C95.1551 112.594 94.6295 112.455 94.0234 112.455C93.3558 112.455 92.7782 112.62 92.2905 112.952C91.8075 113.278 91.4358 113.705 91.1754 114.23C90.915 114.756 90.7848 115.319 90.7848 115.92V116.886C90.7848 117.71 90.9268 118.409 91.2109 118.982C91.4998 119.55 91.8999 119.983 92.4112 120.281C92.9226 120.575 93.5168 120.722 94.1939 120.722C94.6342 120.722 95.032 120.66 95.3871 120.537C95.7469 120.409 96.0571 120.22 96.3175 119.969C96.5779 119.713 96.7791 119.396 96.9212 119.017L98.5405 119.472C98.37 120.021 98.0836 120.504 97.6811 120.92C97.2786 121.332 96.7815 121.654 96.1896 121.886C95.5978 122.114 94.9325 122.227 94.1939 122.227ZM104.471 122.256C103.78 122.256 103.152 122.125 102.589 121.865C102.025 121.6 101.578 121.219 101.246 120.722C100.915 120.22 100.749 119.614 100.749 118.903C100.749 118.278 100.872 117.772 101.119 117.384C101.365 116.991 101.694 116.683 102.106 116.46C102.518 116.238 102.972 116.072 103.469 115.963C103.971 115.849 104.476 115.759 104.982 115.693C105.645 115.608 106.183 115.544 106.594 115.501C107.011 115.454 107.314 115.376 107.504 115.267C107.698 115.158 107.795 114.969 107.795 114.699V114.642C107.795 113.941 107.603 113.397 107.219 113.009C106.841 112.62 106.265 112.426 105.494 112.426C104.693 112.426 104.066 112.601 103.612 112.952C103.157 113.302 102.837 113.676 102.653 114.074L101.062 113.506C101.346 112.843 101.725 112.327 102.198 111.957C102.676 111.583 103.197 111.323 103.761 111.176C104.329 111.025 104.888 110.949 105.437 110.949C105.787 110.949 106.19 110.991 106.644 111.077C107.103 111.157 107.546 111.325 107.972 111.581C108.403 111.837 108.761 112.223 109.045 112.739C109.329 113.255 109.471 113.946 109.471 114.812V122H107.795V120.523H107.71C107.596 120.759 107.406 121.013 107.141 121.283C106.876 121.553 106.523 121.782 106.083 121.972C105.643 122.161 105.105 122.256 104.471 122.256ZM104.727 120.75C105.389 120.75 105.948 120.62 106.403 120.359C106.862 120.099 107.208 119.763 107.44 119.351C107.676 118.939 107.795 118.506 107.795 118.051V116.517C107.724 116.602 107.567 116.68 107.326 116.751C107.089 116.818 106.815 116.877 106.502 116.929C106.194 116.976 105.894 117.019 105.6 117.057C105.311 117.09 105.077 117.118 104.897 117.142C104.461 117.199 104.054 117.291 103.675 117.419C103.301 117.542 102.998 117.729 102.766 117.98C102.539 118.226 102.425 118.562 102.425 118.989C102.425 119.571 102.641 120.011 103.072 120.31C103.507 120.603 104.059 120.75 104.727 120.75ZM112.53 122V111.091H114.15V112.739H114.263C114.462 112.199 114.822 111.761 115.343 111.425C115.864 111.089 116.451 110.92 117.104 110.92C117.227 110.92 117.381 110.923 117.566 110.928C117.75 110.932 117.89 110.939 117.985 110.949V112.653C117.928 112.639 117.798 112.618 117.594 112.589C117.395 112.556 117.185 112.54 116.962 112.54C116.432 112.54 115.958 112.651 115.542 112.874C115.13 113.091 114.803 113.394 114.561 113.783C114.325 114.166 114.206 114.604 114.206 115.097V122H112.53ZM127.699 113.534L126.193 113.96C126.098 113.709 125.959 113.465 125.774 113.229C125.594 112.987 125.348 112.788 125.036 112.632C124.723 112.476 124.323 112.398 123.835 112.398C123.168 112.398 122.611 112.552 122.166 112.859C121.726 113.162 121.506 113.548 121.506 114.017C121.506 114.434 121.657 114.763 121.96 115.004C122.263 115.246 122.737 115.447 123.381 115.608L125 116.006C125.975 116.242 126.702 116.605 127.18 117.092C127.659 117.575 127.898 118.198 127.898 118.96C127.898 119.585 127.718 120.144 127.358 120.636C127.003 121.129 126.506 121.517 125.866 121.801C125.227 122.085 124.484 122.227 123.636 122.227C122.524 122.227 121.603 121.986 120.874 121.503C120.144 121.02 119.683 120.314 119.489 119.386L121.08 118.989C121.231 119.576 121.518 120.016 121.939 120.31C122.365 120.603 122.921 120.75 123.608 120.75C124.389 120.75 125.009 120.584 125.469 120.253C125.933 119.917 126.165 119.514 126.165 119.045C126.165 118.667 126.032 118.349 125.767 118.094C125.502 117.833 125.095 117.639 124.545 117.511L122.727 117.085C121.728 116.848 120.994 116.482 120.526 115.984C120.062 115.482 119.83 114.855 119.83 114.102C119.83 113.487 120.002 112.942 120.348 112.469C120.698 111.995 121.174 111.624 121.776 111.354C122.382 111.084 123.068 110.949 123.835 110.949C124.915 110.949 125.762 111.186 126.378 111.659C126.998 112.133 127.438 112.758 127.699 113.534Z" fill="black"/>
<path d="M18.5227 150.455V165H16.7614V150.455H18.5227ZM23.5032 158.438V165H21.8271V154.091H23.4464V155.795H23.5884C23.8441 155.241 24.2324 154.796 24.7532 154.46C25.274 154.119 25.9464 153.949 26.7702 153.949C27.5089 153.949 28.1552 154.1 28.7092 154.403C29.2631 154.702 29.694 155.156 30.0018 155.767C30.3095 156.373 30.4634 157.14 30.4634 158.068V165H28.7873V158.182C28.7873 157.325 28.5647 156.657 28.1197 156.179C27.6746 155.696 27.0638 155.455 26.2873 155.455C25.7522 155.455 25.274 155.571 24.8526 155.803C24.436 156.035 24.1069 156.373 23.8654 156.818C23.6239 157.263 23.5032 157.803 23.5032 158.438ZM43.6683 165.199C42.835 165.199 42.0845 165.033 41.4169 164.702C40.7493 164.37 40.2143 163.916 39.8118 163.338C39.4093 162.76 39.1892 162.102 39.1513 161.364H40.8558C40.9221 162.022 41.2204 162.566 41.7507 162.997C42.2857 163.423 42.925 163.636 43.6683 163.636C44.2649 163.636 44.7952 163.497 45.2592 163.217C45.728 162.938 46.0949 162.554 46.3601 162.067C46.63 161.574 46.7649 161.018 46.7649 160.398C46.7649 159.763 46.6252 159.197 46.3459 158.7C46.0713 158.198 45.6925 157.803 45.2095 157.514C44.7266 157.225 44.175 157.079 43.5547 157.074C43.1096 157.069 42.6527 157.138 42.1839 157.28C41.7152 157.417 41.3293 157.595 41.0263 157.812L39.3786 157.614L40.2592 150.455H47.8161V152.017H41.7365L41.2251 156.307H41.3104C41.6087 156.07 41.9827 155.874 42.4325 155.717C42.8823 155.561 43.3511 155.483 43.8388 155.483C44.7289 155.483 45.522 155.696 46.218 156.122C46.9188 156.544 47.468 157.121 47.8658 157.855C48.2682 158.589 48.4695 159.427 48.4695 160.369C48.4695 161.297 48.2611 162.126 47.8445 162.855C47.4325 163.58 46.8643 164.152 46.1399 164.574C45.4155 164.991 44.5916 165.199 43.6683 165.199ZM55.5806 162.443V153.068H57.1715V162.443H55.5806ZM51.6886 158.551V156.96H61.0636V158.551H51.6886ZM71.2074 169.091C70.9233 169.091 70.67 169.067 70.4474 169.02C70.2249 168.977 70.071 168.935 69.9858 168.892L70.4119 167.415C70.8191 167.519 71.179 167.557 71.4915 167.528C71.804 167.5 72.081 167.36 72.3224 167.109C72.5687 166.863 72.7936 166.463 72.9972 165.909L73.3097 165.057L69.2756 154.091H71.0938L74.1051 162.784H74.2188L77.2301 154.091H79.0483L74.4176 166.591C74.2093 167.154 73.9512 167.621 73.6435 167.99C73.3357 168.364 72.9782 168.641 72.571 168.821C72.1686 169.001 71.714 169.091 71.2074 169.091ZM85.4439 165.227C84.3928 165.227 83.486 164.995 82.7237 164.531C81.9661 164.062 81.3814 163.409 80.9695 162.571C80.5623 161.728 80.3587 160.748 80.3587 159.631C80.3587 158.513 80.5623 157.528 80.9695 156.676C81.3814 155.819 81.9543 155.152 82.6882 154.673C83.4268 154.19 84.2886 153.949 85.2734 153.949C85.8416 153.949 86.4027 154.044 86.9567 154.233C87.5107 154.422 88.0149 154.73 88.4695 155.156C88.924 155.578 89.2862 156.136 89.5561 156.832C89.826 157.528 89.9609 158.385 89.9609 159.403V160.114H81.5518V158.665H88.2564C88.2564 158.049 88.1333 157.5 87.8871 157.017C87.6456 156.534 87.3 156.153 86.8501 155.874C86.4051 155.594 85.8795 155.455 85.2734 155.455C84.6058 155.455 84.0282 155.62 83.5405 155.952C83.0575 156.278 82.6858 156.705 82.4254 157.23C82.165 157.756 82.0348 158.319 82.0348 158.92V159.886C82.0348 160.71 82.1768 161.409 82.4609 161.982C82.7498 162.55 83.1499 162.983 83.6612 163.281C84.1726 163.575 84.7668 163.722 85.4439 163.722C85.8842 163.722 86.282 163.66 86.6371 163.537C86.9969 163.409 87.3071 163.22 87.5675 162.969C87.8279 162.713 88.0291 162.396 88.1712 162.017L89.7905 162.472C89.62 163.021 89.3336 163.504 88.9311 163.92C88.5286 164.332 88.0315 164.654 87.4396 164.886C86.8478 165.114 86.1825 165.227 85.4439 165.227ZM95.7209 165.256C95.0296 165.256 94.4022 165.125 93.8388 164.865C93.2753 164.6 92.8279 164.219 92.4964 163.722C92.165 163.22 91.9993 162.614 91.9993 161.903C91.9993 161.278 92.1224 160.772 92.3686 160.384C92.6148 159.991 92.9439 159.683 93.3558 159.46C93.7678 159.238 94.2223 159.072 94.7195 158.963C95.2214 158.849 95.7256 158.759 96.2322 158.693C96.8951 158.608 97.4325 158.544 97.8445 158.501C98.2611 158.454 98.5642 158.376 98.7536 158.267C98.9477 158.158 99.0447 157.969 99.0447 157.699V157.642C99.0447 156.941 98.853 156.397 98.4695 156.009C98.0907 155.62 97.5154 155.426 96.7436 155.426C95.9434 155.426 95.3161 155.601 94.8615 155.952C94.407 156.302 94.0874 156.676 93.9027 157.074L92.3118 156.506C92.5959 155.843 92.9747 155.327 93.4482 154.957C93.9264 154.583 94.4472 154.323 95.0107 154.176C95.5788 154.025 96.1375 153.949 96.6868 153.949C97.0372 153.949 97.4396 153.991 97.8942 154.077C98.3535 154.157 98.7962 154.325 99.2223 154.581C99.6532 154.837 100.011 155.223 100.295 155.739C100.579 156.255 100.721 156.946 100.721 157.812V165H99.0447V163.523H98.9595C98.8459 163.759 98.6565 164.013 98.3913 164.283C98.1262 164.553 97.7734 164.782 97.3331 164.972C96.8928 165.161 96.3554 165.256 95.7209 165.256ZM95.9766 163.75C96.6394 163.75 97.1982 163.62 97.6527 163.359C98.112 163.099 98.4576 162.763 98.6896 162.351C98.9264 161.939 99.0447 161.506 99.0447 161.051V159.517C98.9737 159.602 98.8175 159.68 98.576 159.751C98.3393 159.818 98.0646 159.877 97.7521 159.929C97.4444 159.976 97.1437 160.019 96.8501 160.057C96.5613 160.09 96.3269 160.118 96.147 160.142C95.7114 160.199 95.3042 160.291 94.9254 160.419C94.5514 160.542 94.2483 160.729 94.0163 160.98C93.7891 161.226 93.6754 161.562 93.6754 161.989C93.6754 162.571 93.8909 163.011 94.3217 163.31C94.7573 163.603 95.3089 163.75 95.9766 163.75ZM103.78 165V154.091H105.4V155.739H105.513C105.712 155.199 106.072 154.761 106.593 154.425C107.114 154.089 107.701 153.92 108.354 153.92C108.477 153.92 108.631 153.923 108.816 153.928C109 153.932 109.14 153.939 109.235 153.949V155.653C109.178 155.639 109.048 155.618 108.844 155.589C108.645 155.556 108.435 155.54 108.212 155.54C107.682 155.54 107.208 155.651 106.792 155.874C106.38 156.091 106.053 156.394 105.811 156.783C105.575 157.166 105.456 157.604 105.456 158.097V165H103.78ZM118.949 156.534L117.443 156.96C117.348 156.709 117.209 156.465 117.024 156.229C116.844 155.987 116.598 155.788 116.286 155.632C115.973 155.476 115.573 155.398 115.085 155.398C114.418 155.398 113.861 155.552 113.416 155.859C112.976 156.162 112.756 156.548 112.756 157.017C112.756 157.434 112.907 157.763 113.21 158.004C113.513 158.246 113.987 158.447 114.631 158.608L116.25 159.006C117.225 159.242 117.952 159.605 118.43 160.092C118.909 160.575 119.148 161.198 119.148 161.96C119.148 162.585 118.968 163.144 118.608 163.636C118.253 164.129 117.756 164.517 117.116 164.801C116.477 165.085 115.734 165.227 114.886 165.227C113.774 165.227 112.853 164.986 112.124 164.503C111.394 164.02 110.933 163.314 110.739 162.386L112.33 161.989C112.481 162.576 112.768 163.016 113.189 163.31C113.615 163.603 114.171 163.75 114.858 163.75C115.639 163.75 116.259 163.584 116.719 163.253C117.183 162.917 117.415 162.514 117.415 162.045C117.415 161.667 117.282 161.349 117.017 161.094C116.752 160.833 116.345 160.639 115.795 160.511L113.977 160.085C112.978 159.848 112.244 159.482 111.776 158.984C111.312 158.482 111.08 157.855 111.08 157.102C111.08 156.487 111.252 155.942 111.598 155.469C111.948 154.995 112.424 154.624 113.026 154.354C113.632 154.084 114.318 153.949 115.085 153.949C116.165 153.949 117.012 154.186 117.628 154.659C118.248 155.133 118.688 155.758 118.949 156.534Z" fill="black"/>
<line y1="46.9" x2="563" y2="46.9" stroke="#A1A1A1" stroke-width="0.2"/>
<line y1="90.9" x2="563" y2="90.9" stroke="#A1A1A1" stroke-width="0.2"/>
<line y1="133.9" x2="563" y2="133.9" stroke="#A1A1A1" stroke-width="0.2"/>
</g>
<defs>
<clipPath id="clip0_8_249">
<rect width="563" height="181" rx="19" fill="white"/>
</clipPath>
</defs>
</svg>
