<svg width="1440" height="1024" viewBox="0 0 1440 1024" fill="none" xmlns="http://www.w3.org/2000/svg">
<g clip-path="url(#clip0_2_108)">
<rect width="1440" height="1024" fill="white"/>
<rect x="-0.5" y="-0.5" width="1441" height="74" fill="white" stroke="black"/>
<line x1="19.5" y1="25.5" x2="45.5" y2="25.5" stroke="black" stroke-width="3" stroke-linecap="round"/>
<line x1="19.5" y1="35.5" x2="45.5" y2="35.5" stroke="black" stroke-width="3" stroke-linecap="round"/>
<line x1="19.5" y1="45.5" x2="45.5" y2="45.5" stroke="black" stroke-width="3" stroke-linecap="round"/>
<rect x="369" y="248" width="703" height="527" rx="30" fill="#F6F6F6"/>
<path d="M1042 248C1058.57 248 1072 261.431 1072 278V333H369V278C369 261.431 382.431 248 399 248H1042Z" fill="#ECECEC"/>
<rect x="593" y="611" width="259" height="69" rx="4" fill="#D9D9D9"/>
<path d="M679.489 288.364C679.335 287.068 678.713 286.062 677.622 285.347C676.531 284.631 675.193 284.273 673.608 284.273C672.449 284.273 671.435 284.46 670.565 284.835C669.705 285.21 669.031 285.726 668.545 286.382C668.068 287.038 667.83 287.784 667.83 288.619C667.83 289.318 667.996 289.919 668.328 290.422C668.669 290.916 669.104 291.33 669.632 291.662C670.161 291.986 670.714 292.254 671.294 292.467C671.874 292.672 672.406 292.838 672.892 292.966L675.551 293.682C676.233 293.861 676.991 294.108 677.827 294.423C678.67 294.739 679.476 295.169 680.243 295.714C681.018 296.251 681.658 296.942 682.161 297.786C682.663 298.629 682.915 299.665 682.915 300.892C682.915 302.307 682.544 303.585 681.803 304.727C681.07 305.869 679.996 306.777 678.581 307.45C677.175 308.124 675.466 308.46 673.455 308.46C671.58 308.46 669.956 308.158 668.584 307.553C667.22 306.947 666.146 306.104 665.362 305.021C664.587 303.939 664.148 302.682 664.045 301.25H667.318C667.403 302.239 667.736 303.057 668.315 303.705C668.903 304.344 669.645 304.821 670.54 305.136C671.443 305.443 672.415 305.597 673.455 305.597C674.665 305.597 675.751 305.401 676.714 305.009C677.678 304.608 678.44 304.054 679.003 303.347C679.565 302.631 679.847 301.795 679.847 300.841C679.847 299.972 679.604 299.264 679.118 298.719C678.632 298.173 677.993 297.73 677.2 297.389C676.408 297.048 675.551 296.75 674.631 296.494L671.409 295.574C669.364 294.986 667.744 294.146 666.551 293.055C665.358 291.964 664.761 290.537 664.761 288.773C664.761 287.307 665.158 286.028 665.95 284.938C666.751 283.838 667.825 282.986 669.172 282.381C670.527 281.767 672.04 281.46 673.71 281.46C675.398 281.46 676.898 281.763 678.21 282.368C679.523 282.964 680.563 283.783 681.33 284.822C682.105 285.862 682.514 287.043 682.557 288.364H679.489ZM687.718 308V288.364H690.735V308H687.718ZM689.252 285.091C688.664 285.091 688.157 284.891 687.731 284.49C687.314 284.089 687.105 283.608 687.105 283.045C687.105 282.483 687.314 282.001 687.731 281.601C688.157 281.2 688.664 281 689.252 281C689.841 281 690.343 281.2 690.761 281.601C691.187 282.001 691.4 282.483 691.4 283.045C691.4 283.608 691.187 284.089 690.761 284.49C690.343 284.891 689.841 285.091 689.252 285.091ZM704.188 315.773C702.73 315.773 701.477 315.585 700.429 315.21C699.381 314.844 698.507 314.358 697.808 313.753C697.118 313.156 696.568 312.517 696.159 311.835L698.562 310.148C698.835 310.506 699.18 310.915 699.598 311.375C700.016 311.844 700.587 312.249 701.311 312.589C702.044 312.939 703.003 313.114 704.188 313.114C705.773 313.114 707.081 312.73 708.112 311.963C709.143 311.196 709.659 309.994 709.659 308.358V304.369H709.403C709.182 304.727 708.866 305.17 708.457 305.699C708.057 306.219 707.477 306.683 706.719 307.092C705.969 307.493 704.955 307.693 703.676 307.693C702.091 307.693 700.668 307.318 699.406 306.568C698.153 305.818 697.161 304.727 696.428 303.295C695.703 301.864 695.341 300.125 695.341 298.08C695.341 296.068 695.695 294.317 696.402 292.825C697.109 291.325 698.094 290.166 699.355 289.348C700.616 288.521 702.074 288.108 703.727 288.108C705.006 288.108 706.02 288.321 706.77 288.747C707.528 289.165 708.108 289.642 708.509 290.179C708.918 290.707 709.233 291.142 709.455 291.483H709.761V288.364H712.676V308.562C712.676 310.25 712.293 311.622 711.526 312.679C710.767 313.744 709.744 314.524 708.457 315.018C707.179 315.521 705.756 315.773 704.188 315.773ZM704.085 304.983C705.295 304.983 706.318 304.706 707.153 304.152C707.989 303.598 708.624 302.801 709.058 301.761C709.493 300.722 709.71 299.477 709.71 298.028C709.71 296.614 709.497 295.365 709.071 294.283C708.645 293.2 708.014 292.352 707.179 291.739C706.344 291.125 705.313 290.818 704.085 290.818C702.807 290.818 701.741 291.142 700.889 291.79C700.045 292.437 699.411 293.307 698.984 294.398C698.567 295.489 698.358 296.699 698.358 298.028C698.358 299.392 698.571 300.598 698.997 301.646C699.432 302.686 700.071 303.504 700.915 304.101C701.767 304.689 702.824 304.983 704.085 304.983ZM721.216 296.188V308H718.199V288.364H721.114V291.432H721.369C721.83 290.435 722.528 289.634 723.466 289.028C724.403 288.415 725.614 288.108 727.097 288.108C728.426 288.108 729.589 288.381 730.587 288.926C731.584 289.463 732.359 290.281 732.913 291.381C733.467 292.472 733.744 293.852 733.744 295.523V308H730.727V295.727C730.727 294.185 730.327 292.983 729.526 292.122C728.724 291.253 727.625 290.818 726.227 290.818C725.264 290.818 724.403 291.027 723.645 291.445C722.895 291.862 722.303 292.472 721.868 293.273C721.433 294.074 721.216 295.045 721.216 296.188ZM752.962 281.818V308H749.792V281.818H752.962ZM761.927 296.188V308H758.91V288.364H761.825V291.432H762.08C762.54 290.435 763.239 289.634 764.177 289.028C765.114 288.415 766.325 288.108 767.808 288.108C769.137 288.108 770.3 288.381 771.298 288.926C772.295 289.463 773.07 290.281 773.624 291.381C774.178 292.472 774.455 293.852 774.455 295.523V308H771.438V295.727C771.438 294.185 771.038 292.983 770.237 292.122C769.435 291.253 768.336 290.818 766.938 290.818C765.975 290.818 765.114 291.027 764.356 291.445C763.606 291.862 763.013 292.472 762.579 293.273C762.144 294.074 761.927 295.045 761.927 296.188Z" fill="black"/>
<path d="M687.659 640.909C687.557 640.045 687.142 639.375 686.415 638.898C685.688 638.42 684.795 638.182 683.739 638.182C682.966 638.182 682.29 638.307 681.71 638.557C681.136 638.807 680.688 639.151 680.364 639.588C680.045 640.026 679.886 640.523 679.886 641.08C679.886 641.545 679.997 641.946 680.219 642.281C680.446 642.611 680.736 642.886 681.088 643.108C681.44 643.324 681.81 643.503 682.196 643.645C682.582 643.781 682.938 643.892 683.261 643.977L685.034 644.455C685.489 644.574 685.994 644.739 686.551 644.949C687.114 645.159 687.651 645.446 688.162 645.81C688.679 646.168 689.105 646.628 689.44 647.19C689.776 647.753 689.943 648.443 689.943 649.261C689.943 650.205 689.696 651.057 689.202 651.818C688.713 652.58 687.997 653.185 687.054 653.634C686.116 654.082 684.977 654.307 683.636 654.307C682.386 654.307 681.304 654.105 680.389 653.702C679.48 653.298 678.764 652.736 678.241 652.014C677.724 651.293 677.432 650.455 677.364 649.5H679.545C679.602 650.159 679.824 650.705 680.21 651.136C680.602 651.562 681.097 651.881 681.693 652.091C682.295 652.295 682.943 652.398 683.636 652.398C684.443 652.398 685.168 652.267 685.81 652.006C686.452 651.739 686.96 651.369 687.335 650.898C687.71 650.42 687.898 649.864 687.898 649.227C687.898 648.648 687.736 648.176 687.412 647.812C687.088 647.449 686.662 647.153 686.134 646.926C685.605 646.699 685.034 646.5 684.42 646.33L682.273 645.716C680.909 645.324 679.83 644.764 679.034 644.037C678.239 643.31 677.841 642.358 677.841 641.182C677.841 640.205 678.105 639.352 678.634 638.625C679.168 637.892 679.884 637.324 680.781 636.92C681.685 636.511 682.693 636.307 683.807 636.307C684.932 636.307 685.932 636.509 686.807 636.912C687.682 637.31 688.375 637.855 688.886 638.548C689.403 639.241 689.676 640.028 689.705 640.909H687.659ZM695.532 636.545V654H693.418V636.545H695.532ZM711.702 642C711.514 641.426 711.267 640.912 710.96 640.457C710.659 639.997 710.298 639.605 709.878 639.281C709.463 638.957 708.991 638.71 708.463 638.54C707.935 638.369 707.355 638.284 706.724 638.284C705.69 638.284 704.75 638.551 703.903 639.085C703.057 639.619 702.384 640.406 701.884 641.446C701.384 642.486 701.134 643.761 701.134 645.273C701.134 646.784 701.386 648.06 701.892 649.099C702.398 650.139 703.082 650.926 703.946 651.46C704.81 651.994 705.781 652.261 706.861 652.261C707.861 652.261 708.741 652.048 709.503 651.622C710.27 651.19 710.866 650.582 711.293 649.798C711.724 649.009 711.94 648.08 711.94 647.011L712.588 647.148H707.338V645.273H713.986V647.148C713.986 648.585 713.679 649.835 713.065 650.898C712.457 651.96 711.616 652.784 710.543 653.369C709.474 653.949 708.247 654.239 706.861 654.239C705.315 654.239 703.957 653.875 702.787 653.148C701.622 652.42 700.713 651.386 700.06 650.045C699.412 648.705 699.088 647.114 699.088 645.273C699.088 643.892 699.273 642.651 699.642 641.548C700.017 640.44 700.545 639.497 701.227 638.719C701.909 637.94 702.716 637.344 703.648 636.929C704.58 636.514 705.605 636.307 706.724 636.307C707.645 636.307 708.503 636.446 709.298 636.724C710.099 636.997 710.812 637.386 711.438 637.892C712.068 638.392 712.594 638.991 713.014 639.69C713.435 640.384 713.724 641.153 713.884 642H711.702ZM731.447 636.545V654H729.401L719.89 640.295H719.719V654H717.606V636.545H719.651L729.197 650.284H729.367V636.545H731.447ZM744.54 636.545V654H742.426V636.545H744.54ZM762.619 636.545V654H760.573L751.062 640.295H750.891V654H748.778V636.545H750.823L760.369 650.284H760.539V636.545H762.619Z" fill="black"/>
<path d="M445.114 425V407.545H455.648V409.42H447.227V415.318H455.102V417.193H447.227V423.125H455.784V425H445.114ZM459.185 425V411.909H461.128V413.955H461.298C461.571 413.256 462.011 412.713 462.619 412.327C463.227 411.935 463.957 411.739 464.81 411.739C465.673 411.739 466.392 411.935 466.966 412.327C467.545 412.713 467.997 413.256 468.321 413.955H468.457C468.793 413.278 469.295 412.741 469.966 412.344C470.636 411.94 471.44 411.739 472.378 411.739C473.548 411.739 474.506 412.105 475.25 412.838C475.994 413.565 476.366 414.699 476.366 416.239V425H474.355V416.239C474.355 415.273 474.091 414.582 473.562 414.168C473.034 413.753 472.412 413.545 471.696 413.545C470.776 413.545 470.063 413.824 469.557 414.381C469.051 414.932 468.798 415.631 468.798 416.477V425H466.753V416.034C466.753 415.29 466.511 414.69 466.028 414.236C465.545 413.776 464.923 413.545 464.162 413.545C463.639 413.545 463.151 413.685 462.696 413.963C462.247 414.241 461.884 414.628 461.605 415.122C461.332 415.611 461.196 416.176 461.196 416.818V425H459.185ZM483.896 425.307C483.067 425.307 482.314 425.151 481.638 424.838C480.962 424.52 480.425 424.062 480.027 423.466C479.629 422.864 479.43 422.136 479.43 421.284C479.43 420.534 479.578 419.926 479.874 419.46C480.169 418.989 480.564 418.619 481.058 418.352C481.553 418.085 482.098 417.886 482.695 417.756C483.297 417.619 483.902 417.511 484.51 417.432C485.305 417.33 485.95 417.253 486.445 417.202C486.945 417.145 487.308 417.051 487.536 416.92C487.768 416.79 487.885 416.562 487.885 416.239V416.17C487.885 415.33 487.655 414.676 487.195 414.21C486.74 413.744 486.05 413.511 485.124 413.511C484.163 413.511 483.411 413.722 482.865 414.142C482.32 414.562 481.936 415.011 481.714 415.489L479.805 414.807C480.146 414.011 480.601 413.392 481.169 412.949C481.743 412.5 482.368 412.187 483.044 412.011C483.726 411.83 484.396 411.739 485.055 411.739C485.476 411.739 485.959 411.79 486.504 411.892C487.055 411.989 487.587 412.19 488.098 412.497C488.615 412.804 489.044 413.267 489.385 413.886C489.726 414.506 489.896 415.335 489.896 416.375V425H487.885V423.227H487.783C487.646 423.511 487.419 423.815 487.101 424.139C486.783 424.463 486.359 424.739 485.831 424.966C485.303 425.193 484.658 425.307 483.896 425.307ZM484.203 423.5C484.999 423.5 485.669 423.344 486.214 423.031C486.766 422.719 487.18 422.315 487.459 421.821C487.743 421.327 487.885 420.807 487.885 420.261V418.42C487.8 418.523 487.612 418.616 487.322 418.702C487.038 418.781 486.709 418.852 486.334 418.915C485.964 418.972 485.604 419.023 485.251 419.068C484.905 419.108 484.624 419.142 484.408 419.17C483.885 419.239 483.396 419.349 482.942 419.503C482.493 419.651 482.129 419.875 481.851 420.176C481.578 420.472 481.442 420.875 481.442 421.386C481.442 422.085 481.7 422.614 482.217 422.972C482.74 423.324 483.402 423.5 484.203 423.5ZM493.567 425V411.909H495.579V425H493.567ZM494.59 409.727C494.198 409.727 493.86 409.594 493.576 409.327C493.298 409.06 493.158 408.739 493.158 408.364C493.158 407.989 493.298 407.668 493.576 407.401C493.86 407.134 494.198 407 494.59 407C494.982 407 495.317 407.134 495.596 407.401C495.88 407.668 496.022 407.989 496.022 408.364C496.022 408.739 495.88 409.06 495.596 409.327C495.317 409.594 494.982 409.727 494.59 409.727ZM501.274 407.545V425H499.263V407.545H501.274Z" fill="#A4A4A4"/>
<path d="M648.61 711H646.849C646.745 710.493 646.563 710.048 646.302 709.665C646.047 709.281 645.734 708.959 645.365 708.699C645 708.434 644.595 708.235 644.15 708.102C643.705 707.97 643.241 707.903 642.758 707.903C641.877 707.903 641.08 708.126 640.365 708.571C639.654 709.016 639.089 709.672 638.667 710.538C638.251 711.405 638.042 712.468 638.042 713.727C638.042 714.987 638.251 716.05 638.667 716.916C639.089 717.783 639.654 718.438 640.365 718.884C641.08 719.329 641.877 719.551 642.758 719.551C643.241 719.551 643.705 719.485 644.15 719.352C644.595 719.22 645 719.023 645.365 718.763C645.734 718.498 646.047 718.173 646.302 717.79C646.563 717.402 646.745 716.956 646.849 716.455H648.61C648.478 717.198 648.236 717.863 647.886 718.45C647.536 719.037 647.1 719.537 646.579 719.949C646.058 720.356 645.474 720.666 644.825 720.879C644.181 721.092 643.492 721.199 642.758 721.199C641.518 721.199 640.414 720.896 639.449 720.29C638.483 719.684 637.723 718.822 637.169 717.705C636.615 716.587 636.338 715.261 636.338 713.727C636.338 712.193 636.615 710.867 637.169 709.75C637.723 708.633 638.483 707.771 639.449 707.165C640.414 706.559 641.518 706.256 642.758 706.256C643.492 706.256 644.181 706.362 644.825 706.575C645.474 706.788 646.058 707.101 646.579 707.513C647.1 707.92 647.536 708.417 647.886 709.004C648.236 709.587 648.478 710.252 648.61 711ZM651.229 721V710.091H652.849V711.739H652.962C653.161 711.199 653.521 710.761 654.042 710.425C654.563 710.089 655.15 709.92 655.803 709.92C655.926 709.92 656.08 709.923 656.265 709.928C656.45 709.932 656.589 709.939 656.684 709.949V711.653C656.627 711.639 656.497 711.618 656.293 711.589C656.094 711.556 655.884 711.54 655.661 711.54C655.131 711.54 654.657 711.651 654.241 711.874C653.829 712.091 653.502 712.394 653.261 712.783C653.024 713.166 652.906 713.604 652.906 714.097V721H651.229ZM662.913 721.227C661.862 721.227 660.955 720.995 660.192 720.531C659.435 720.062 658.85 719.409 658.438 718.571C658.031 717.728 657.827 716.748 657.827 715.631C657.827 714.513 658.031 713.528 658.438 712.676C658.85 711.819 659.423 711.152 660.157 710.673C660.896 710.19 661.757 709.949 662.742 709.949C663.31 709.949 663.871 710.044 664.425 710.233C664.979 710.422 665.484 710.73 665.938 711.156C666.393 711.578 666.755 712.136 667.025 712.832C667.295 713.528 667.43 714.385 667.43 715.403V716.114H659.021V714.665H665.725C665.725 714.049 665.602 713.5 665.356 713.017C665.114 712.534 664.769 712.153 664.319 711.874C663.874 711.594 663.348 711.455 662.742 711.455C662.075 711.455 661.497 711.62 661.009 711.952C660.526 712.278 660.155 712.705 659.894 713.23C659.634 713.756 659.504 714.319 659.504 714.92V715.886C659.504 716.71 659.646 717.409 659.93 717.982C660.219 718.55 660.619 718.983 661.13 719.281C661.641 719.575 662.236 719.722 662.913 719.722C663.353 719.722 663.751 719.66 664.106 719.537C664.466 719.409 664.776 719.22 665.036 718.969C665.297 718.713 665.498 718.396 665.64 718.017L667.259 718.472C667.089 719.021 666.802 719.504 666.4 719.92C665.997 720.332 665.5 720.654 664.908 720.886C664.317 721.114 663.651 721.227 662.913 721.227ZM673.19 721.256C672.498 721.256 671.871 721.125 671.308 720.865C670.744 720.6 670.297 720.219 669.965 719.722C669.634 719.22 669.468 718.614 669.468 717.903C669.468 717.278 669.591 716.772 669.837 716.384C670.084 715.991 670.413 715.683 670.825 715.46C671.237 715.238 671.691 715.072 672.188 714.963C672.69 714.849 673.194 714.759 673.701 714.693C674.364 714.608 674.901 714.544 675.313 714.501C675.73 714.454 676.033 714.376 676.222 714.267C676.416 714.158 676.513 713.969 676.513 713.699V713.642C676.513 712.941 676.322 712.397 675.938 712.009C675.559 711.62 674.984 711.426 674.212 711.426C673.412 711.426 672.785 711.601 672.33 711.952C671.876 712.302 671.556 712.676 671.371 713.074L669.781 712.506C670.065 711.843 670.443 711.327 670.917 710.957C671.395 710.583 671.916 710.323 672.479 710.176C673.048 710.025 673.606 709.949 674.156 709.949C674.506 709.949 674.908 709.991 675.363 710.077C675.822 710.157 676.265 710.325 676.691 710.581C677.122 710.837 677.479 711.223 677.763 711.739C678.048 712.255 678.19 712.946 678.19 713.812V721H676.513V719.523H676.428C676.315 719.759 676.125 720.013 675.86 720.283C675.595 720.553 675.242 720.782 674.802 720.972C674.362 721.161 673.824 721.256 673.19 721.256ZM673.445 719.75C674.108 719.75 674.667 719.62 675.121 719.359C675.581 719.099 675.926 718.763 676.158 718.351C676.395 717.939 676.513 717.506 676.513 717.051V715.517C676.442 715.602 676.286 715.68 676.045 715.751C675.808 715.818 675.533 715.877 675.221 715.929C674.913 715.976 674.612 716.019 674.319 716.057C674.03 716.09 673.796 716.118 673.616 716.142C673.18 716.199 672.773 716.291 672.394 716.419C672.02 716.542 671.717 716.729 671.485 716.98C671.258 717.226 671.144 717.562 671.144 717.989C671.144 718.571 671.36 719.011 671.79 719.31C672.226 719.603 672.778 719.75 673.445 719.75ZM685.993 710.091V711.511H680.34V710.091H685.993ZM681.988 707.477H683.664V717.875C683.664 718.348 683.732 718.704 683.87 718.94C684.012 719.172 684.192 719.329 684.409 719.409C684.632 719.485 684.866 719.523 685.113 719.523C685.297 719.523 685.449 719.513 685.567 719.494C685.685 719.471 685.78 719.452 685.851 719.438L686.192 720.943C686.078 720.986 685.92 721.028 685.716 721.071C685.513 721.118 685.255 721.142 684.942 721.142C684.469 721.142 684.005 721.04 683.55 720.837C683.1 720.633 682.726 720.323 682.428 719.906C682.134 719.49 681.988 718.964 681.988 718.33V707.477ZM692.971 721.227C691.92 721.227 691.013 720.995 690.251 720.531C689.493 720.062 688.909 719.409 688.497 718.571C688.09 717.728 687.886 716.748 687.886 715.631C687.886 714.513 688.09 713.528 688.497 712.676C688.909 711.819 689.482 711.152 690.216 710.673C690.954 710.19 691.816 709.949 692.801 709.949C693.369 709.949 693.93 710.044 694.484 710.233C695.038 710.422 695.542 710.73 695.997 711.156C696.451 711.578 696.814 712.136 697.083 712.832C697.353 713.528 697.488 714.385 697.488 715.403V716.114H689.079V714.665H695.784C695.784 714.049 695.661 713.5 695.414 713.017C695.173 712.534 694.827 712.153 694.377 711.874C693.932 711.594 693.407 711.455 692.801 711.455C692.133 711.455 691.556 711.62 691.068 711.952C690.585 712.278 690.213 712.705 689.953 713.23C689.692 713.756 689.562 714.319 689.562 714.92V715.886C689.562 716.71 689.704 717.409 689.988 717.982C690.277 718.55 690.677 718.983 691.189 719.281C691.7 719.575 692.294 719.722 692.971 719.722C693.412 719.722 693.809 719.66 694.164 719.537C694.524 719.409 694.834 719.22 695.095 718.969C695.355 718.713 695.556 718.396 695.699 718.017L697.318 718.472C697.147 719.021 696.861 719.504 696.458 719.92C696.056 720.332 695.559 720.654 694.967 720.886C694.375 721.114 693.71 721.227 692.971 721.227ZM708.873 721.256C708.182 721.256 707.555 721.125 706.991 720.865C706.428 720.6 705.98 720.219 705.649 719.722C705.317 719.22 705.152 718.614 705.152 717.903C705.152 717.278 705.275 716.772 705.521 716.384C705.767 715.991 706.096 715.683 706.508 715.46C706.92 715.238 707.375 715.072 707.872 714.963C708.374 714.849 708.878 714.759 709.385 714.693C710.047 714.608 710.585 714.544 710.997 714.501C711.413 714.454 711.717 714.376 711.906 714.267C712.1 714.158 712.197 713.969 712.197 713.699V713.642C712.197 712.941 712.005 712.397 711.622 712.009C711.243 711.62 710.668 711.426 709.896 711.426C709.096 711.426 708.468 711.601 708.014 711.952C707.559 712.302 707.24 712.676 707.055 713.074L705.464 712.506C705.748 711.843 706.127 711.327 706.6 710.957C707.079 710.583 707.6 710.323 708.163 710.176C708.731 710.025 709.29 709.949 709.839 709.949C710.19 709.949 710.592 709.991 711.047 710.077C711.506 710.157 711.949 710.325 712.375 710.581C712.806 710.837 713.163 711.223 713.447 711.739C713.731 712.255 713.873 712.946 713.873 713.812V721H712.197V719.523H712.112C711.998 719.759 711.809 720.013 711.544 720.283C711.279 720.553 710.926 720.782 710.485 720.972C710.045 721.161 709.508 721.256 708.873 721.256ZM709.129 719.75C709.792 719.75 710.35 719.62 710.805 719.359C711.264 719.099 711.61 718.763 711.842 718.351C712.079 717.939 712.197 717.506 712.197 717.051V715.517C712.126 715.602 711.97 715.68 711.728 715.751C711.492 715.818 711.217 715.877 710.904 715.929C710.597 715.976 710.296 716.019 710.002 716.057C709.714 716.09 709.479 716.118 709.299 716.142C708.864 716.199 708.457 716.291 708.078 716.419C707.704 716.542 707.401 716.729 707.169 716.98C706.941 717.226 706.828 717.562 706.828 717.989C706.828 718.571 707.043 719.011 707.474 719.31C707.91 719.603 708.461 719.75 709.129 719.75ZM718.609 714.438V721H716.933V710.091H718.552V711.795H718.694C718.95 711.241 719.338 710.796 719.859 710.46C720.379 710.119 721.052 709.949 721.876 709.949C722.614 709.949 723.261 710.1 723.815 710.403C724.369 710.702 724.799 711.156 725.107 711.767C725.415 712.373 725.569 713.14 725.569 714.068V721H723.893V714.182C723.893 713.325 723.67 712.657 723.225 712.179C722.78 711.696 722.169 711.455 721.393 711.455C720.858 711.455 720.379 711.571 719.958 711.803C719.541 712.035 719.212 712.373 718.971 712.818C718.729 713.263 718.609 713.803 718.609 714.438ZM737.467 721.256C736.776 721.256 736.148 721.125 735.585 720.865C735.021 720.6 734.574 720.219 734.243 719.722C733.911 719.22 733.745 718.614 733.745 717.903C733.745 717.278 733.868 716.772 734.115 716.384C734.361 715.991 734.69 715.683 735.102 715.46C735.514 715.238 735.968 715.072 736.466 714.963C736.967 714.849 737.472 714.759 737.978 714.693C738.641 714.608 739.179 714.544 739.591 714.501C740.007 714.454 740.31 714.376 740.5 714.267C740.694 714.158 740.791 713.969 740.791 713.699V713.642C740.791 712.941 740.599 712.397 740.216 712.009C739.837 711.62 739.261 711.426 738.49 711.426C737.69 711.426 737.062 711.601 736.608 711.952C736.153 712.302 735.833 712.676 735.649 713.074L734.058 712.506C734.342 711.843 734.721 711.327 735.194 710.957C735.672 710.583 736.193 710.323 736.757 710.176C737.325 710.025 737.884 709.949 738.433 709.949C738.783 709.949 739.186 709.991 739.64 710.077C740.1 710.157 740.542 710.325 740.968 710.581C741.399 710.837 741.757 711.223 742.041 711.739C742.325 712.255 742.467 712.946 742.467 713.812V721H740.791V719.523H740.706C740.592 719.759 740.403 720.013 740.137 720.283C739.872 720.553 739.52 720.782 739.079 720.972C738.639 721.161 738.101 721.256 737.467 721.256ZM737.723 719.75C738.386 719.75 738.944 719.62 739.399 719.359C739.858 719.099 740.204 718.763 740.436 718.351C740.672 717.939 740.791 717.506 740.791 717.051V715.517C740.72 715.602 740.564 715.68 740.322 715.751C740.085 715.818 739.811 715.877 739.498 715.929C739.19 715.976 738.89 716.019 738.596 716.057C738.307 716.09 738.073 716.118 737.893 716.142C737.458 716.199 737.05 716.291 736.672 716.419C736.297 716.542 735.994 716.729 735.762 716.98C735.535 717.226 735.422 717.562 735.422 717.989C735.422 718.571 735.637 719.011 736.068 719.31C736.503 719.603 737.055 719.75 737.723 719.75ZM749.958 721.227C748.935 721.227 748.055 720.986 747.316 720.503C746.577 720.02 746.009 719.355 745.612 718.507C745.214 717.66 745.015 716.691 745.015 715.602C745.015 714.494 745.219 713.517 745.626 712.669C746.038 711.817 746.611 711.152 747.344 710.673C748.083 710.19 748.945 709.949 749.93 709.949C750.697 709.949 751.388 710.091 752.004 710.375C752.619 710.659 753.123 711.057 753.516 711.568C753.909 712.08 754.153 712.676 754.248 713.358H752.572C752.444 712.861 752.16 712.42 751.719 712.037C751.284 711.649 750.697 711.455 749.958 711.455C749.305 711.455 748.732 711.625 748.239 711.966C747.752 712.302 747.371 712.778 747.096 713.393C746.826 714.004 746.691 714.722 746.691 715.545C746.691 716.388 746.824 717.122 747.089 717.747C747.359 718.372 747.737 718.857 748.225 719.203C748.718 719.549 749.295 719.722 749.958 719.722C750.394 719.722 750.789 719.646 751.144 719.494C751.499 719.343 751.8 719.125 752.046 718.841C752.292 718.557 752.468 718.216 752.572 717.818H754.248C754.153 718.462 753.919 719.042 753.545 719.558C753.175 720.07 752.685 720.477 752.075 720.78C751.469 721.078 750.763 721.227 749.958 721.227ZM761.13 721.227C760.107 721.227 759.227 720.986 758.488 720.503C757.749 720.02 757.181 719.355 756.783 718.507C756.386 717.66 756.187 716.691 756.187 715.602C756.187 714.494 756.39 713.517 756.798 712.669C757.21 711.817 757.782 711.152 758.516 710.673C759.255 710.19 760.117 709.949 761.102 709.949C761.869 709.949 762.56 710.091 763.175 710.375C763.791 710.659 764.295 711.057 764.688 711.568C765.081 712.08 765.325 712.676 765.42 713.358H763.744C763.616 712.861 763.332 712.42 762.891 712.037C762.456 711.649 761.869 711.455 761.13 711.455C760.477 711.455 759.904 711.625 759.411 711.966C758.924 712.302 758.542 712.778 758.268 713.393C757.998 714.004 757.863 714.722 757.863 715.545C757.863 716.388 757.996 717.122 758.261 717.747C758.531 718.372 758.909 718.857 759.397 719.203C759.889 719.549 760.467 719.722 761.13 719.722C761.566 719.722 761.961 719.646 762.316 719.494C762.671 719.343 762.972 719.125 763.218 718.841C763.464 718.557 763.639 718.216 763.744 717.818H765.42C765.325 718.462 765.091 719.042 764.717 719.558C764.347 720.07 763.857 720.477 763.246 720.78C762.64 721.078 761.935 721.227 761.13 721.227ZM772.302 721.227C771.317 721.227 770.453 720.993 769.71 720.524C768.971 720.055 768.393 719.4 767.977 718.557C767.565 717.714 767.359 716.729 767.359 715.602C767.359 714.466 767.565 713.474 767.977 712.626C768.393 711.779 768.971 711.121 769.71 710.652C770.453 710.183 771.317 709.949 772.302 709.949C773.287 709.949 774.148 710.183 774.887 710.652C775.63 711.121 776.208 711.779 776.62 712.626C777.037 713.474 777.245 714.466 777.245 715.602C777.245 716.729 777.037 717.714 776.62 718.557C776.208 719.4 775.63 720.055 774.887 720.524C774.148 720.993 773.287 721.227 772.302 721.227ZM772.302 719.722C773.05 719.722 773.665 719.53 774.148 719.146C774.631 718.763 774.989 718.259 775.221 717.634C775.453 717.009 775.569 716.331 775.569 715.602C775.569 714.873 775.453 714.194 775.221 713.564C774.989 712.934 774.631 712.425 774.148 712.037C773.665 711.649 773.05 711.455 772.302 711.455C771.554 711.455 770.938 711.649 770.455 712.037C769.972 712.425 769.615 712.934 769.383 713.564C769.151 714.194 769.035 714.873 769.035 715.602C769.035 716.331 769.151 717.009 769.383 717.634C769.615 718.259 769.972 718.763 770.455 719.146C770.938 719.53 771.554 719.722 772.302 719.722ZM786.679 716.54V710.091H788.355V721H786.679V719.153H786.565C786.309 719.707 785.912 720.179 785.372 720.567C784.832 720.95 784.15 721.142 783.326 721.142C782.645 721.142 782.038 720.993 781.508 720.695C780.978 720.392 780.561 719.937 780.258 719.331C779.955 718.72 779.804 717.951 779.804 717.023V710.091H781.48V716.909C781.48 717.705 781.702 718.339 782.147 718.812C782.597 719.286 783.17 719.523 783.866 719.523C784.283 719.523 784.707 719.416 785.137 719.203C785.573 718.99 785.938 718.663 786.231 718.223C786.529 717.783 786.679 717.222 786.679 716.54ZM793.101 714.438V721H791.425V710.091H793.044V711.795H793.186C793.442 711.241 793.83 710.796 794.351 710.46C794.872 710.119 795.544 709.949 796.368 709.949C797.107 709.949 797.753 710.1 798.307 710.403C798.861 710.702 799.292 711.156 799.599 711.767C799.907 712.373 800.061 713.14 800.061 714.068V721H798.385V714.182C798.385 713.325 798.162 712.657 797.717 712.179C797.272 711.696 796.661 711.455 795.885 711.455C795.35 711.455 794.872 711.571 794.45 711.803C794.034 712.035 793.705 712.373 793.463 712.818C793.222 713.263 793.101 713.803 793.101 714.438ZM807.868 710.091V711.511H802.215V710.091H807.868ZM803.863 707.477H805.539V717.875C805.539 718.348 805.607 718.704 805.745 718.94C805.887 719.172 806.067 719.329 806.284 719.409C806.507 719.485 806.741 719.523 806.988 719.523C807.172 719.523 807.324 719.513 807.442 719.494C807.56 719.471 807.655 719.452 807.726 719.438L808.067 720.943C807.953 720.986 807.795 721.028 807.591 721.071C807.388 721.118 807.13 721.142 806.817 721.142C806.344 721.142 805.88 721.04 805.425 720.837C804.975 720.633 804.601 720.323 804.303 719.906C804.009 719.49 803.863 718.964 803.863 718.33V707.477Z" fill="#0000FF"/>
<path d="M635.145 724.977H808.863V726.341H635.145V724.977Z" fill="#0000FF"/>
<path d="M435 433H1006" stroke="black" stroke-linecap="round"/>
<path d="M445.114 519V501.545H451.011C452.381 501.545 453.5 501.793 454.369 502.287C455.244 502.776 455.892 503.438 456.312 504.273C456.733 505.108 456.943 506.04 456.943 507.068C456.943 508.097 456.733 509.031 456.312 509.872C455.898 510.713 455.256 511.384 454.386 511.884C453.517 512.378 452.403 512.625 451.045 512.625H446.818V510.75H450.977C451.915 510.75 452.668 510.588 453.236 510.264C453.804 509.94 454.216 509.503 454.472 508.952C454.733 508.395 454.864 507.767 454.864 507.068C454.864 506.369 454.733 505.744 454.472 505.193C454.216 504.642 453.801 504.21 453.227 503.898C452.653 503.58 451.892 503.42 450.943 503.42H447.227V519H445.114ZM463.928 519.307C463.098 519.307 462.345 519.151 461.669 518.838C460.993 518.52 460.456 518.062 460.058 517.466C459.661 516.864 459.462 516.136 459.462 515.284C459.462 514.534 459.609 513.926 459.905 513.46C460.2 512.989 460.595 512.619 461.089 512.352C461.584 512.085 462.129 511.886 462.726 511.756C463.328 511.619 463.933 511.511 464.541 511.432C465.337 511.33 465.982 511.253 466.476 511.202C466.976 511.145 467.339 511.051 467.567 510.92C467.8 510.79 467.916 510.562 467.916 510.239V510.17C467.916 509.33 467.686 508.676 467.226 508.21C466.771 507.744 466.081 507.511 465.155 507.511C464.195 507.511 463.442 507.722 462.896 508.142C462.351 508.562 461.967 509.011 461.746 509.489L459.837 508.807C460.178 508.011 460.632 507.392 461.2 506.949C461.774 506.5 462.399 506.187 463.075 506.011C463.757 505.83 464.428 505.739 465.087 505.739C465.507 505.739 465.99 505.79 466.536 505.892C467.087 505.989 467.618 506.19 468.129 506.497C468.646 506.804 469.075 507.267 469.416 507.886C469.757 508.506 469.928 509.335 469.928 510.375V519H467.916V517.227H467.814C467.678 517.511 467.45 517.815 467.132 518.139C466.814 518.463 466.391 518.739 465.862 518.966C465.334 519.193 464.689 519.307 463.928 519.307ZM464.234 517.5C465.03 517.5 465.7 517.344 466.246 517.031C466.797 516.719 467.212 516.315 467.49 515.821C467.774 515.327 467.916 514.807 467.916 514.261V512.42C467.831 512.523 467.643 512.616 467.354 512.702C467.07 512.781 466.74 512.852 466.365 512.915C465.996 512.972 465.635 513.023 465.283 513.068C464.936 513.108 464.655 513.142 464.439 513.17C463.916 513.239 463.428 513.349 462.973 513.503C462.524 513.651 462.161 513.875 461.882 514.176C461.609 514.472 461.473 514.875 461.473 515.386C461.473 516.085 461.732 516.614 462.249 516.972C462.771 517.324 463.433 517.5 464.234 517.5ZM482.871 508.841L481.065 509.352C480.951 509.051 480.783 508.759 480.562 508.474C480.346 508.185 480.05 507.946 479.675 507.759C479.3 507.571 478.82 507.477 478.235 507.477C477.434 507.477 476.766 507.662 476.232 508.031C475.704 508.395 475.44 508.858 475.44 509.42C475.44 509.92 475.621 510.315 475.985 510.605C476.349 510.895 476.917 511.136 477.69 511.33L479.633 511.807C480.803 512.091 481.675 512.526 482.249 513.111C482.823 513.69 483.11 514.437 483.11 515.352C483.11 516.102 482.894 516.773 482.462 517.364C482.036 517.955 481.44 518.42 480.673 518.761C479.906 519.102 479.013 519.273 477.996 519.273C476.661 519.273 475.556 518.983 474.681 518.403C473.806 517.824 473.252 516.977 473.019 515.864L474.928 515.386C475.11 516.091 475.454 516.619 475.96 516.972C476.471 517.324 477.138 517.5 477.962 517.5C478.9 517.5 479.644 517.301 480.195 516.903C480.752 516.5 481.031 516.017 481.031 515.455C481.031 515 480.871 514.619 480.553 514.312C480.235 514 479.746 513.767 479.087 513.614L476.906 513.102C475.707 512.818 474.826 512.378 474.263 511.781C473.707 511.179 473.428 510.426 473.428 509.523C473.428 508.784 473.636 508.131 474.05 507.562C474.471 506.994 475.042 506.548 475.763 506.224C476.491 505.901 477.315 505.739 478.235 505.739C479.531 505.739 480.548 506.023 481.286 506.591C482.031 507.159 482.559 507.909 482.871 508.841ZM495.411 508.841L493.604 509.352C493.49 509.051 493.322 508.759 493.101 508.474C492.885 508.185 492.589 507.946 492.214 507.759C491.839 507.571 491.359 507.477 490.774 507.477C489.973 507.477 489.305 507.662 488.771 508.031C488.243 508.395 487.979 508.858 487.979 509.42C487.979 509.92 488.161 510.315 488.524 510.605C488.888 510.895 489.456 511.136 490.229 511.33L492.172 511.807C493.342 512.091 494.214 512.526 494.788 513.111C495.362 513.69 495.649 514.437 495.649 515.352C495.649 516.102 495.433 516.773 495.001 517.364C494.575 517.955 493.979 518.42 493.212 518.761C492.445 519.102 491.553 519.273 490.536 519.273C489.2 519.273 488.095 518.983 487.22 518.403C486.345 517.824 485.791 516.977 485.558 515.864L487.467 515.386C487.649 516.091 487.993 516.619 488.499 516.972C489.01 517.324 489.678 517.5 490.501 517.5C491.439 517.5 492.183 517.301 492.734 516.903C493.291 516.5 493.57 516.017 493.57 515.455C493.57 515 493.411 514.619 493.092 514.312C492.774 514 492.286 513.767 491.626 513.614L489.445 513.102C488.246 512.818 487.365 512.378 486.803 511.781C486.246 511.179 485.967 510.426 485.967 509.523C485.967 508.784 486.175 508.131 486.589 507.562C487.01 506.994 487.581 506.548 488.303 506.224C489.03 505.901 489.854 505.739 490.774 505.739C492.07 505.739 493.087 506.023 493.825 506.591C494.57 507.159 495.098 507.909 495.411 508.841ZM501.643 519L497.654 505.909H499.768L502.597 515.932H502.734L505.529 505.909H507.677L510.438 515.898H510.575L513.404 505.909H515.518L511.529 519H509.552L506.688 508.943H506.484L503.62 519H501.643ZM523.05 519.273C521.868 519.273 520.831 518.991 519.939 518.429C519.053 517.866 518.359 517.08 517.859 516.068C517.365 515.057 517.118 513.875 517.118 512.523C517.118 511.159 517.365 509.969 517.859 508.952C518.359 507.935 519.053 507.145 519.939 506.582C520.831 506.02 521.868 505.739 523.05 505.739C524.232 505.739 525.266 506.02 526.152 506.582C527.044 507.145 527.737 507.935 528.232 508.952C528.732 509.969 528.982 511.159 528.982 512.523C528.982 513.875 528.732 515.057 528.232 516.068C527.737 517.08 527.044 517.866 526.152 518.429C525.266 518.991 524.232 519.273 523.05 519.273ZM523.05 517.466C523.947 517.466 524.686 517.236 525.266 516.776C525.845 516.315 526.274 515.71 526.553 514.96C526.831 514.21 526.97 513.398 526.97 512.523C526.97 511.648 526.831 510.832 526.553 510.077C526.274 509.321 525.845 508.71 525.266 508.244C524.686 507.778 523.947 507.545 523.05 507.545C522.152 507.545 521.413 507.778 520.834 508.244C520.254 508.71 519.825 509.321 519.547 510.077C519.268 510.832 519.129 511.648 519.129 512.523C519.129 513.398 519.268 514.21 519.547 514.96C519.825 515.71 520.254 516.315 520.834 516.776C521.413 517.236 522.152 517.466 523.05 517.466ZM532.052 519V505.909H533.995V507.886H534.131C534.37 507.239 534.802 506.713 535.427 506.31C536.052 505.906 536.756 505.705 537.54 505.705C537.688 505.705 537.873 505.707 538.094 505.713C538.316 505.719 538.484 505.727 538.597 505.739V507.784C538.529 507.767 538.373 507.741 538.129 507.707C537.89 507.668 537.637 507.648 537.37 507.648C536.734 507.648 536.165 507.781 535.665 508.048C535.171 508.31 534.779 508.673 534.489 509.139C534.205 509.599 534.063 510.125 534.063 510.716V519H532.052ZM545.526 519.273C544.435 519.273 543.472 518.997 542.637 518.446C541.802 517.889 541.148 517.105 540.677 516.094C540.205 515.077 539.969 513.875 539.969 512.489C539.969 511.114 540.205 509.92 540.677 508.909C541.148 507.898 541.805 507.116 542.646 506.565C543.487 506.014 544.458 505.739 545.56 505.739C546.413 505.739 547.086 505.881 547.58 506.165C548.08 506.443 548.461 506.761 548.722 507.119C548.989 507.472 549.197 507.761 549.344 507.989H549.515V501.545H551.526V519H549.583V516.989H549.344C549.197 517.227 548.987 517.528 548.714 517.892C548.441 518.25 548.052 518.571 547.546 518.855C547.04 519.134 546.367 519.273 545.526 519.273ZM545.799 517.466C546.606 517.466 547.288 517.256 547.844 516.835C548.401 516.409 548.825 515.821 549.114 515.071C549.404 514.315 549.549 513.443 549.549 512.455C549.549 511.477 549.407 510.622 549.123 509.889C548.839 509.151 548.418 508.577 547.862 508.168C547.305 507.753 546.617 507.545 545.799 507.545C544.947 507.545 544.237 507.764 543.668 508.202C543.106 508.634 542.683 509.222 542.398 509.966C542.12 510.705 541.981 511.534 541.981 512.455C541.981 513.386 542.123 514.233 542.407 514.994C542.697 515.75 543.123 516.352 543.685 516.801C544.254 517.244 544.958 517.466 545.799 517.466Z" fill="#A4A4A4"/>
<path d="M435 527H1006" stroke="black" stroke-linecap="round"/>
<rect x="1327" y="15" width="95" height="44" rx="4" fill="#D9D9D9"/>
<path d="M1347.77 44V29.4545H1349.53V42.4375H1356.29V44H1347.77ZM1363.22 44.2273C1362.24 44.2273 1361.37 43.9929 1360.63 43.5241C1359.89 43.0554 1359.31 42.3996 1358.9 41.5568C1358.48 40.714 1358.28 39.7292 1358.28 38.6023C1358.28 37.4659 1358.48 36.474 1358.9 35.6264C1359.31 34.7789 1359.89 34.1207 1360.63 33.652C1361.37 33.1832 1362.24 32.9489 1363.22 32.9489C1364.21 32.9489 1365.07 33.1832 1365.81 33.652C1366.55 34.1207 1367.13 34.7789 1367.54 35.6264C1367.96 36.474 1368.16 37.4659 1368.16 38.6023C1368.16 39.7292 1367.96 40.714 1367.54 41.5568C1367.13 42.3996 1366.55 43.0554 1365.81 43.5241C1365.07 43.9929 1364.21 44.2273 1363.22 44.2273ZM1363.22 42.7216C1363.97 42.7216 1364.59 42.5298 1365.07 42.1463C1365.55 41.7628 1365.91 41.2585 1366.14 40.6335C1366.37 40.0085 1366.49 39.3314 1366.49 38.6023C1366.49 37.8731 1366.37 37.1937 1366.14 36.5639C1365.91 35.9342 1365.55 35.4252 1365.07 35.0369C1364.59 34.6487 1363.97 34.4545 1363.22 34.4545C1362.47 34.4545 1361.86 34.6487 1361.38 35.0369C1360.89 35.4252 1360.53 35.9342 1360.3 36.5639C1360.07 37.1937 1359.95 37.8731 1359.95 38.6023C1359.95 39.3314 1360.07 40.0085 1360.3 40.6335C1360.53 41.2585 1360.89 41.7628 1361.38 42.1463C1361.86 42.5298 1362.47 42.7216 1363.22 42.7216ZM1375.13 48.3182C1374.32 48.3182 1373.62 48.214 1373.04 48.0057C1372.46 47.8021 1371.97 47.5322 1371.58 47.196C1371.2 46.8646 1370.89 46.5095 1370.67 46.1307L1372 45.1932C1372.15 45.392 1372.35 45.6193 1372.58 45.875C1372.81 46.1354 1373.13 46.3603 1373.53 46.5497C1373.94 46.7438 1374.47 46.8409 1375.13 46.8409C1376.01 46.8409 1376.73 46.6278 1377.31 46.2017C1377.88 45.7756 1378.17 45.108 1378.17 44.1989V41.983H1378.02C1377.9 42.1818 1377.73 42.428 1377.5 42.7216C1377.28 43.0104 1376.95 43.2685 1376.53 43.4957C1376.12 43.7183 1375.55 43.8295 1374.84 43.8295C1373.96 43.8295 1373.17 43.6212 1372.47 43.2045C1371.77 42.7879 1371.22 42.1818 1370.82 41.3864C1370.41 40.5909 1370.21 39.625 1370.21 38.4886C1370.21 37.3712 1370.41 36.3982 1370.8 35.5696C1371.19 34.7363 1371.74 34.0923 1372.44 33.6378C1373.14 33.1785 1373.95 32.9489 1374.87 32.9489C1375.58 32.9489 1376.14 33.0672 1376.56 33.304C1376.98 33.536 1377.3 33.8011 1377.53 34.0994C1377.75 34.393 1377.93 34.6345 1378.05 34.8239H1378.22V33.0909H1379.84V44.3125C1379.84 45.25 1379.63 46.0123 1379.2 46.5994C1378.78 47.1913 1378.21 47.6245 1377.5 47.8991C1376.79 48.1785 1376 48.3182 1375.13 48.3182ZM1375.07 42.3239C1375.74 42.3239 1376.31 42.17 1376.77 41.8622C1377.24 41.5545 1377.59 41.1117 1377.83 40.5341C1378.07 39.9564 1378.2 39.2652 1378.2 38.4602C1378.2 37.6742 1378.08 36.9806 1377.84 36.3793C1377.6 35.7779 1377.25 35.3068 1376.79 34.9659C1376.32 34.625 1375.75 34.4545 1375.07 34.4545C1374.36 34.4545 1373.77 34.6345 1373.29 34.9943C1372.83 35.3542 1372.47 35.8371 1372.24 36.4432C1372 37.0492 1371.89 37.7216 1371.89 38.4602C1371.89 39.2178 1372.01 39.8878 1372.24 40.4702C1372.48 41.0478 1372.84 41.5024 1373.31 41.8338C1373.78 42.1605 1374.37 42.3239 1375.07 42.3239ZM1390.52 29.4545V44H1388.76V29.4545H1390.52ZM1395.51 37.4375V44H1393.83V33.0909H1395.45V34.7955H1395.59C1395.85 34.2415 1396.23 33.7964 1396.76 33.4602C1397.28 33.1193 1397.95 32.9489 1398.77 32.9489C1399.51 32.9489 1400.16 33.1004 1400.71 33.4034C1401.27 33.7017 1401.7 34.1562 1402 34.767C1402.31 35.3731 1402.47 36.1402 1402.47 37.0682V44H1400.79V37.1818C1400.79 36.3248 1400.57 35.6572 1400.12 35.179C1399.68 34.696 1399.07 34.4545 1398.29 34.4545C1397.75 34.4545 1397.28 34.5705 1396.85 34.8026C1396.44 35.0346 1396.11 35.3731 1395.87 35.8182C1395.63 36.2633 1395.51 36.803 1395.51 37.4375Z" fill="black"/>
<path d="M618.383 32C618.101 31.1392 617.731 30.3679 617.27 29.6861C616.819 28.9957 616.278 28.4077 615.647 27.9219C615.025 27.4361 614.317 27.0653 613.525 26.8097C612.732 26.554 611.863 26.4261 610.917 26.4261C609.366 26.4261 607.955 26.8267 606.685 27.6278C605.415 28.429 604.405 29.6094 603.655 31.169C602.905 32.7287 602.53 34.642 602.53 36.9091C602.53 39.1761 602.91 41.0895 603.668 42.6491C604.427 44.2088 605.454 45.3892 606.749 46.1903C608.045 46.9915 609.502 47.392 611.121 47.392C612.621 47.392 613.942 47.0724 615.084 46.4332C616.235 45.7855 617.13 44.8736 617.769 43.6974C618.417 42.5128 618.741 41.1193 618.741 39.517L619.712 39.7216H611.837V36.9091H621.809V39.7216C621.809 41.8778 621.349 43.7528 620.428 45.3466C619.516 46.9403 618.255 48.1761 616.644 49.054C615.042 49.9233 613.201 50.358 611.121 50.358C608.803 50.358 606.766 49.8125 605.01 48.7216C603.263 47.6307 601.9 46.0795 600.92 44.0682C599.948 42.0568 599.462 39.6705 599.462 36.9091C599.462 34.8381 599.739 32.9759 600.293 31.3224C600.856 29.6605 601.648 28.2457 602.671 27.0781C603.694 25.9105 604.904 25.0156 606.302 24.3935C607.699 23.7713 609.238 23.4602 610.917 23.4602C612.297 23.4602 613.584 23.669 614.778 24.0866C615.979 24.4957 617.049 25.0795 617.986 25.8381C618.932 26.5881 619.721 27.4872 620.351 28.5355C620.982 29.5753 621.417 30.7301 621.655 32H618.383ZM632.608 50.4602C631.364 50.4602 630.235 50.2259 629.22 49.7571C628.206 49.2798 627.401 48.5938 626.804 47.6989C626.208 46.7955 625.909 45.7045 625.909 44.4261C625.909 43.3011 626.131 42.3892 626.574 41.6903C627.017 40.983 627.61 40.429 628.351 40.0284C629.093 39.6278 629.911 39.3295 630.806 39.1335C631.709 38.929 632.617 38.767 633.529 38.6477C634.722 38.4943 635.689 38.3793 636.431 38.3026C637.181 38.2173 637.726 38.0767 638.067 37.8807C638.416 37.6847 638.591 37.3437 638.591 36.858V36.7557C638.591 35.4943 638.246 34.5142 637.556 33.8153C636.874 33.1165 635.838 32.767 634.449 32.767C633.009 32.767 631.879 33.0824 631.061 33.7131C630.243 34.3437 629.668 35.017 629.335 35.733L626.472 34.7102C626.983 33.517 627.665 32.5881 628.517 31.9233C629.378 31.25 630.316 30.7812 631.33 30.517C632.352 30.2443 633.358 30.108 634.347 30.108C634.977 30.108 635.702 30.1847 636.52 30.3381C637.347 30.483 638.144 30.7855 638.911 31.2457C639.686 31.706 640.33 32.4006 640.841 33.3295C641.352 34.2585 641.608 35.5028 641.608 37.0625V50H638.591V47.3409H638.438C638.233 47.767 637.892 48.223 637.415 48.7088C636.938 49.1946 636.303 49.608 635.51 49.9489C634.718 50.2898 633.75 50.4602 632.608 50.4602ZM633.068 47.75C634.262 47.75 635.267 47.5156 636.085 47.0469C636.912 46.5781 637.534 45.973 637.952 45.2315C638.378 44.4901 638.591 43.7102 638.591 42.892V40.1307C638.463 40.2841 638.182 40.4247 637.747 40.5526C637.321 40.6719 636.827 40.7784 636.264 40.8722C635.71 40.9574 635.169 41.0341 634.641 41.1023C634.121 41.1619 633.699 41.2131 633.375 41.2557C632.591 41.358 631.858 41.5241 631.176 41.7543C630.503 41.9759 629.958 42.3125 629.54 42.7642C629.131 43.2074 628.926 43.8125 628.926 44.5795C628.926 45.6278 629.314 46.4205 630.09 46.9574C630.874 47.4858 631.867 47.75 633.068 47.75ZM647.115 50V30.3636H650.03V33.4318H650.285C650.694 32.3835 651.355 31.5696 652.267 30.9901C653.179 30.402 654.274 30.108 655.552 30.108C656.848 30.108 657.926 30.402 658.787 30.9901C659.656 31.5696 660.334 32.3835 660.819 33.4318H661.024C661.527 32.4176 662.281 31.6122 663.287 31.0156C664.292 30.4105 665.498 30.108 666.905 30.108C668.66 30.108 670.096 30.6577 671.213 31.7571C672.329 32.848 672.888 34.5483 672.888 36.858V50H669.871V36.858C669.871 35.4091 669.474 34.3736 668.682 33.7514C667.889 33.1293 666.956 32.8182 665.882 32.8182C664.501 32.8182 663.432 33.2358 662.673 34.071C661.915 34.8977 661.535 35.946 661.535 37.2159V50H658.467V36.5511C658.467 35.4347 658.105 34.5355 657.381 33.8537C656.656 33.1634 655.723 32.8182 654.581 32.8182C653.797 32.8182 653.064 33.027 652.382 33.4446C651.709 33.8622 651.163 34.4418 650.746 35.1832C650.336 35.9162 650.132 36.7642 650.132 37.7273V50H647.115ZM686.637 50.4091C684.745 50.4091 683.113 49.9915 681.741 49.1562C680.377 48.3125 679.324 47.1364 678.583 45.6278C677.85 44.1108 677.483 42.3466 677.483 40.3352C677.483 38.3239 677.85 36.5511 678.583 35.017C679.324 33.4744 680.356 32.2727 681.677 31.4119C683.006 30.5426 684.557 30.108 686.33 30.108C687.353 30.108 688.363 30.2784 689.36 30.6193C690.357 30.9602 691.265 31.5142 692.083 32.2812C692.901 33.0398 693.553 34.0455 694.039 35.2983C694.525 36.5511 694.768 38.0937 694.768 39.9261V41.2045H679.631V38.5966H691.699C691.699 37.4886 691.478 36.5 691.035 35.6307C690.6 34.7614 689.978 34.0753 689.168 33.5724C688.367 33.0696 687.421 32.8182 686.33 32.8182C685.128 32.8182 684.089 33.1165 683.211 33.7131C682.341 34.3011 681.672 35.0682 681.204 36.0142C680.735 36.9602 680.501 37.9744 680.501 39.0568V40.7955C680.501 42.2784 680.756 43.5355 681.268 44.5668C681.787 45.5895 682.508 46.3693 683.428 46.9062C684.349 47.4347 685.418 47.6989 686.637 47.6989C687.43 47.6989 688.145 47.5881 688.785 47.3665C689.432 47.1364 689.991 46.7955 690.459 46.3438C690.928 45.8835 691.29 45.3125 691.546 44.6307L694.461 45.4489C694.154 46.4375 693.638 47.3068 692.914 48.0568C692.189 48.7983 691.295 49.3778 690.229 49.7955C689.164 50.2045 687.966 50.4091 686.637 50.4091ZM720.834 32H717.664C717.476 31.0881 717.148 30.2869 716.68 29.5966C716.219 28.9062 715.657 28.3267 714.992 27.858C714.336 27.3807 713.607 27.0227 712.806 26.7841C712.005 26.5455 711.17 26.4261 710.3 26.4261C708.715 26.4261 707.279 26.8267 705.992 27.6278C704.714 28.429 703.695 29.6094 702.937 31.169C702.187 32.7287 701.812 34.642 701.812 36.9091C701.812 39.1761 702.187 41.0895 702.937 42.6491C703.695 44.2088 704.714 45.3892 705.992 46.1903C707.279 46.9915 708.715 47.392 710.3 47.392C711.17 47.392 712.005 47.2727 712.806 47.0341C713.607 46.7955 714.336 46.4418 714.992 45.973C715.657 45.4957 716.219 44.9119 716.68 44.2216C717.148 43.5227 717.476 42.7216 717.664 41.8182H720.834C720.596 43.1562 720.161 44.3537 719.53 45.4105C718.9 46.4673 718.116 47.3665 717.178 48.108C716.241 48.8409 715.188 49.3991 714.02 49.7827C712.861 50.1662 711.621 50.358 710.3 50.358C708.067 50.358 706.081 49.8125 704.343 48.7216C702.604 47.6307 701.236 46.0795 700.239 44.0682C699.242 42.0568 698.743 39.6705 698.743 36.9091C698.743 34.1477 699.242 31.7614 700.239 29.75C701.236 27.7386 702.604 26.1875 704.343 25.0966C706.081 24.0057 708.067 23.4602 710.3 23.4602C711.621 23.4602 712.861 23.652 714.02 24.0355C715.188 24.419 716.241 24.9815 717.178 25.723C718.116 26.456 718.9 27.3509 719.53 28.4077C720.161 29.456 720.596 30.6534 720.834 32ZM728.566 38.1875V50H725.548V23.8182H728.566V33.4318H728.821C729.281 32.4176 729.972 31.6122 730.892 31.0156C731.821 30.4105 733.057 30.108 734.6 30.108C735.938 30.108 737.11 30.3764 738.115 30.9134C739.121 31.4418 739.901 32.2557 740.455 33.3551C741.017 34.446 741.298 35.8352 741.298 37.5227V50H738.281V37.7273C738.281 36.1676 737.877 34.9616 737.067 34.1094C736.266 33.2486 735.154 32.8182 733.73 32.8182C732.742 32.8182 731.855 33.027 731.071 33.4446C730.296 33.8622 729.682 34.4716 729.23 35.2727C728.787 36.0739 728.566 37.0455 728.566 38.1875ZM752.596 50.4602C751.352 50.4602 750.223 50.2259 749.209 49.7571C748.194 49.2798 747.389 48.5938 746.792 47.6989C746.196 46.7955 745.898 45.7045 745.898 44.4261C745.898 43.3011 746.119 42.3892 746.562 41.6903C747.006 40.983 747.598 40.429 748.339 40.0284C749.081 39.6278 749.899 39.3295 750.794 39.1335C751.697 38.929 752.605 38.767 753.517 38.6477C754.71 38.4943 755.677 38.3793 756.419 38.3026C757.169 38.2173 757.714 38.0767 758.055 37.8807C758.405 37.6847 758.579 37.3437 758.579 36.858V36.7557C758.579 35.4943 758.234 34.5142 757.544 33.8153C756.862 33.1165 755.827 32.767 754.437 32.767C752.997 32.767 751.868 33.0824 751.05 33.7131C750.231 34.3437 749.656 35.017 749.324 35.733L746.46 34.7102C746.971 33.517 747.653 32.5881 748.506 31.9233C749.366 31.25 750.304 30.7812 751.318 30.517C752.341 30.2443 753.346 30.108 754.335 30.108C754.966 30.108 755.69 30.1847 756.508 30.3381C757.335 30.483 758.132 30.7855 758.899 31.2457C759.675 31.706 760.318 32.4006 760.829 33.3295C761.341 34.2585 761.596 35.5028 761.596 37.0625V50H758.579V47.3409H758.426C758.221 47.767 757.881 48.223 757.403 48.7088C756.926 49.1946 756.291 49.608 755.498 49.9489C754.706 50.2898 753.738 50.4602 752.596 50.4602ZM753.057 47.75C754.25 47.75 755.256 47.5156 756.074 47.0469C756.9 46.5781 757.523 45.973 757.94 45.2315C758.366 44.4901 758.579 43.7102 758.579 42.892V40.1307C758.452 40.2841 758.17 40.4247 757.736 40.5526C757.309 40.6719 756.815 40.7784 756.253 40.8722C755.699 40.9574 755.157 41.0341 754.629 41.1023C754.109 41.1619 753.687 41.2131 753.363 41.2557C752.579 41.358 751.846 41.5241 751.165 41.7543C750.491 41.9759 749.946 42.3125 749.528 42.7642C749.119 43.2074 748.915 43.8125 748.915 44.5795C748.915 45.6278 749.302 46.4205 750.078 46.9574C750.862 47.4858 751.855 47.75 753.057 47.75ZM770.12 38.1875V50H767.103V30.3636H770.018V33.4318H770.274C770.734 32.4347 771.433 31.6335 772.37 31.0284C773.308 30.4148 774.518 30.108 776.001 30.108C777.33 30.108 778.494 30.3807 779.491 30.9261C780.488 31.4631 781.264 32.2812 781.818 33.3807C782.372 34.4716 782.649 35.8523 782.649 37.5227V50H779.632V37.7273C779.632 36.1847 779.231 34.983 778.43 34.1222C777.629 33.2528 776.529 32.8182 775.132 32.8182C774.169 32.8182 773.308 33.027 772.549 33.4446C771.799 33.8622 771.207 34.4716 770.772 35.2727C770.338 36.0739 770.12 37.0455 770.12 38.1875ZM796.088 57.7727C794.631 57.7727 793.378 57.5852 792.329 57.2102C791.281 56.8438 790.407 56.358 789.709 55.7528C789.018 55.1563 788.469 54.517 788.059 53.8352L790.463 52.1477C790.736 52.5057 791.081 52.9148 791.498 53.375C791.916 53.8438 792.487 54.2486 793.211 54.5895C793.944 54.9389 794.903 55.1136 796.088 55.1136C797.673 55.1136 798.981 54.7301 800.013 53.9631C801.044 53.196 801.559 51.9943 801.559 50.358V46.3693H801.304C801.082 46.7273 800.767 47.1705 800.358 47.6989C799.957 48.2188 799.378 48.6832 798.619 49.0923C797.869 49.4929 796.855 49.6932 795.577 49.6932C793.991 49.6932 792.568 49.3182 791.307 48.5682C790.054 47.8182 789.061 46.7273 788.328 45.2955C787.604 43.8636 787.241 42.125 787.241 40.0795C787.241 38.0682 787.595 36.3168 788.302 34.8253C789.01 33.3253 789.994 32.1662 791.256 31.348C792.517 30.5213 793.974 30.108 795.628 30.108C796.906 30.108 797.92 30.321 798.67 30.7472C799.429 31.1648 800.008 31.642 800.409 32.179C800.818 32.7074 801.133 33.142 801.355 33.483H801.662V30.3636H804.577V50.5625C804.577 52.25 804.193 53.6222 803.426 54.679C802.667 55.7443 801.645 56.5241 800.358 57.0185C799.079 57.5213 797.656 57.7727 796.088 57.7727ZM795.986 46.983C797.196 46.983 798.219 46.706 799.054 46.152C799.889 45.598 800.524 44.8011 800.959 43.7614C801.393 42.7216 801.611 41.4773 801.611 40.0284C801.611 38.6136 801.398 37.3651 800.971 36.2827C800.545 35.2003 799.915 34.3523 799.079 33.7386C798.244 33.125 797.213 32.8182 795.986 32.8182C794.707 32.8182 793.642 33.142 792.79 33.7898C791.946 34.4375 791.311 35.3068 790.885 36.3977C790.467 37.4886 790.258 38.6989 790.258 40.0284C790.258 41.392 790.471 42.598 790.898 43.6463C791.332 44.6861 791.971 45.5043 792.815 46.1009C793.667 46.6889 794.724 46.983 795.986 46.983ZM818.332 50.4091C816.44 50.4091 814.808 49.9915 813.436 49.1562C812.072 48.3125 811.02 47.1364 810.278 45.6278C809.545 44.1108 809.179 42.3466 809.179 40.3352C809.179 38.3239 809.545 36.5511 810.278 35.017C811.02 33.4744 812.051 32.2727 813.372 31.4119C814.702 30.5426 816.253 30.108 818.025 30.108C819.048 30.108 820.058 30.2784 821.055 30.6193C822.052 30.9602 822.96 31.5142 823.778 32.2812C824.596 33.0398 825.248 34.0455 825.734 35.2983C826.22 36.5511 826.463 38.0937 826.463 39.9261V41.2045H811.327V38.5966H823.395C823.395 37.4886 823.173 36.5 822.73 35.6307C822.295 34.7614 821.673 34.0753 820.863 33.5724C820.062 33.0696 819.116 32.8182 818.025 32.8182C816.824 32.8182 815.784 33.1165 814.906 33.7131C814.037 34.3011 813.368 35.0682 812.899 36.0142C812.43 36.9602 812.196 37.9744 812.196 39.0568V40.7955C812.196 42.2784 812.452 43.5355 812.963 44.5668C813.483 45.5895 814.203 46.3693 815.123 46.9062C816.044 47.4347 817.113 47.6989 818.332 47.6989C819.125 47.6989 819.841 47.5881 820.48 47.3665C821.128 47.1364 821.686 46.7955 822.155 46.3438C822.623 45.8835 822.986 45.3125 823.241 44.6307L826.156 45.4489C825.849 46.4375 825.334 47.3068 824.609 48.0568C823.885 48.7983 822.99 49.3778 821.925 49.7955C820.859 50.2045 819.662 50.4091 818.332 50.4091ZM831.052 50V30.3636H833.967V33.3295H834.172C834.53 32.358 835.177 31.5696 836.115 30.9645C837.052 30.3594 838.109 30.0568 839.285 30.0568C839.507 30.0568 839.784 30.0611 840.116 30.0696C840.449 30.0781 840.7 30.0909 840.871 30.108V33.1761C840.768 33.1506 840.534 33.1122 840.167 33.0611C839.809 33.0014 839.43 32.9716 839.03 32.9716C838.075 32.9716 837.223 33.1719 836.473 33.5724C835.731 33.9645 835.143 34.5099 834.709 35.2088C834.282 35.8991 834.069 36.6875 834.069 37.5739V50H831.052Z" fill="black"/>
</g>
<defs>
<clipPath id="clip0_2_108">
<rect width="1440" height="1024" fill="white"/>
</clipPath>
</defs>
</svg>
