<svg width="92" height="15" viewBox="0 0 92 15" fill="none" xmlns="http://www.w3.org/2000/svg">
<path d="M11.534 0.19893V14.7444H9.82944L1.9033 3.32393H1.76125V14.7444H-0.000110865V0.19893H1.70443L9.65898 11.6478H9.80103V0.19893H11.534ZM19.4051 14.9717C18.3539 14.9717 17.4472 14.7396 16.6849 14.2756C15.9273 13.8069 15.3426 13.1535 14.9306 12.3154C14.5234 11.4726 14.3198 10.4925 14.3198 9.37507C14.3198 8.25764 14.5234 7.27279 14.9306 6.42052C15.3426 5.56351 15.9155 4.8959 16.6494 4.41768C17.388 3.93473 18.2498 3.69325 19.2346 3.69325C19.8028 3.69325 20.3639 3.78795 20.9179 3.97734C21.4718 4.16673 21.9761 4.4745 22.4306 4.90063C22.8852 5.32204 23.2474 5.88075 23.5173 6.57677C23.7872 7.27279 23.9221 8.1298 23.9221 9.14779V9.85802H15.513V8.40916H22.2176C22.2176 7.79363 22.0945 7.24438 21.8483 6.76143C21.6068 6.27848 21.2611 5.89732 20.8113 5.61796C20.3662 5.33861 19.8407 5.19893 19.2346 5.19893C18.567 5.19893 17.9894 5.36465 17.5017 5.69609C17.0187 6.02279 16.647 6.44893 16.3866 6.9745C16.1262 7.50007 15.996 8.06351 15.996 8.66484V9.63075C15.996 10.4546 16.138 11.153 16.4221 11.7259C16.7109 12.2941 17.111 12.7273 17.6224 13.0256C18.1338 13.3192 18.728 13.466 19.4051 13.466C19.8454 13.466 20.2431 13.4044 20.5983 13.2813C20.9581 13.1535 21.2682 12.9641 21.5287 12.7131C21.7891 12.4575 21.9903 12.1402 22.1323 11.7614L23.7517 12.216C23.5812 12.7652 23.2948 13.2482 22.8923 13.6648C22.4898 14.0768 21.9927 14.3987 21.4008 14.6307C20.809 14.858 20.1437 14.9717 19.4051 14.9717ZM28.9434 14.7444L25.6196 3.83529H27.3809L29.7389 12.1876H29.8525L32.1821 3.83529H33.9718L36.273 12.1592H36.3866L38.7446 3.83529H40.5059L37.1821 14.7444H35.5343L33.148 6.3637H32.9775L30.5912 14.7444H28.9434ZM58.5173 4.74438C58.361 4.26616 58.1551 3.83766 57.8994 3.45887C57.6484 3.07535 57.3478 2.74865 56.9974 2.47876C56.6518 2.20887 56.2588 2.00291 55.8184 1.86086C55.3781 1.71882 54.8951 1.64779 54.3696 1.64779C53.5078 1.64779 52.7242 1.87033 52.0187 2.31541C51.3132 2.76048 50.7521 3.41626 50.3355 4.28274C49.9188 5.14921 49.7105 6.21219 49.7105 7.47166C49.7105 8.73113 49.9212 9.7941 50.3426 10.6606C50.764 11.5271 51.3345 12.1828 52.0542 12.6279C52.7739 13.073 53.5836 13.2955 54.4832 13.2955C55.3165 13.2955 56.0504 13.118 56.6849 12.7629C57.3241 12.403 57.8213 11.8964 58.1764 11.243C58.5362 10.5848 58.7162 9.81067 58.7162 8.92052L59.2559 9.03416H54.8809V7.47166H60.4207V9.03416C60.4207 10.2321 60.165 11.2737 59.6537 12.1592C59.147 13.0446 58.4463 13.7311 57.5514 14.2188C56.6612 14.7018 55.6385 14.9432 54.4832 14.9432C53.1953 14.9432 52.0637 14.6402 51.0883 14.0342C50.1177 13.4281 49.3601 12.5664 48.8156 11.4489C48.2758 10.3315 48.0059 9.00575 48.0059 7.47166C48.0059 6.32109 48.1598 5.28652 48.4676 4.36796C48.7801 3.44467 49.2204 2.65868 49.7886 2.01001C50.3568 1.36134 51.0291 0.864176 51.8056 0.518532C52.5822 0.172888 53.4368 6.60419e-05 54.3696 6.60419e-05C55.1366 6.60419e-05 55.8516 0.11607 56.5144 0.348077C57.1821 0.57535 57.7763 0.899687 58.2971 1.32109C58.8227 1.73776 59.2607 2.23728 59.611 2.81967C59.9614 3.39732 60.2029 4.03889 60.3355 4.74438H58.5173ZM63.2101 14.7444V3.83529H64.8294V5.48302H64.9431C65.1419 4.94325 65.5018 4.50527 66.0226 4.1691C66.5434 3.83293 67.1306 3.66484 67.784 3.66484C67.9071 3.66484 68.061 3.66721 68.2456 3.67194C68.4303 3.67668 68.57 3.68378 68.6647 3.69325V5.39779C68.6078 5.38359 68.4776 5.36228 68.274 5.33387C68.0752 5.30073 67.8645 5.28416 67.6419 5.28416C67.1116 5.28416 66.6381 5.39543 66.2215 5.61796C65.8095 5.83577 65.4828 6.1388 65.2414 6.52705C65.0046 6.91058 64.8863 7.34855 64.8863 7.84098V14.7444H63.2101ZM73.8618 15.0001C73.1705 15.0001 72.5431 14.8699 71.9796 14.6094C71.4162 14.3443 70.9688 13.9631 70.6373 13.466C70.3059 12.9641 70.1402 12.358 70.1402 11.6478C70.1402 11.0228 70.2633 10.5162 70.5095 10.1279C70.7557 9.73491 71.0848 9.42715 71.4967 9.20461C71.9086 8.98207 72.3632 8.81635 72.8603 8.70745C73.3622 8.59382 73.8665 8.50385 74.3731 8.43757C75.036 8.35234 75.5734 8.28842 75.9853 8.2458C76.402 8.19846 76.705 8.12033 76.8944 8.01143C77.0885 7.90253 77.1856 7.71313 77.1856 7.44325V7.38643C77.1856 6.68567 76.9939 6.14116 76.6103 5.75291C76.2315 5.36465 75.6563 5.17052 74.8845 5.17052C74.0843 5.17052 73.4569 5.34571 73.0024 5.69609C72.5478 6.04647 72.2282 6.42052 72.0436 6.81825L70.4527 6.25007C70.7367 5.58719 71.1155 5.07109 71.589 4.70177C72.0672 4.32772 72.5881 4.0673 73.1515 3.92052C73.7197 3.76901 74.2784 3.69325 74.8277 3.69325C75.178 3.69325 75.5805 3.73586 76.035 3.82109C76.4943 3.90158 76.937 4.06967 77.3632 4.32535C77.794 4.58103 78.1515 4.96692 78.4356 5.48302C78.7197 5.99912 78.8618 6.69041 78.8618 7.55688V14.7444H77.1856V13.2671H77.1004C76.9867 13.5039 76.7974 13.7572 76.5322 14.0271C76.2671 14.2969 75.9143 14.5266 75.474 14.716C75.0336 14.9054 74.4962 15.0001 73.8618 15.0001ZM74.1174 13.4944C74.7803 13.4944 75.339 13.3642 75.7936 13.1038C76.2528 12.8433 76.5985 12.5072 76.8305 12.0952C77.0672 11.6833 77.1856 11.2501 77.1856 10.7955V9.26143C77.1146 9.34666 76.9583 9.42478 76.7169 9.4958C76.4801 9.56209 76.2055 9.62128 75.893 9.67336C75.5852 9.72071 75.2846 9.76332 74.991 9.8012C74.7022 9.83435 74.4678 9.86276 74.2879 9.88643C73.8523 9.94325 73.4451 10.0356 73.0663 10.1634C72.6922 10.2865 72.3892 10.4736 72.1572 10.7245C71.9299 10.9707 71.8163 11.3069 71.8163 11.733C71.8163 12.3154 72.0317 12.7557 72.4626 13.054C72.8982 13.3476 73.4498 13.4944 74.1174 13.4944ZM86.0404 14.9717C85.1313 14.9717 84.3287 14.742 83.6327 14.2827C82.9367 13.8187 82.3922 13.1653 81.9992 12.3225C81.6062 11.475 81.4097 10.4736 81.4097 9.31825C81.4097 8.17241 81.6062 7.1781 81.9992 6.33529C82.3922 5.49249 82.939 4.84145 83.6398 4.38217C84.3406 3.92289 85.1502 3.69325 86.0688 3.69325C86.779 3.69325 87.3401 3.81162 87.752 4.04836C88.1687 4.28037 88.4859 4.54552 88.7037 4.84382C88.9263 5.13738 89.0991 5.37885 89.2222 5.56825H89.3642V0.19893H91.0404V14.7444H89.4211V13.0682H89.2222C89.0991 13.2671 88.9239 13.5181 88.6966 13.8211C88.4693 14.1194 88.145 14.3869 87.7236 14.6236C87.3022 14.8557 86.7411 14.9717 86.0404 14.9717ZM86.2676 13.466C86.94 13.466 87.5082 13.2908 87.9722 12.9404C88.4362 12.5853 88.789 12.0952 89.0304 11.4702C89.2719 10.8405 89.3926 10.1137 89.3926 9.28984C89.3926 8.47544 89.2743 7.76285 89.0375 7.15205C88.8008 6.53652 88.4504 6.05831 87.9864 5.7174C87.5224 5.37175 86.9495 5.19893 86.2676 5.19893C85.5574 5.19893 84.9656 5.38122 84.4921 5.7458C84.0233 6.10565 83.6706 6.59571 83.4338 7.21598C83.2018 7.83151 83.0858 8.52279 83.0858 9.28984C83.0858 10.0664 83.2042 10.7718 83.4409 11.4063C83.6824 12.0361 84.0375 12.5379 84.5063 12.912C84.9798 13.2813 85.5669 13.466 86.2676 13.466Z" fill="black"/>
</svg>
