<svg width="102" height="15" viewBox="0 0 102 15" fill="none" xmlns="http://www.w3.org/2000/svg">
<path d="M8.57943 3.83529C8.49421 3.1156 8.14856 2.55688 7.5425 2.15916C6.93644 1.76143 6.19307 1.56257 5.31239 1.56257C4.66845 1.56257 4.105 1.66673 3.62205 1.87507C3.14383 2.0834 2.76978 2.36986 2.49989 2.73444C2.23474 3.09902 2.10216 3.51332 2.10216 3.97734C2.10216 4.3656 2.19449 4.6994 2.37915 4.97876C2.56854 5.25338 2.81002 5.48302 3.10358 5.66768C3.39714 5.8476 3.70491 5.99675 4.02688 6.11512C4.34885 6.22876 4.64478 6.32109 4.91466 6.39211L6.39193 6.78984C6.77072 6.88927 7.19212 7.02658 7.65614 7.20177C8.12489 7.37696 8.57233 7.61607 8.99847 7.9191C9.42934 8.2174 9.78445 8.60092 10.0638 9.06967C10.3432 9.53842 10.4828 10.1137 10.4828 10.7955C10.4828 11.5815 10.2769 12.2917 9.86495 12.9262C9.45775 13.5607 8.86116 14.0649 8.07517 14.439C7.29392 14.813 6.34459 15.0001 5.22716 15.0001C4.1855 15.0001 3.28351 14.832 2.5212 14.4958C1.76362 14.1596 1.16703 13.6909 0.731423 13.0896C0.300552 12.4882 0.0567072 11.7898 -0.000110939 10.9944H1.81807C1.86542 11.5436 2.05008 11.9982 2.37205 12.358C2.69875 12.7131 3.11068 12.9783 3.60784 13.1535C4.10974 13.3239 4.64951 13.4092 5.22716 13.4092C5.89951 13.4092 6.5032 13.3003 7.03824 13.0825C7.57328 12.8599 7.99705 12.5521 8.30955 12.1592C8.62205 11.7614 8.7783 11.2974 8.7783 10.7671C8.7783 10.2842 8.64336 9.89116 8.37347 9.58813C8.10358 9.2851 7.74847 9.03889 7.30813 8.8495C6.86779 8.6601 6.39193 8.49438 5.88057 8.35234L4.0908 7.84098C2.95443 7.51427 2.05481 7.04789 1.39193 6.44183C0.729056 5.83577 0.397616 5.04268 0.397616 4.06257C0.397616 3.24817 0.617787 2.53794 1.05813 1.93188C1.5032 1.32109 2.09979 0.847604 2.8479 0.51143C3.60074 0.170521 4.44118 6.60419e-05 5.36921 6.60419e-05C6.30671 6.60419e-05 7.14004 0.168153 7.86921 0.504327C8.59837 0.835766 9.17603 1.29031 9.60216 1.86796C10.033 2.44562 10.2603 3.10139 10.284 3.83529H8.57943ZM17.7254 14.9717C16.6742 14.9717 15.7675 14.7396 15.0052 14.2756C14.2476 13.8069 13.6629 13.1535 13.251 12.3154C12.8438 11.4726 12.6402 10.4925 12.6402 9.37507C12.6402 8.25764 12.8438 7.27279 13.251 6.42052C13.6629 5.56351 14.2358 4.8959 14.9697 4.41768C15.7083 3.93473 16.5701 3.69325 17.5549 3.69325C18.1231 3.69325 18.6842 3.78795 19.2382 3.97734C19.7921 4.16673 20.2964 4.4745 20.751 4.90063C21.2055 5.32204 21.5677 5.88075 21.8376 6.57677C22.1075 7.27279 22.2424 8.1298 22.2424 9.14779V9.85802H13.8333V8.40916H20.5379C20.5379 7.79363 20.4148 7.24438 20.1686 6.76143C19.9271 6.27848 19.5814 5.89732 19.1316 5.61796C18.6866 5.33861 18.161 5.19893 17.5549 5.19893C16.8873 5.19893 16.3097 5.36465 15.822 5.69609C15.339 6.02279 14.9673 6.44893 14.7069 6.9745C14.4465 7.50007 14.3163 8.06351 14.3163 8.66484V9.63075C14.3163 10.4546 14.4583 11.153 14.7424 11.7259C15.0313 12.2941 15.4314 12.7273 15.9427 13.0256C16.4541 13.3192 17.0483 13.466 17.7254 13.466C18.1657 13.466 18.5635 13.4044 18.9186 13.2813C19.2784 13.1535 19.5885 12.9641 19.849 12.7131C20.1094 12.4575 20.3106 12.1402 20.4527 11.7614L22.072 12.216C21.9015 12.7652 21.6151 13.2482 21.2126 13.6648C20.8101 14.0768 20.313 14.3987 19.7211 14.6307C19.1293 14.858 18.464 14.9717 17.7254 14.9717ZM26.4683 0.19893V14.7444H24.7921V0.19893H26.4683ZM34.1121 14.9717C33.061 14.9717 32.1542 14.7396 31.3919 14.2756C30.6344 13.8069 30.0496 13.1535 29.6377 12.3154C29.2305 11.4726 29.0269 10.4925 29.0269 9.37507C29.0269 8.25764 29.2305 7.27279 29.6377 6.42052C30.0496 5.56351 30.6225 4.8959 31.3564 4.41768C32.0951 3.93473 32.9568 3.69325 33.9417 3.69325C34.5098 3.69325 35.0709 3.78795 35.6249 3.97734C36.1789 4.16673 36.6831 4.4745 37.1377 4.90063C37.5922 5.32204 37.9544 5.88075 38.2243 6.57677C38.4942 7.27279 38.6292 8.1298 38.6292 9.14779V9.85802H30.2201V8.40916H36.9246C36.9246 7.79363 36.8015 7.24438 36.5553 6.76143C36.3138 6.27848 35.9682 5.89732 35.5184 5.61796C35.0733 5.33861 34.5477 5.19893 33.9417 5.19893C33.274 5.19893 32.6964 5.36465 32.2087 5.69609C31.7257 6.02279 31.3541 6.44893 31.0936 6.9745C30.8332 7.50007 30.703 8.06351 30.703 8.66484V9.63075C30.703 10.4546 30.8451 11.153 31.1292 11.7259C31.418 12.2941 31.8181 12.7273 32.3294 13.0256C32.8408 13.3192 33.435 13.466 34.1121 13.466C34.5524 13.466 34.9502 13.4044 35.3053 13.2813C35.6651 13.1535 35.9753 12.9641 36.2357 12.7131C36.4961 12.4575 36.6973 12.1402 36.8394 11.7614L38.4587 12.216C38.2882 12.7652 38.0018 13.2482 37.5993 13.6648C37.1969 14.0768 36.6997 14.3987 36.1078 14.6307C35.516 14.858 34.8507 14.9717 34.1121 14.9717ZM45.6107 14.9717C44.588 14.9717 43.7073 14.7302 42.9686 14.2472C42.23 13.7643 41.6618 13.099 41.2641 12.2515C40.8664 11.4039 40.6675 10.4357 40.6675 9.34666C40.6675 8.2387 40.8711 7.26096 41.2783 6.41342C41.6902 5.56115 42.2631 4.8959 42.997 4.41768C43.7357 3.93473 44.5974 3.69325 45.5823 3.69325C46.3493 3.69325 47.0406 3.83529 47.6561 4.11938C48.2717 4.40348 48.7759 4.8012 49.1689 5.31257C49.5619 5.82393 49.8058 6.42052 49.9005 7.10234H48.2243C48.0965 6.60518 47.8124 6.16484 47.372 5.78132C46.9364 5.39306 46.3493 5.19893 45.6107 5.19893C44.9573 5.19893 44.3844 5.36938 43.8919 5.71029C43.4042 6.04647 43.0231 6.52232 42.7485 7.13785C42.4786 7.74865 42.3436 8.46598 42.3436 9.28984C42.3436 10.1326 42.4762 10.8665 42.7414 11.4915C43.0113 12.1165 43.39 12.6019 43.8777 12.9475C44.3702 13.2932 44.9478 13.466 45.6107 13.466C46.0463 13.466 46.4417 13.3902 46.7968 13.2387C47.1519 13.0872 47.4525 12.8694 47.6988 12.5853C47.945 12.3012 48.1202 11.9603 48.2243 11.5626H49.9005C49.8058 12.2065 49.5714 12.7865 49.1973 13.3026C48.828 13.814 48.338 14.2212 47.7272 14.5242C47.1211 14.8225 46.4156 14.9717 45.6107 14.9717ZM57.0951 3.83529V5.25575H51.4417V3.83529H57.0951ZM53.0894 1.22166H54.7655V11.6194C54.7655 12.0929 54.8342 12.448 54.9715 12.6847C55.1135 12.9167 55.2934 13.073 55.5113 13.1535C55.7338 13.2292 55.9682 13.2671 56.2144 13.2671C56.399 13.2671 56.5506 13.2576 56.6689 13.2387C56.7873 13.215 56.882 13.1961 56.953 13.1819L57.2939 14.6876C57.1803 14.7302 57.0217 14.7728 56.8181 14.8154C56.6145 14.8628 56.3564 14.8864 56.0439 14.8864C55.5704 14.8864 55.1064 14.7846 54.6519 14.581C54.2021 14.3774 53.828 14.0673 53.5297 13.6506C53.2362 13.234 53.0894 12.7084 53.0894 12.0739V1.22166ZM77.7414 7.47166C77.7414 9.00575 77.4644 10.3315 76.9104 11.4489C76.3564 12.5664 75.5965 13.4281 74.6306 14.0342C73.6647 14.6402 72.5614 14.9432 71.3209 14.9432C70.0804 14.9432 68.9772 14.6402 68.0113 14.0342C67.0453 13.4281 66.2854 12.5664 65.7314 11.4489C65.1774 10.3315 64.9005 9.00575 64.9005 7.47166C64.9005 5.93757 65.1774 4.61181 65.7314 3.49438C66.2854 2.37696 67.0453 1.51522 68.0113 0.909157C68.9772 0.303096 70.0804 6.60419e-05 71.3209 6.60419e-05C72.5614 6.60419e-05 73.6647 0.303096 74.6306 0.909157C75.5965 1.51522 76.3564 2.37696 76.9104 3.49438C77.4644 4.61181 77.7414 5.93757 77.7414 7.47166ZM76.0368 7.47166C76.0368 6.21219 75.8261 5.14921 75.4047 4.28274C74.9881 3.41626 74.4222 2.76048 73.7073 2.31541C72.997 1.87033 72.2016 1.64779 71.3209 1.64779C70.4402 1.64779 69.6424 1.87033 68.9274 2.31541C68.2172 2.76048 67.6514 3.41626 67.23 4.28274C66.8133 5.14921 66.605 6.21219 66.605 7.47166C66.605 8.73113 66.8133 9.7941 67.23 10.6606C67.6514 11.5271 68.2172 12.1828 68.9274 12.6279C69.6424 13.073 70.4402 13.2955 71.3209 13.2955C72.2016 13.2955 72.997 13.073 73.7073 12.6279C74.4222 12.1828 74.9881 11.5271 75.4047 10.6606C75.8261 9.7941 76.0368 8.73113 76.0368 7.47166ZM82.1519 8.18188V14.7444H80.4757V3.83529H82.0951V5.53984H82.2371C82.4928 4.98586 82.881 4.54079 83.4019 4.20461C83.9227 3.8637 84.5951 3.69325 85.4189 3.69325C86.1576 3.69325 86.8039 3.84476 87.3578 4.14779C87.9118 4.44609 88.3427 4.90063 88.6505 5.51143C88.9582 6.11749 89.1121 6.88454 89.1121 7.81257V14.7444H87.436V7.9262C87.436 7.0692 87.2134 6.40158 86.7684 5.92336C86.3233 5.44041 85.7125 5.19893 84.936 5.19893C84.4009 5.19893 83.9227 5.31493 83.5013 5.54694C83.0846 5.77895 82.7556 6.11749 82.5141 6.56257C82.2726 7.00764 82.1519 7.54741 82.1519 8.18188ZM96.7488 14.9717C95.6977 14.9717 94.791 14.7396 94.0287 14.2756C93.2711 13.8069 92.6863 13.1535 92.2744 12.3154C91.8672 11.4726 91.6636 10.4925 91.6636 9.37507C91.6636 8.25764 91.8672 7.27279 92.2744 6.42052C92.6863 5.56351 93.2592 4.8959 93.9931 4.41768C94.7318 3.93473 95.5935 3.69325 96.5784 3.69325C97.1466 3.69325 97.7076 3.78795 98.2616 3.97734C98.8156 4.16673 99.3198 4.4745 99.7744 4.90063C100.229 5.32204 100.591 5.88075 100.861 6.57677C101.131 7.27279 101.266 8.1298 101.266 9.14779V9.85802H92.8568V8.40916H99.5613C99.5613 7.79363 99.4382 7.24438 99.192 6.76143C98.9505 6.27848 98.6049 5.89732 98.1551 5.61796C97.71 5.33861 97.1844 5.19893 96.5784 5.19893C95.9108 5.19893 95.3331 5.36465 94.8454 5.69609C94.3625 6.02279 93.9908 6.44893 93.7304 6.9745C93.4699 7.50007 93.3397 8.06351 93.3397 8.66484V9.63075C93.3397 10.4546 93.4818 11.153 93.7659 11.7259C94.0547 12.2941 94.4548 12.7273 94.9662 13.0256C95.4775 13.3192 96.0717 13.466 96.7488 13.466C97.1892 13.466 97.5869 13.4044 97.942 13.2813C98.3019 13.1535 98.612 12.9641 98.8724 12.7131C99.1328 12.4575 99.3341 12.1402 99.4761 11.7614L101.095 12.216C100.925 12.7652 100.639 13.2482 100.236 13.6648C99.8336 14.0768 99.3364 14.3987 98.7446 14.6307C98.1527 14.858 97.4875 14.9717 96.7488 14.9717Z" fill="#A4A4A4"/>
</svg>
