<svg width="563" height="46" viewBox="0 0 563 46" fill="none" xmlns="http://www.w3.org/2000/svg">
<rect width="563" height="46" rx="3" fill="white"/>
<path d="M17.358 30H15.5114L20.8523 15.4545H22.6705L28.0114 30H26.1648L21.8182 17.7557H21.7045L17.358 30ZM18.0398 24.3182H25.483V25.8807H18.0398V24.3182ZM30.0497 30V19.0909H31.669V20.7955H31.8111C32.0384 20.2131 32.4053 19.7609 32.9119 19.4389C33.4186 19.1122 34.027 18.9489 34.7372 18.9489C35.4569 18.9489 36.0559 19.1122 36.5341 19.4389C37.017 19.7609 37.3935 20.2131 37.6634 20.7955H37.777C38.0563 20.232 38.4754 19.7846 39.0341 19.4531C39.5928 19.117 40.2628 18.9489 41.044 18.9489C42.0194 18.9489 42.8172 19.2543 43.4375 19.8651C44.0578 20.4711 44.3679 21.4157 44.3679 22.6989V30H42.6918V22.6989C42.6918 21.8939 42.4716 21.3187 42.0312 20.973C41.5909 20.6274 41.0724 20.4545 40.4759 20.4545C39.7088 20.4545 39.1146 20.6866 38.6932 21.1506C38.2718 21.6098 38.0611 22.1922 38.0611 22.8977V30H36.3565V22.5284C36.3565 21.9081 36.1553 21.4086 35.7528 21.0298C35.3504 20.6463 34.8319 20.4545 34.1974 20.4545C33.7618 20.4545 33.3546 20.5705 32.9759 20.8026C32.6018 21.0346 32.2988 21.3565 32.0668 21.7685C31.8395 22.1757 31.7259 22.6468 31.7259 23.1818V30H30.0497ZM51.8643 30.2273C50.8795 30.2273 50.0154 29.9929 49.272 29.5241C48.5334 29.0554 47.9557 28.3996 47.5391 27.5568C47.1271 26.714 46.9212 25.7292 46.9212 24.6023C46.9212 23.4659 47.1271 22.474 47.5391 21.6264C47.9557 20.7789 48.5334 20.1207 49.272 19.652C50.0154 19.1832 50.8795 18.9489 51.8643 18.9489C52.8492 18.9489 53.7109 19.1832 54.4496 19.652C55.1929 20.1207 55.7706 20.7789 56.1825 21.6264C56.5992 22.474 56.8075 23.4659 56.8075 24.6023C56.8075 25.7292 56.5992 26.714 56.1825 27.5568C55.7706 28.3996 55.1929 29.0554 54.4496 29.5241C53.7109 29.9929 52.8492 30.2273 51.8643 30.2273ZM51.8643 28.7216C52.6125 28.7216 53.228 28.5298 53.7109 28.1463C54.1939 27.7628 54.5514 27.2585 54.7834 26.6335C55.0154 26.0085 55.1314 25.3314 55.1314 24.6023C55.1314 23.8731 55.0154 23.1937 54.7834 22.5639C54.5514 21.9342 54.1939 21.4252 53.7109 21.0369C53.228 20.6487 52.6125 20.4545 51.8643 20.4545C51.1162 20.4545 50.5007 20.6487 50.0178 21.0369C49.5348 21.4252 49.1773 21.9342 48.9453 22.5639C48.7133 23.1937 48.5973 23.8731 48.5973 24.6023C48.5973 25.3314 48.7133 26.0085 48.9453 26.6335C49.1773 27.2585 49.5348 27.7628 50.0178 28.1463C50.5007 28.5298 51.1162 28.7216 51.8643 28.7216ZM66.2411 25.5398V19.0909H67.9173V30H66.2411V28.1534H66.1275C65.8718 28.7074 65.4741 29.1785 64.9343 29.5668C64.3945 29.9503 63.7127 30.142 62.8888 30.142C62.207 30.142 61.601 29.9929 61.0707 29.6946C60.5404 29.3916 60.1237 28.937 59.8207 28.331C59.5176 27.7202 59.3661 26.9508 59.3661 26.0227V19.0909H61.0423V25.9091C61.0423 26.7045 61.2648 27.339 61.7099 27.8125C62.1597 28.286 62.7326 28.5227 63.4286 28.5227C63.8453 28.5227 64.2691 28.4162 64.6999 28.2031C65.1355 27.9901 65.5001 27.6634 65.7937 27.223C66.092 26.7827 66.2411 26.2216 66.2411 25.5398ZM72.6634 23.4375V30H70.9872V19.0909H72.6065V20.7955H72.7486C73.0043 20.2415 73.3925 19.7964 73.9134 19.4602C74.4342 19.1193 75.1065 18.9489 75.9304 18.9489C76.669 18.9489 77.3153 19.1004 77.8693 19.4034C78.4233 19.7017 78.8542 20.1562 79.1619 20.767C79.4697 21.3731 79.6236 22.1402 79.6236 23.0682V30H77.9474V23.1818C77.9474 22.3248 77.7249 21.6572 77.2798 21.179C76.8348 20.696 76.224 20.4545 75.4474 20.4545C74.9124 20.4545 74.4342 20.5705 74.0128 20.8026C73.5961 21.0346 73.267 21.3731 73.0256 21.8182C72.7841 22.2633 72.6634 22.803 72.6634 23.4375ZM87.4308 19.0909V20.5114H81.7773V19.0909H87.4308ZM83.4251 16.4773H85.1012V26.875C85.1012 27.3485 85.1699 27.7036 85.3072 27.9403C85.4492 28.1723 85.6291 28.3286 85.8469 28.4091C86.0695 28.4848 86.3039 28.5227 86.5501 28.5227C86.7347 28.5227 86.8862 28.5133 87.0046 28.4943C87.123 28.4706 87.2177 28.4517 87.2887 28.4375L87.6296 29.9432C87.516 29.9858 87.3574 30.0284 87.1538 30.071C86.9502 30.1184 86.6921 30.142 86.3796 30.142C85.9061 30.142 85.4421 30.0402 84.9876 29.8366C84.5378 29.633 84.1637 29.3229 83.8654 28.9062C83.5719 28.4896 83.4251 27.964 83.4251 27.3295V16.4773ZM96.1737 23.8636C96.1737 22.0739 96.4057 20.4285 96.8697 18.9276C97.3384 17.4219 98.006 16.0369 98.8725 14.7727H100.35C100.009 15.2415 99.6893 15.8191 99.391 16.5057C99.0974 17.1875 98.8394 17.938 98.6168 18.7571C98.3943 19.5715 98.2191 20.4143 98.0913 21.2855C97.9682 22.1567 97.9066 23.0161 97.9066 23.8636C97.9066 24.9905 98.0155 26.134 98.2333 27.294C98.4511 28.4541 98.7447 29.5312 99.114 30.5256C99.4833 31.5199 99.8952 32.3295 100.35 32.9545H98.8725C98.006 31.6903 97.3384 30.3078 96.8697 28.8068C96.4057 27.3011 96.1737 25.6534 96.1737 23.8636ZM107.021 30.2273C106.036 30.2273 105.172 29.9929 104.428 29.5241C103.69 29.0554 103.112 28.3996 102.695 27.5568C102.283 26.714 102.077 25.7292 102.077 24.6023C102.077 23.4659 102.283 22.474 102.695 21.6264C103.112 20.7789 103.69 20.1207 104.428 19.652C105.172 19.1832 106.036 18.9489 107.021 18.9489C108.005 18.9489 108.867 19.1832 109.606 19.652C110.349 20.1207 110.927 20.7789 111.339 21.6264C111.755 22.474 111.964 23.4659 111.964 24.6023C111.964 25.7292 111.755 26.714 111.339 27.5568C110.927 28.3996 110.349 29.0554 109.606 29.5241C108.867 29.9929 108.005 30.2273 107.021 30.2273ZM107.021 28.7216C107.769 28.7216 108.384 28.5298 108.867 28.1463C109.35 27.7628 109.708 27.2585 109.94 26.6335C110.172 26.0085 110.288 25.3314 110.288 24.6023C110.288 23.8731 110.172 23.1937 109.94 22.5639C109.708 21.9342 109.35 21.4252 108.867 21.0369C108.384 20.6487 107.769 20.4545 107.021 20.4545C106.272 20.4545 105.657 20.6487 105.174 21.0369C104.691 21.4252 104.334 21.9342 104.102 22.5639C103.87 23.1937 103.754 23.8731 103.754 24.6023C103.754 25.3314 103.87 26.0085 104.102 26.6335C104.334 27.2585 104.691 27.7628 105.174 28.1463C105.657 28.5298 106.272 28.7216 107.021 28.7216ZM114.522 34.0909V19.0909H116.142V20.8239H116.341C116.464 20.6345 116.634 20.393 116.852 20.0994C117.074 19.8011 117.392 19.536 117.804 19.304C118.22 19.0672 118.784 18.9489 119.494 18.9489C120.413 18.9489 121.222 19.1785 121.923 19.6378C122.624 20.0971 123.171 20.7481 123.564 21.5909C123.957 22.4337 124.153 23.428 124.153 24.5739C124.153 25.7292 123.957 26.7306 123.564 27.5781C123.171 28.4209 122.626 29.0743 121.93 29.5384C121.234 29.9976 120.431 30.2273 119.522 30.2273C118.822 30.2273 118.261 30.1113 117.839 29.8793C117.418 29.6425 117.093 29.375 116.866 29.0767C116.639 28.7737 116.464 28.5227 116.341 28.3239H116.199V34.0909H114.522ZM116.17 24.5455C116.17 25.3693 116.291 26.0961 116.532 26.7259C116.774 27.3509 117.127 27.8409 117.591 28.196C118.055 28.5464 118.623 28.7216 119.295 28.7216C119.996 28.7216 120.581 28.5369 121.049 28.1676C121.523 27.7936 121.878 27.2917 122.115 26.6619C122.356 26.0275 122.477 25.322 122.477 24.5455C122.477 23.7784 122.359 23.0871 122.122 22.4716C121.89 21.8513 121.537 21.3613 121.064 21.0014C120.595 20.6368 120.005 20.4545 119.295 20.4545C118.613 20.4545 118.04 20.6274 117.576 20.973C117.112 21.3139 116.762 21.7921 116.525 22.4077C116.288 23.0185 116.17 23.7311 116.17 24.5455ZM131.454 19.0909V20.5114H125.801V19.0909H131.454ZM127.449 16.4773H129.125V26.875C129.125 27.3485 129.193 27.7036 129.331 27.9403C129.473 28.1723 129.653 28.3286 129.87 28.4091C130.093 28.4848 130.327 28.5227 130.574 28.5227C130.758 28.5227 130.91 28.5133 131.028 28.4943C131.146 28.4706 131.241 28.4517 131.312 28.4375L131.653 29.9432C131.539 29.9858 131.381 30.0284 131.177 30.071C130.974 30.1184 130.716 30.142 130.403 30.142C129.93 30.142 129.466 30.0402 129.011 29.8366C128.561 29.633 128.187 29.3229 127.889 28.9062C127.595 28.4896 127.449 27.964 127.449 27.3295V16.4773ZM133.975 30V19.0909H135.652V30H133.975ZM134.828 17.2727C134.501 17.2727 134.219 17.1615 133.983 16.9389C133.751 16.7164 133.635 16.4489 133.635 16.1364C133.635 15.8239 133.751 15.5563 133.983 15.3338C134.219 15.1113 134.501 15 134.828 15C135.154 15 135.434 15.1113 135.666 15.3338C135.903 15.5563 136.021 15.8239 136.021 16.1364C136.021 16.4489 135.903 16.7164 135.666 16.9389C135.434 17.1615 135.154 17.2727 134.828 17.2727ZM143.153 30.2273C142.169 30.2273 141.304 29.9929 140.561 29.5241C139.822 29.0554 139.245 28.3996 138.828 27.5568C138.416 26.714 138.21 25.7292 138.21 24.6023C138.21 23.4659 138.416 22.474 138.828 21.6264C139.245 20.7789 139.822 20.1207 140.561 19.652C141.304 19.1832 142.169 18.9489 143.153 18.9489C144.138 18.9489 145 19.1832 145.739 19.652C146.482 20.1207 147.06 20.7789 147.472 21.6264C147.888 22.474 148.097 23.4659 148.097 24.6023C148.097 25.7292 147.888 26.714 147.472 27.5568C147.06 28.3996 146.482 29.0554 145.739 29.5241C145 29.9929 144.138 30.2273 143.153 30.2273ZM143.153 28.7216C143.902 28.7216 144.517 28.5298 145 28.1463C145.483 27.7628 145.84 27.2585 146.072 26.6335C146.304 26.0085 146.42 25.3314 146.42 24.6023C146.42 23.8731 146.304 23.1937 146.072 22.5639C145.84 21.9342 145.483 21.4252 145 21.0369C144.517 20.6487 143.902 20.4545 143.153 20.4545C142.405 20.4545 141.79 20.6487 141.307 21.0369C140.824 21.4252 140.466 21.9342 140.234 22.5639C140.002 23.1937 139.886 23.8731 139.886 24.6023C139.886 25.3314 140.002 26.0085 140.234 26.6335C140.466 27.2585 140.824 27.7628 141.307 28.1463C141.79 28.5298 142.405 28.7216 143.153 28.7216ZM152.331 23.4375V30H150.655V19.0909H152.275V20.7955H152.417C152.672 20.2415 153.06 19.7964 153.581 19.4602C154.102 19.1193 154.775 18.9489 155.598 18.9489C156.337 18.9489 156.983 19.1004 157.537 19.4034C158.091 19.7017 158.522 20.1562 158.83 20.767C159.138 21.3731 159.292 22.1402 159.292 23.0682V30H157.615V23.1818C157.615 22.3248 157.393 21.6572 156.948 21.179C156.503 20.696 155.892 20.4545 155.115 20.4545C154.58 20.4545 154.102 20.5705 153.681 20.8026C153.264 21.0346 152.935 21.3731 152.694 21.8182C152.452 22.2633 152.331 22.803 152.331 23.4375ZM165.565 30.2557C164.873 30.2557 164.246 30.1255 163.683 29.8651C163.119 29.5999 162.672 29.2188 162.34 28.7216C162.009 28.2197 161.843 27.6136 161.843 26.9034C161.843 26.2784 161.966 25.7718 162.212 25.3835C162.459 24.9905 162.788 24.6828 163.2 24.4602C163.612 24.2377 164.066 24.072 164.563 23.9631C165.065 23.8494 165.569 23.7595 166.076 23.6932C166.739 23.608 167.276 23.544 167.688 23.5014C168.105 23.4541 168.408 23.3759 168.597 23.267C168.791 23.1581 168.888 22.9687 168.888 22.6989V22.642C168.888 21.9413 168.697 21.3968 168.313 21.0085C167.934 20.6203 167.359 20.4261 166.587 20.4261C165.787 20.4261 165.16 20.6013 164.705 20.9517C164.251 21.3021 163.931 21.6761 163.746 22.0739L162.156 21.5057C162.44 20.8428 162.818 20.3267 163.292 19.9574C163.77 19.5833 164.291 19.3229 164.854 19.1761C165.423 19.0246 165.981 18.9489 166.531 18.9489C166.881 18.9489 167.283 18.9915 167.738 19.0767C168.197 19.1572 168.64 19.3253 169.066 19.581C169.497 19.8366 169.854 20.2225 170.138 20.7386C170.423 21.2547 170.565 21.946 170.565 22.8125V30H168.888V28.5227H168.803C168.69 28.7595 168.5 29.0128 168.235 29.2827C167.97 29.5526 167.617 29.7822 167.177 29.9716C166.737 30.161 166.199 30.2557 165.565 30.2557ZM165.82 28.75C166.483 28.75 167.042 28.6198 167.496 28.3594C167.956 28.099 168.301 27.7628 168.533 27.3509C168.77 26.9389 168.888 26.5057 168.888 26.0511V24.517C168.817 24.6023 168.661 24.6804 168.42 24.7514C168.183 24.8177 167.908 24.8769 167.596 24.929C167.288 24.9763 166.987 25.0189 166.694 25.0568C166.405 25.09 166.171 25.1184 165.991 25.142C165.555 25.1989 165.148 25.2912 164.769 25.419C164.395 25.5421 164.092 25.7292 163.86 25.9801C163.633 26.2263 163.519 26.5625 163.519 26.9886C163.519 27.571 163.735 28.0114 164.165 28.3097C164.601 28.6032 165.153 28.75 165.82 28.75ZM175.3 15.4545V30H173.624V15.4545H175.3ZM181.95 23.8636C181.95 25.6534 181.715 27.3011 181.246 28.8068C180.782 30.3078 180.117 31.6903 179.251 32.9545H177.773C178.114 32.4858 178.432 31.9081 178.725 31.2216C179.023 30.5398 179.284 29.7917 179.506 28.9773C179.729 28.1581 179.902 27.313 180.025 26.4418C180.153 25.5658 180.217 24.7064 180.217 23.8636C180.217 22.7367 180.108 21.5933 179.89 20.4332C179.672 19.2732 179.379 18.196 179.009 17.2017C178.64 16.2074 178.228 15.3977 177.773 14.7727H179.251C180.117 16.0369 180.782 17.4219 181.246 18.9276C181.715 20.4285 181.95 22.0739 181.95 23.8636Z" fill="#A6A6A6"/>
</svg>
