<svg width="73" height="15" viewBox="0 0 73 15" fill="none" xmlns="http://www.w3.org/2000/svg">
<path d="M8.57943 3.83529C8.49421 3.1156 8.14856 2.55688 7.5425 2.15916C6.93644 1.76143 6.19307 1.56257 5.31239 1.56257C4.66845 1.56257 4.105 1.66673 3.62205 1.87507C3.14383 2.0834 2.76978 2.36986 2.49989 2.73444C2.23474 3.09902 2.10216 3.51332 2.10216 3.97734C2.10216 4.3656 2.19449 4.6994 2.37915 4.97876C2.56854 5.25338 2.81002 5.48302 3.10358 5.66768C3.39714 5.8476 3.70491 5.99675 4.02688 6.11512C4.34885 6.22876 4.64478 6.32109 4.91466 6.39211L6.39193 6.78984C6.77072 6.88927 7.19212 7.02658 7.65614 7.20177C8.12489 7.37696 8.57233 7.61607 8.99847 7.9191C9.42934 8.2174 9.78445 8.60092 10.0638 9.06967C10.3432 9.53842 10.4828 10.1137 10.4828 10.7955C10.4828 11.5815 10.2769 12.2917 9.86495 12.9262C9.45775 13.5607 8.86116 14.0649 8.07517 14.439C7.29392 14.813 6.34459 15.0001 5.22716 15.0001C4.1855 15.0001 3.28351 14.832 2.5212 14.4958C1.76362 14.1596 1.16703 13.6909 0.731423 13.0896C0.300552 12.4882 0.0567072 11.7898 -0.000110939 10.9944H1.81807C1.86542 11.5436 2.05008 11.9982 2.37205 12.358C2.69875 12.7131 3.11068 12.9783 3.60784 13.1535C4.10974 13.3239 4.64951 13.4092 5.22716 13.4092C5.89951 13.4092 6.5032 13.3003 7.03824 13.0825C7.57328 12.8599 7.99705 12.5521 8.30955 12.1592C8.62205 11.7614 8.7783 11.2974 8.7783 10.7671C8.7783 10.2842 8.64336 9.89116 8.37347 9.58813C8.10358 9.2851 7.74847 9.03889 7.30813 8.8495C6.86779 8.6601 6.39193 8.49438 5.88057 8.35234L4.0908 7.84098C2.95443 7.51427 2.05481 7.04789 1.39193 6.44183C0.729056 5.83577 0.397616 5.04268 0.397616 4.06257C0.397616 3.24817 0.617787 2.53794 1.05813 1.93188C1.5032 1.32109 2.09979 0.847604 2.8479 0.51143C3.60074 0.170521 4.44118 6.60419e-05 5.36921 6.60419e-05C6.30671 6.60419e-05 7.14004 0.168153 7.86921 0.504327C8.59837 0.835766 9.17603 1.29031 9.60216 1.86796C10.033 2.44562 10.2603 3.10139 10.284 3.83529H8.57943ZM17.8958 3.83529V5.25575H12.2424V3.83529H17.8958ZM13.8902 1.22166H15.5663V11.6194C15.5663 12.0929 15.635 12.448 15.7723 12.6847C15.9143 12.9167 16.0942 13.073 16.312 13.1535C16.5346 13.2292 16.7689 13.2671 17.0152 13.2671C17.1998 13.2671 17.3513 13.2576 17.4697 13.2387C17.5881 13.215 17.6828 13.1961 17.7538 13.1819L18.0947 14.6876C17.9811 14.7302 17.8225 14.7728 17.6189 14.8154C17.4153 14.8628 17.1572 14.8864 16.8447 14.8864C16.3712 14.8864 15.9072 14.7846 15.4527 14.581C15.0028 14.3774 14.6288 14.0673 14.3305 13.6506C14.0369 13.234 13.8902 12.7084 13.8902 12.0739V1.22166ZM27.2921 10.2842V3.83529H28.9683V14.7444H27.2921V12.8978H27.1785C26.9228 13.4518 26.5251 13.9229 25.9853 14.3111C25.4456 14.6947 24.7637 14.8864 23.9399 14.8864C23.2581 14.8864 22.652 14.7373 22.1217 14.439C21.5914 14.136 21.1747 13.6814 20.8717 13.0754C20.5687 12.4646 20.4171 11.6951 20.4171 10.7671V3.83529H22.0933V10.6535C22.0933 11.4489 22.3158 12.0834 22.7609 12.5569C23.2107 13.0304 23.7836 13.2671 24.4796 13.2671C24.8963 13.2671 25.3201 13.1606 25.751 12.9475C26.1866 12.7344 26.5511 12.4077 26.8447 11.9674C27.143 11.5271 27.2921 10.966 27.2921 10.2842ZM36.1576 14.9717C35.2485 14.9717 34.4459 14.742 33.7499 14.2827C33.0539 13.8187 32.5094 13.1653 32.1164 12.3225C31.7234 11.475 31.5269 10.4736 31.5269 9.31825C31.5269 8.17241 31.7234 7.1781 32.1164 6.33529C32.5094 5.49249 33.0562 4.84145 33.757 4.38217C34.4577 3.92289 35.2674 3.69325 36.186 3.69325C36.8962 3.69325 37.4573 3.81162 37.8692 4.04836C38.2859 4.28037 38.6031 4.54552 38.8209 4.84382C39.0435 5.13738 39.2163 5.37885 39.3394 5.56825H39.4814V0.19893H41.1576V14.7444H39.5382V13.0682H39.3394C39.2163 13.2671 39.0411 13.5181 38.8138 13.8211C38.5865 14.1194 38.2622 14.3869 37.8408 14.6236C37.4194 14.8557 36.8583 14.9717 36.1576 14.9717ZM36.3848 13.466C37.0572 13.466 37.6254 13.2908 38.0894 12.9404C38.5534 12.5853 38.9061 12.0952 39.1476 11.4702C39.3891 10.8405 39.5098 10.1137 39.5098 9.28984C39.5098 8.47544 39.3915 7.76285 39.1547 7.15205C38.918 6.53652 38.5676 6.05831 38.1036 5.7174C37.6396 5.37175 37.0667 5.19893 36.3848 5.19893C35.6746 5.19893 35.0827 5.38122 34.6093 5.7458C34.1405 6.10565 33.7878 6.59571 33.551 7.21598C33.319 7.83151 33.203 8.52279 33.203 9.28984C33.203 10.0664 33.3214 10.7718 33.5581 11.4063C33.7996 12.0361 34.1547 12.5379 34.6235 12.912C35.097 13.2813 35.6841 13.466 36.3848 13.466ZM49.034 14.9717C47.9828 14.9717 47.0761 14.7396 46.3138 14.2756C45.5562 13.8069 44.9715 13.1535 44.5595 12.3154C44.1524 11.4726 43.9488 10.4925 43.9488 9.37507C43.9488 8.25764 44.1524 7.27279 44.5595 6.42052C44.9715 5.56351 45.5444 4.8959 46.2783 4.41768C47.0169 3.93473 47.8787 3.69325 48.8635 3.69325C49.4317 3.69325 49.9928 3.78795 50.5468 3.97734C51.1007 4.16673 51.605 4.4745 52.0595 4.90063C52.5141 5.32204 52.8763 5.88075 53.1462 6.57677C53.4161 7.27279 53.551 8.1298 53.551 9.14779V9.85802H45.1419V8.40916H51.8465C51.8465 7.79363 51.7234 7.24438 51.4772 6.76143C51.2357 6.27848 50.89 5.89732 50.4402 5.61796C49.9952 5.33861 49.4696 5.19893 48.8635 5.19893C48.1959 5.19893 47.6183 5.36465 47.1306 5.69609C46.6476 6.02279 46.2759 6.44893 46.0155 6.9745C45.7551 7.50007 45.6249 8.06351 45.6249 8.66484V9.63075C45.6249 10.4546 45.7669 11.153 46.051 11.7259C46.3399 12.2941 46.7399 12.7273 47.2513 13.0256C47.7627 13.3192 48.3569 13.466 49.034 13.466C49.4743 13.466 49.872 13.4044 50.2272 13.2813C50.587 13.1535 50.8971 12.9641 51.1576 12.7131C51.418 12.4575 51.6192 12.1402 51.7613 11.7614L53.3806 12.216C53.2101 12.7652 52.9237 13.2482 52.5212 13.6648C52.1187 14.0768 51.6216 14.3987 51.0297 14.6307C50.4379 14.858 49.7726 14.9717 49.034 14.9717ZM57.7769 8.18188V14.7444H56.1007V3.83529H57.7201V5.53984H57.8621C58.1178 4.98586 58.506 4.54079 59.0269 4.20461C59.5477 3.8637 60.2201 3.69325 61.0439 3.69325C61.7826 3.69325 62.4289 3.84476 62.9828 4.14779C63.5368 4.44609 63.9677 4.90063 64.2755 5.51143C64.5832 6.11749 64.7371 6.88454 64.7371 7.81257V14.7444H63.061V7.9262C63.061 7.0692 62.8384 6.40158 62.3934 5.92336C61.9483 5.44041 61.3375 5.19893 60.561 5.19893C60.0259 5.19893 59.5477 5.31493 59.1263 5.54694C58.7096 5.77895 58.3806 6.11749 58.1391 6.56257C57.8976 7.00764 57.7769 7.54741 57.7769 8.18188ZM72.5443 3.83529V5.25575H66.8909V3.83529H72.5443ZM68.5386 1.22166H70.2147V11.6194C70.2147 12.0929 70.2834 12.448 70.4207 12.6847C70.5627 12.9167 70.7427 13.073 70.9605 13.1535C71.183 13.2292 71.4174 13.2671 71.6636 13.2671C71.8483 13.2671 71.9998 13.2576 72.1181 13.2387C72.2365 13.215 72.3312 13.1961 72.4022 13.1819L72.7431 14.6876C72.6295 14.7302 72.4709 14.7728 72.2673 14.8154C72.0637 14.8628 71.8056 14.8864 71.4931 14.8864C71.0197 14.8864 70.5556 14.7846 70.1011 14.581C69.6513 14.3774 69.2772 14.0673 68.9789 13.6506C68.6854 13.234 68.5386 12.7084 68.5386 12.0739V1.22166Z" fill="black"/>
</svg>
